<?xml version="1.0" encoding="UTF-8"?>
<svg width="120px" height="133px" viewBox="0 0 120 133" version="1.1" xmlns="http://www.w3.org/2000/svg" xmlns:xlink="http://www.w3.org/1999/xlink">
    <title>icon__webgap_logo2</title>
    <defs>
        <polygon id="path-1" points="0 0 119 0 119 119 0 119"></polygon>
    </defs>
    <g id="medical-3" stroke="none" stroke-width="1" fill="none" fill-rule="evenodd">
        <g id="6" transform="translate(-241.000000, -838.000000)">
            <g id="2" transform="translate(-2.000000, 739.000000)">
                <g id="icon__webgap_logo2" transform="translate(243.000000, 99.000000)">
                    <circle id="Oval" fill-opacity="0.2" fill="#0875AA" cx="59.6354839" cy="73.3645161" r="59.6354839"></circle>
                    <path d="M59.4994061,118 C91.7205848,118 118,91.7208516 118,59.5 C118,27.2791484 91.7205848,1 59.4994061,1 C27.2794152,1 1,27.2791484 1,59.5 C1,91.7208516 27.2794152,118 59.4994061,118" id="Fill-1" fill="#FFFFFF"></path>
                    <g id="Group-5">
                        <mask id="mask-2" fill="white">
                            <use xlink:href="#path-1"></use>
                        </mask>
                        <g id="Clip-4"></g>
                        <path d="M99.9869901,19.0130099 C89.6274436,8.6510926 75.3120891,2.24261243 59.5007113,2.24261243 C43.6893334,2.24261243 29.3739789,8.6510926 19.013247,19.0130099 C8.65132968,29.3737418 2.24166408,43.6890964 2.24166408,59.5004742 C2.24166408,75.311852 8.65132968,89.6272065 19.013247,99.9879384 C29.3739789,110.349856 43.6893334,116.759521 59.5007113,116.759521 C75.3120891,116.759521 89.6274436,110.349856 99.9869901,99.9879384 C110.347722,89.6272065 116.757388,75.3106666 116.757388,59.5004742 C116.757388,43.6902818 110.347722,29.3737418 99.9869901,19.0130099 M59.5007113,-0.000237087686 C75.9308879,-0.000237087686 90.8093257,6.66074147 101.574292,17.4268933 C112.339259,28.1918597 119.000237,43.0679266 119.000237,59.5004742 C119.000237,75.9318363 112.339259,90.8090886 101.574292,101.574055 C90.8093257,112.340207 75.9308879,119 59.5007113,119 C43.0705346,119 28.1920968,112.340207 17.425945,101.574055 C6.65979312,90.8090886 0,75.9306509 0,59.5004742 C0,43.0691121 6.65979312,28.1918597 17.425945,17.4268933 C28.1920968,6.66074147 43.0705346,-0.000237087686 59.5007113,-0.000237087686" id="Fill-3" fill="#0875AA" mask="url(#mask-2)"></path>
                    </g>
                    <path d="M63.4287163,52.8722594 L63.4287163,65.1277406 L63.4287163,67.5007323 L63.4287163,82.9209987 C63.4287163,86.2911963 66.1862593,89.047545 69.5564569,89.047545 L69.5576511,89.047545 C72.9278488,89.047545 75.6841975,86.2911963 75.6841975,82.9209987 L75.6841975,65.1277406 L83.9186102,65.1277406 C87.290002,65.1277406 90.047545,62.3713919 90.047545,59.0011943 L90.047545,59 C90.047545,55.6298024 87.290002,52.8722594 83.9186102,52.8722594 L75.6841975,52.8722594 L75.6841975,35.0813898 C75.6841975,31.709998 72.9278488,28.9536492 69.5576511,28.9536492 L69.5564569,28.9536492 C66.1862593,28.9536492 63.4287163,31.709998 63.4287163,35.0813898 L63.4287163,50.5016562 L63.4287163,52.8722594 Z M50.4423489,28.9536492 C47.0721512,28.9536492 44.3158025,31.709998 44.3158025,35.0813898 L44.3158025,52.8722594 L36.0801956,52.8722594 C32.709998,52.8722594 29.952455,55.6298024 29.952455,59 L29.952455,59.0011943 C29.952455,62.3713919 32.709998,65.1277406 36.0801956,65.1277406 L44.3158025,65.1277406 L44.3158025,82.9209987 C44.3158025,86.2911963 47.0721512,89.047545 50.4423489,89.047545 L50.4435431,89.047545 C53.814935,89.047545 56.5712837,86.2911963 56.5712837,82.9209987 L56.5712837,67.5007323 L56.5712837,65.1277406 L56.5712837,52.8722594 L56.5712837,50.5016562 L56.5712837,35.0813898 C56.5712837,31.709998 53.814935,28.9536492 50.4435431,28.9536492 L50.4423489,28.9536492 Z M60,6 C89.271277,6 113,29.7299173 113,59 C113,88.271277 89.271277,112 60,112 C30.728723,112 7,88.271277 7,59 C7,29.7299173 30.728723,6 60,6 L60,6 Z" id="Fill-6" fill="#0875AA"></path>
                </g>
            </g>
        </g>
    </g>
</svg>