<?xml version="1.0" encoding="UTF-8"?>
<svg width="79px" height="52px" viewBox="0 0 79 52" version="1.1" xmlns="http://www.w3.org/2000/svg" xmlns:xlink="http://www.w3.org/1999/xlink">
    <title>icon_fuq_1</title>
    <g id="medical-3" stroke="none" stroke-width="1" fill="none" fill-rule="evenodd">
        <g id="2" transform="translate(-203.000000, -3779.000000)">
            <g id="6" transform="translate(-168.000000, 3603.000000)">
                <g id="item" transform="translate(339.000000, 143.000000)">
                    <g id="icon_fuq_1" transform="translate(32.000000, 33.000000)">
                        <g id="Group-12">
                            <g id="Group-50" transform="translate(0.000000, 8.000000)">
                                <rect id="Rectangle" fill="#E4F7FF" x="0" y="0" width="47" height="38.9189189" rx="2"></rect>
                                <rect id="Rectangle-Copy-142" fill="#ADDBFF" x="6.6" y="18.2128267" width="13.2" height="3.24324324" rx="1.62162162"></rect>
                                <rect id="Rectangle-Copy-91" fill="#ADDBFF" x="6.6" y="25.7803942" width="7.7" height="3.24324324" rx="1.62162162"></rect>
                                <rect id="Rectangle-Copy-104" fill="#ADDBFF" x="14.3" y="10.6452591" width="5.5" height="3.24324324" rx="1.62162162"></rect>
                                <rect id="Rectangle-Copy-105" fill="#ADDBFF" x="6.6" y="10.6452591" width="5.5" height="3.24324324" rx="1.62162162"></rect>
                                <rect id="Rectangle-Copy-90" fill="#ADDBFF" x="16.5" y="25.7803942" width="3.3" height="3.24324324" rx="1.62162162"></rect>
                                <rect id="Rectangle-Copy-52" stroke="#2075B5" stroke-width="2" x="1" y="1" width="47" height="38" rx="4"></rect>
                            </g>
                            <g id="Group-50-Copy" transform="translate(6.000000, 0.000000)">
                                <path d="M20.1553398,1.08110057 L63.1553398,1.08110057 C67.5736178,1.08110057 71.1553398,4.66282258 71.1553398,9.08110057 L71.1553398,30.9196207 C71.1553398,35.3378987 67.5736178,38.9196207 63.1553398,38.9196207 L23.2265785,38.9196207 L23.2265785,38.9196207 L20.1553398,38.9196207 C19.0507703,38.9196207 18.1553398,38.0241902 18.1553398,36.9196207 L18.1553398,3.08110057 C18.1553398,1.97653107 19.0507703,1.08110057 20.1553398,1.08110057 Z" id="Rectangle-Copy-7" fill="#FFFFFF" transform="translate(44.655340, 20.000361) scale(1, -1) translate(-44.655340, -20.000361) "></path>
                                <path d="M32.8443686,6.32104874 C33.7399816,6.32104874 34.4660194,7.04708656 34.4660194,7.9426996 C34.4660194,8.83831264 33.7399816,9.56435046 32.8443686,9.56435046 L28.4760198,9.56435046 C27.5804068,9.56435046 26.8543689,8.83831264 26.8543689,7.9426996 C26.8543689,7.04708656 27.5804068,6.32104874 28.4760198,6.32104874 L32.8443686,6.32104874 Z M38.2812618,6.32104874 C39.1768748,6.32104874 39.9029126,7.04708656 39.9029126,7.9426996 C39.9029126,8.83831264 39.1768748,9.56435046 38.2812618,9.56435046 L38.2624276,9.56435046 C37.3668145,9.56435046 36.6407767,8.83831264 36.6407767,7.9426996 C36.6407767,7.04708656 37.3668145,6.32104874 38.2624276,6.32104874 L38.2812618,6.32104874 Z" id="Combined-Shape" fill="#ADDBFF"></path>
                                <path d="M54.8443686,6.32104874 C55.7399816,6.32104874 56.4660194,7.04708656 56.4660194,7.9426996 C56.4660194,8.83831264 55.7399816,9.56435046 54.8443686,9.56435046 L50.4760198,9.56435046 C49.5804068,9.56435046 48.8543689,8.83831264 48.8543689,7.9426996 C48.8543689,7.04708656 49.5804068,6.32104874 50.4760198,6.32104874 L54.8443686,6.32104874 Z M60.2812618,6.32104874 C61.1768748,6.32104874 61.9029126,7.04708656 61.9029126,7.9426996 C61.9029126,8.83831264 61.1768748,9.56435046 60.2812618,9.56435046 L60.2624276,9.56435046 C59.3668145,9.56435046 58.6407767,8.83831264 58.6407767,7.9426996 C58.6407767,7.04708656 59.3668145,6.32104874 60.2624276,6.32104874 L60.2812618,6.32104874 Z" id="Combined-Shape-Copy" fill="#ADDBFF"></path>
                                <path d="M68.1553398,1 C68.9837669,1 69.7337669,1.33578644 70.2766601,1.87867966 C70.8195534,2.42157288 71.1553398,3.17157288 71.1553398,4 L71.1553398,4 L71.1553398,36.0007212 C71.1553398,36.8291484 70.8195534,37.5791484 70.2766601,38.1220416 C69.7337669,38.6649348 68.9837669,39.0007212 68.1553398,39.0007212 L68.1553398,39.0007212 L22.1553398,39.0007212 C21.3269127,39.0007212 20.5769127,38.6649348 20.0340195,38.1220416 C19.4911262,37.5791484 19.1553398,36.8291484 19.1553398,36.0007212 L19.1553398,36.0007212 L19.1553398,4 C19.1553398,3.17157288 19.4911262,2.42157288 20.0340195,1.87867966 C20.5769127,1.33578644 21.3269127,1 22.1553398,1 L22.1553398,1 Z" id="Rectangle-Copy-52" stroke="#2075B5" stroke-width="2"></path>
                                <line x1="32.8349515" y1="51.4594497" x2="37.391046" y2="51.4594497" id="Path-25" stroke="#2075B5" stroke-width="2"></line>
                                <line x1="0" y1="3.45872847" x2="4.55609453" y2="3.45872847" id="Path-25-Copy" stroke="#2075B5" stroke-width="2"></line>
                            </g>
                        </g>
                        <path d="M45.5029196,25.9110155 L45.5029196,30.2515542 C45.5029196,31.2172154 44.7188365,32 43.7513461,32 C42.7840831,32 42,31.2172154 42,30.2515542 L42,17.7484458 C42,16.7825577 42.7840831,16 43.7513461,16 C44.7188365,16 45.5029196,16.7825577 45.5029196,17.7484458 L45.5029196,22.0254542 L47.0538831,22.0254542 C48.1286451,22.0254542 49,22.8953661 49,23.9681214 C49,25.0411035 48.1286451,25.9110155 47.0538831,25.9110155 L45.5029196,25.9110155 Z M39,30.2515542 C39,31.2172154 38.2138672,32 37.2440755,32 C36.2742839,32 35.488151,31.2172154 35.488151,30.2515542 L35.488151,25.9110155 L33.9512044,25.9110155 C32.8736328,25.9110155 32,25.0411035 32,23.9681214 C32,22.8953661 32.8736328,22.0254542 33.9512044,22.0254542 L35.488151,22.0254542 L35.488151,17.7484458 C35.488151,16.7825577 36.2742839,16 37.2440755,16 C38.2138672,16 39,16.7825577 39,17.7484458 L39,30.2515542 Z" id="Fill-1" stroke="#2075B5" stroke-width="2" fill="#FFFFFF"></path>
                        <rect id="Rectangle-Copy-142" fill="#ADDBFF" x="54.6" y="21.2128267" width="13.2" height="3.24324324" rx="1.62162162"></rect>
                        <rect id="Rectangle-Copy-91" fill="#ADDBFF" x="54.6" y="28.7803942" width="7.7" height="3.24324324" rx="1.62162162"></rect>
                        <rect id="Rectangle-Copy-104" fill="#ADDBFF" x="62.3" y="13.6452591" width="5.5" height="3.24324324" rx="1.62162162"></rect>
                        <rect id="Rectangle-Copy-105" fill="#ADDBFF" x="54.6" y="13.6452591" width="5.5" height="3.24324324" rx="1.62162162"></rect>
                        <rect id="Rectangle-Copy-90" fill="#ADDBFF" x="64.5" y="28.7803942" width="3.3" height="3.24324324" rx="1.62162162"></rect>
                    </g>
                </g>
            </g>
        </g>
    </g>
</svg>