<?xml version="1.0" encoding="UTF-8"?>
<svg width="15px" height="15px" viewBox="0 0 15 15" version="1.1" xmlns="http://www.w3.org/2000/svg" xmlns:xlink="http://www.w3.org/1999/xlink">
    <title>icon_footer_phone</title>
    <g id="medical-3" stroke="none" stroke-width="1" fill="none" fill-rule="evenodd">
        <g id="1" transform="translate(-1048.000000, -4123.000000)" fill="#FFFFFF" fill-rule="nonzero">
            <g id="footer" transform="translate(0.000000, 3917.000000)">
                <path d="M1062.24326,216.953002 L1062.24326,219.628845 C1062.24344,220.026358 1061.93602,220.356249 1061.53949,220.384075 C1061.20879,220.406777 1060.93863,220.418885 1060.72977,220.418885 C1054.04243,220.418885 1048.62188,214.998335 1048.62188,208.310998 C1048.62188,208.102137 1048.63324,207.83198 1048.65669,207.501283 C1048.68452,207.104745 1049.01441,206.797332 1049.41192,206.797512 L1052.08777,206.797512 C1052.28223,206.797315 1052.44518,206.944558 1052.46462,207.138046 C1052.48203,207.312097 1052.49792,207.450581 1052.51306,207.555768 C1052.66345,208.605313 1052.97164,209.62609 1053.4272,210.583497 C1053.49909,210.734846 1053.45217,210.915707 1053.31596,211.01257 L1051.68291,212.179468 C1052.6814,214.506037 1054.53549,216.360129 1056.86206,217.358616 L1058.02744,215.728592 C1058.12574,215.591164 1058.30826,215.543703 1058.46106,215.615837 C1059.41835,216.070538 1060.43886,216.377967 1061.48803,216.527713 C1061.59321,216.542848 1061.7317,216.559496 1061.90424,216.576144 C1062.09743,216.595953 1062.24425,216.758801 1062.24401,216.953002 L1062.24326,216.953002 Z" id="icon_footer_phone"></path>
            </g>
        </g>
    </g>
</svg>