<?xml version="1.0" encoding="UTF-8"?>
<svg width="105px" height="92px" viewBox="0 0 105 92" version="1.1" xmlns="http://www.w3.org/2000/svg" xmlns:xlink="http://www.w3.org/1999/xlink">
    <title>icon_affoedable</title>
    <g id="medical-3" stroke="none" stroke-width="1" fill="none" fill-rule="evenodd">
        <g id="1" transform="translate(-1010.000000, -1571.000000)">
            <g id="3" transform="translate(253.000000, 1037.000000)">
                <g id="icon_affoedable" transform="translate(757.177308, 535.131602)">
                    <rect id="Rectangle-Copy-27" fill-opacity="0.06" fill="#0091FF" x="41.8226925" y="11.8683977" width="63" height="71" rx="7.19621036"></rect>
                    <g id="Group-12">
                        <rect id="Rectangle" fill="#E3FFF5" x="11.0226925" y="7.86839771" width="75.6" height="63" rx="6"></rect>
                        <path d="M18.2256432,10.8683977 C16.3463262,10.8683977 14.8226925,12.3925486 14.8226925,14.2725034 L14.8226925,32.8911116 C14.8226925,34.771404 18.1972965,38.5495427 20.473467,32.8482396 C21.3974336,30.3849553 22.5589723,26.7276684 25.283965,24.0338203 C30.0303456,19.3415287 38.6507717,16.9403581 38.9160155,14.2725034 C39.1019562,12.4016631 37.3923818,10.8683977 35.5130648,10.8683977 L18.2256432,10.8683977 Z" id="Fill-5" fill="#BAF5E0"></path>
                        <path d="M86.6226925,27.9109726 L86.6226925,64.0530131 C86.6226925,67.2647613 84.0190561,69.8683977 80.8073079,69.8683977 L16.8380771,69.8683977 C13.6263289,69.8683977 11.0226925,67.2647613 11.0226925,64.0530131 L11.0226925,12.6837823 C11.0226925,9.47203409 13.6263289,6.86839771 16.8380771,6.86839771 L80.8073079,6.86839771 C84.0190561,6.86839771 86.6226925,9.47203409 86.6226925,12.6837823 L86.6226925,21.3703031 L86.6226925,21.3703031" id="Path" stroke="#2075B5" stroke-width="2.3" stroke-linecap="round" stroke-linejoin="round"></path>
                        <path d="M64.4307851,48.9850531 C66.7932174,47.7654745 68.6389878,52.0183827 69.5386925,51.4892792 C70.8580789,50.7133669 72.8693348,49.2057359 74.9543488,51.054437 C77.0393629,52.9031381 75.4422259,55.0194324 74.365981,56.1426299 C72.2067534,58.3960564 57.1203522,71.8492139 53.2109719,73.0259464 C49.3015916,74.2026788 45.1813847,73.019248 40.0299199,71.8425156 C36.59561,71.0580273 33.4036396,71.4525042 30.4540085,73.0259464 L30.5097329,72.9961812 L31.4237546,74.1255269 C32.8140108,75.8423503 32.5492757,78.3611361 30.8324523,79.7513923 L20.7295548,87.9325574 C19.0127313,89.3228136 16.4939456,89.0580785 15.1036894,87.3412551 L2.51728156,71.7983359 C1.12702535,70.0815124 1.39176039,67.5627267 3.10858385,66.1724704 L13.2114813,57.9913054 C14.9283048,56.6010491 17.4470905,56.8657842 18.8373468,58.5826076 L20.9447329,61.1851812 L29.038172,55.4740238 C30.728109,54.9149757 32.1854857,54.4317013 33.4103022,54.0242006 L33.959089,53.8415037 C34.4913627,53.6641872 34.9740969,53.5030119 35.4072916,53.3579778 L35.8239732,53.218324 C37.424647,52.6812303 38.2326895,52.4023951 38.2481009,52.3818182 C38.377668,52.2088231 42.9505373,53.5434658 47.5080426,54.8988415 L48.26672,55.1246745 C52.5564214,56.4025931 56.6114728,57.6253227 56.6757995,57.5402635 C60.4404374,52.5622871 63.0254325,49.7105503 64.4307851,48.9850531 Z" id="Combined-Shape" fill="#FFFFFF"></path>
                        <circle id="Oval-Copy-3" fill="#BAF5E0" cx="48.8226925" cy="34.8683977" r="15"></circle>
                        <circle id="Oval" stroke="#2075B5" stroke-width="2.3" fill="#FFFFFF" cx="48.8226925" cy="31.8683977" r="13.85"></circle>
                        <path d="M48.8237507,39.8683977 C49.0995884,39.8683977 49.3214579,39.7814489 49.4893592,39.6075512 C49.6572604,39.4336534 49.741211,39.2087857 49.741211,38.932948 L49.741211,37.7996146 C50.8685479,37.6317134 51.7650205,37.2179568 52.430629,36.5583448 C53.0962375,35.8987328 53.4290417,35.089209 53.4290417,34.1297734 C53.4290417,33.338239 53.2341563,32.7116076 52.8443856,32.2498792 C52.4546149,31.7881508 51.9838918,31.4433536 51.4322163,31.2154877 C50.8805408,30.9876217 50.1669606,30.7657522 49.2914756,30.5498792 C48.6318636,30.381978 48.1101705,30.2320661 47.7263962,30.1001437 C47.342622,29.9682213 47.0248089,29.7793325 46.772957,29.5334771 C46.5211052,29.2876217 46.3951793,28.9668104 46.3951793,28.5710432 C46.3951793,27.9953818 46.6170488,27.5426482 47.0607877,27.2128422 C47.5045267,26.8830362 48.0981775,26.7181332 48.8417401,26.7181332 C49.4413874,26.7181332 49.9600823,26.805082 50.3978248,26.9789797 C50.8355673,27.1528774 51.3002939,27.413724 51.7920047,27.7615194 C51.9599059,27.8694559 52.0948265,27.9414136 52.1967666,27.9773924 C52.2987066,28.0133713 52.4036449,28.0313607 52.5115814,28.0313607 C52.7154615,28.0313607 52.8923574,27.9354171 53.0422692,27.74353 C53.192181,27.5516429 53.2671369,27.3297734 53.2671369,27.0779215 C53.2671369,26.7301261 53.1232216,26.4482919 52.8353909,26.2324189 C51.9599059,25.5128422 50.9165197,25.0750997 49.7052322,24.9191914 L49.7052322,23.8038474 C49.7052322,23.5280097 49.6212816,23.303142 49.4533803,23.1292443 C49.2854791,22.9553466 49.0636096,22.8683977 48.7877719,22.8683977 C48.5119341,22.8683977 48.2900646,22.9553466 48.1221634,23.1292443 C47.9542622,23.303142 47.8703115,23.5280097 47.8703115,23.8038474 L47.8703115,24.9371808 C46.7429747,25.105082 45.8315108,25.5308316 45.13592,26.2144295 C44.4403292,26.8980273 44.0925338,27.7255406 44.0925338,28.6969691 C44.0925338,29.5124894 44.2964138,30.1601085 44.704174,30.6398263 C45.1119341,31.1195441 45.5976484,31.4763342 46.1613168,31.7101967 C46.7249853,31.9440591 47.4565549,32.1749233 48.3560258,32.4027892 C49.0036449,32.5706905 49.5073486,32.7176041 49.8671369,32.84353 C50.2269253,32.9694559 50.5267489,33.1403554 50.7666078,33.3562284 C51.0064668,33.5721014 51.1263962,33.8539356 51.1263962,34.201731 C51.1263962,34.7893854 50.907525,35.2391208 50.4697824,35.5509374 C50.0320399,35.862754 49.411405,36.0186623 48.6078777,36.0186623 C48.0202234,36.0186623 47.4595532,35.9347116 46.9258671,35.7668104 C46.392181,35.5989092 45.8495003,35.3350644 45.2978248,34.975276 C45.1299235,34.8793325 44.9950029,34.810373 44.8930629,34.7683977 C44.7911228,34.7264224 44.6801881,34.7054347 44.5602586,34.7054347 C44.3683715,34.7054347 44.197472,34.8013783 44.0475602,34.9932654 C43.8976484,35.1851526 43.8226925,35.4070221 43.8226925,35.6588739 C43.8226925,35.850761 43.8526749,36.0126658 43.9126396,36.1445882 C43.9726043,36.2765106 44.0805408,36.39644 44.2364491,36.5043765 C44.704174,36.8761579 45.2618459,37.1759815 45.909465,37.4038474 C46.557084,37.6317134 47.2226925,37.7756288 47.9062904,37.8355935 L47.9062904,38.932948 C47.9062904,39.2087857 47.990241,39.4336534 48.1581422,39.6075512 C48.3260435,39.7814489 48.547913,39.8683977 48.8237507,39.8683977 Z" id="$" fill="#2075B5" fill-rule="nonzero"></path>
                        <rect id="Rectangle" stroke="#2075B5" stroke-width="2.3" fill="#E3FFF5" transform="translate(16.970518, 72.961931) rotate(51.000000) translate(-16.970518, -72.961931) " x="4.12051807" y="63.6119314" width="25.7" height="18.7" rx="4"></rect>
                        <path d="M30.4540085,73.0259464 C33.4036396,71.4525042 36.59561,71.0580273 40.0299199,71.8425156 C45.1813847,73.019248 49.3015916,74.2026788 53.2109719,73.0259464 C57.1203522,71.8492139 72.2067534,58.3960564 74.365981,56.1426299 C75.4422259,55.0194324 77.0393629,52.9031381 74.9543488,51.054437 C72.8693348,49.2057359 70.8580789,50.7133669 69.5386925,51.4892792 C67.7849829,52.5206108 62.7799568,55.6922987 54.5236143,61.0043428" id="Path-3" stroke="#2075B5" stroke-width="2.3" stroke-linecap="round"></path>
                        <path d="M21.2539157,60.6905162 C24.7102342,58.4460276 32.5372002,51.0290229 40.3972744,52.597773 C48.2573485,54.166523 50.1686865,54.947945 53.4965054,55.7645912 C56.8243244,56.5812375 56.8243244,61.4938888 51.9782928,61.4938888 C48.747605,61.4938888 44.6128996,61.4938888 39.5741767,61.4938888" id="Path-4" stroke="#2075B5" stroke-width="2.3" stroke-linecap="round" stroke-linejoin="round"></path>
                        <path d="M68.9589765,50.7300435 C67.6358747,49.1764445 66.1264776,48.594781 64.4307851,48.9850531 C62.7350926,49.3753252 59.9052731,52.934496 55.9413266,59.6625654" id="Path-6" stroke="#2075B5" stroke-width="2.3" stroke-linecap="round"></path>
                        <line x1="41.440627" y1="0.5" x2="55.0671931" y2="0.5" id="Path-10" stroke="#2075B5" stroke-width="2.3" stroke-linecap="round" stroke-linejoin="round"></line>
                        <line x1="60.440627" y1="0.5" x2="66.0671931" y2="0.5" id="Path-10-Copy" stroke="#2075B5" stroke-width="2.3" stroke-linecap="round" stroke-linejoin="round"></line>
                    </g>
                </g>
            </g>
        </g>
    </g>
</svg>