<?xml version="1.0" encoding="UTF-8"?>
<svg width="90px" height="75px" viewBox="0 0 90 75" version="1.1" xmlns="http://www.w3.org/2000/svg" xmlns:xlink="http://www.w3.org/1999/xlink">
    <title>icon_best-in_4</title>
    <g id="medical-3" stroke="none" stroke-width="1" fill="none" fill-rule="evenodd">
        <g id="2" transform="translate(-1073.000000, -3165.000000)">
            <g id="5" transform="translate(171.000000, 2922.000000)">
                <g id="item" transform="translate(849.000000, 208.000000)">
                    <g id="icon_best-in_4" transform="translate(53.000000, 35.000000)">
                        <g id="Group-3">
                            <rect id="Rectangle-Copy-10" stroke="#2075B5" stroke-width="2" fill="#E4F7FF" x="1" y="6" width="77" height="57" rx="4"></rect>
                            <rect id="Rectangle-Copy-54" fill="#2075B5" x="1" y="15" width="76" height="2"></rect>
                            <path d="M5.11674592,10 C4.49985547,10 4,10.5050233 4,11.1282916 C4,11.7515599 4.49985547,12.2565832 5.11674592,12.2565832 C5.73318967,12.2565832 6.23349184,11.7515599 6.23349184,11.1282916 C6.23349184,10.5050233 5.73318967,10 5.11674592,10" id="Fill-9-Copy-3" fill="#3474A5"></path>
                            <path d="M9.5837296,10 C8.96683915,10 8.46698368,10.5050233 8.46698368,11.1282916 C8.46698368,11.7515599 8.96683915,12.2565832 9.5837296,12.2565832 C10.2001733,12.2565832 10.7004755,11.7515599 10.7004755,11.1282916 C10.7004755,10.5050233 10.2001733,10 9.5837296,10" id="Fill-11-Copy-3" fill="#3474A5"></path>
                            <path d="M14.0507133,10 C13.4338228,10 12.9339674,10.5050233 12.9339674,11.1282916 C12.9339674,11.7515599 13.4338228,12.2565832 14.0507133,12.2565832 C14.667157,12.2565832 15.1674592,11.7515599 15.1674592,11.1282916 C15.1674592,10.5050233 14.667157,10 14.0507133,10" id="Fill-13-Copy-3" fill="#3474A5"></path>
                            <g id="Group-50" transform="translate(16.971070, 0.000000)" stroke="#2075B5" stroke-width="2">
                                <line x1="0" y1="71.5" x2="16.2090678" y2="71.5" id="Path-12"></line>
                                <line x1="21" y1="71.5" x2="25.754165" y2="71.5" id="Path-12-Copy"></line>
                                <line x1="27" y1="0.5" x2="33.2090678" y2="0.5" id="Path-12" transform="translate(30.104534, 0.500000) scale(-1, 1) translate(-30.104534, -0.500000) "></line>
                                <line x1="17" y1="0.5" x2="21.754165" y2="0.5" id="Path-12-Copy" transform="translate(19.377082, 0.500000) scale(-1, 1) translate(-19.377082, -0.500000) "></line>
                            </g>
                            <rect id="Rectangle-Copy-142" fill="#ADDBFF" x="6" y="21" width="12" height="3" rx="1.5"></rect>
                            <rect id="Rectangle-Copy-91" fill="#ADDBFF" x="6" y="28" width="7" height="3" rx="1.5"></rect>
                            <rect id="Rectangle-Copy-90" fill="#ADDBFF" x="15" y="28" width="3" height="3" rx="1.5"></rect>
                            <path d="M49.0050049,43.8779739 L49.0050049,52.202633 C49.0050049,53.8321863 47.6608625,55.1531353 46.0023077,55.1531353 C44.3441424,55.1531353 43,53.8321863 43,52.202633 L43,30.1036377 C43,28.4737015 44.3441424,27.1531353 46.0023077,27.1531353 C47.6608625,27.1531353 49.0050049,28.4737015 49.0050049,30.1036377 L49.0050049,37.3210893 L52.6637996,37.3210893 C54.5062487,37.3210893 56,38.7890657 56,40.5993402 C56,42.4099975 54.5062487,43.8779739 52.6637996,43.8779739 L49.0050049,43.8779739 Z M38.9974091,52.2275742 C38.9974091,53.8571275 37.6497529,55.1780765 35.9872529,55.1780765 C34.3247529,55.1780765 32.9770966,53.8571275 32.9770966,52.2275742 L32.9770966,43.9029151 L29.342331,43.9029151 C27.4950654,43.9029151 25.9974091,42.4349387 25.9974091,40.6242814 C25.9974091,38.8140069 27.4950654,37.3460305 29.342331,37.3460305 L32.9770966,37.3460305 L32.9770966,30.1285789 C32.9770966,28.4986427 34.3247529,27.1780765 35.9872529,27.1780765 C37.6497529,27.1780765 38.9974091,28.4986427 38.9974091,30.1285789 L38.9974091,52.2275742 Z" id="Fill-1-Copy" fill="#ADDBFF"></path>
                            <path d="M49.0050049,40.8779739 L49.0050049,48.202633 C49.0050049,49.8321863 47.6608625,51.1531353 46.0023077,51.1531353 C44.3441424,51.1531353 43,49.8321863 43,48.202633 L43,27.1036377 C43,25.4737015 44.3441424,24.1531353 46.0023077,24.1531353 C47.6608625,24.1531353 49.0050049,25.4737015 49.0050049,27.1036377 L49.0050049,34.3210893 L51.6637996,34.3210893 C53.5062487,34.3210893 55,35.7890657 55,37.5993402 C55,39.4099975 53.5062487,40.8779739 51.6637996,40.8779739 L49.0050049,40.8779739 Z M38.9974091,48.2275742 C38.9974091,49.8571275 37.6497529,51.1780765 35.9872529,51.1780765 C34.3247529,51.1780765 32.9770966,49.8571275 32.9770966,48.2275742 L32.9770966,40.9029151 L30.342331,40.9029151 C28.4950654,40.9029151 26.9974091,39.4349387 26.9974091,37.6242814 C26.9974091,35.8140069 28.4950654,34.3460305 30.342331,34.3460305 L32.9770966,34.3460305 L32.9770966,27.1285789 C32.9770966,25.4986427 34.3247529,24.1780765 35.9872529,24.1780765 C37.6497529,24.1780765 38.9974091,25.4986427 38.9974091,27.1285789 L38.9974091,48.2275742 Z" id="Fill-1" stroke="#2075B5" stroke-width="2" fill="#FFFFFF"></path>
                        </g>
                        <path d="M77.746177,46.4153102 C78.6474152,46.4159597 79.453578,46.77763 80.0522443,47.3757921 C80.6449488,47.9718731 81.0053625,48.7789336 81.0066574,49.6824197 L81.0066574,49.6824197 L81.0066574,51.4651044 L88.752732,51.5916745 L88.752732,60.7138511 L85.490517,60.7138509 C84.9682771,60.7135561 84.4896213,60.9288412 84.1461083,61.2743623 C83.8034593,61.6166571 83.5882423,62.0978022 83.5888315,62.6242292 C83.5882422,63.1487475 83.8031258,63.6296709 84.1485405,63.9747379 C84.4896213,64.317821 84.9683201,64.5326554 85.4910814,64.5323605 L85.4910814,64.5323605 L88.752732,64.5323605 L88.752732,73.6545371 L79.6472558,73.6545371 L79.6472567,70.3867545 C79.6478458,69.8623607 79.4330341,69.3815391 79.0867942,69.0359399 C78.7461637,68.6930142 78.2677138,68.4778777 77.7448919,68.4781724 C77.222652,68.4778776 76.7439962,68.6931627 76.4004843,69.0386828 C76.0575007,69.3813128 75.8426171,69.8622362 75.843207,70.3878779 L75.843207,70.3878779 L75.843207,73.6545371 L66.7372816,73.6545371 L66.7372816,66.0167857 L64.8347612,65.8902153 C63.9334138,65.8895657 63.126713,65.528148 62.5283122,64.9302507 C61.9351106,64.3330234 61.5751256,63.526722 61.5738322,62.6221231 C61.5751252,61.7200111 61.9355232,60.9138747 62.5310031,60.3137127 C63.1267129,59.7185142 63.9334687,59.3566458 64.8354818,59.355996 L64.8354818,59.355996 L66.6138737,59.355996 L66.7372816,51.5916745 L74.3599483,51.5916745 L74.4833572,49.6809844 C74.4846508,48.7797935 74.844781,47.9728072 75.4404616,47.3730947 C76.0372658,46.7774481 76.8431715,46.4159595 77.746177,46.4153102 Z" id="Path" stroke="#2075B5" stroke-width="2" fill="#FFFFFF"></path>
                    </g>
                </g>
            </g>
        </g>
    </g>
</svg>