<?xml version="1.0" encoding="UTF-8"?>
<svg width="112px" height="101px" viewBox="0 0 112 101" version="1.1" xmlns="http://www.w3.org/2000/svg" xmlns:xlink="http://www.w3.org/1999/xlink">
    <title>icon_effective</title>
    <g id="medical-3" stroke="none" stroke-width="1" fill="none" fill-rule="evenodd">
        <g id="1" transform="translate(-321.000000, -1270.000000)">
            <g id="3" transform="translate(253.000000, 1037.000000)">
                <g id="Group-27-Copy" transform="translate(68.000000, 233.000000)">
                    <circle id="Oval" fill-opacity="0.06" fill="#0091FF" cx="72.5" cy="39.5" r="39.5"></circle>
                    <path d="M51.5,15 C72.5865375,15 89.6805536,32.0940161 89.6805536,53.1805536 C89.6805536,53.2865917 89.6801118,53.3926293 89.6792284,53.4986637 L89.3662965,91.0564013 C89.3468317,93.3914047 87.7137681,95.4020106 85.4323594,95.8997999 C69.8492717,99.2999333 58.5384853,101 51.5,101 C44.4727907,101 33.5350168,99.3053761 18.6866784,95.9161283 C16.4554558,95.4068354 14.8548427,93.4476624 14.8007452,91.1596924 L13.9100525,53.4892427 C13.4191877,32.728888 29.850856,15.5013707 50.6112107,15.0105059 C50.9074221,15.0035022 51.2037059,15 51.5,15 Z" id="Rectangle" fill="#E3FFF5"></path>
                    <rect id="Rectangle" fill="#FFFFFF" x="31" y="45" width="41" height="34" rx="5"></rect>
                    <circle id="Oval" fill="#FFFFFF" cx="68" cy="75" r="9"></circle>
                    <path d="M26.0217799,19.1267712 L32.8088635,20.0416459 L30.7490733,34.3359023 L24.9348115,44.7880443 L17.8494989,49.7212134 L10.9254657,46.2204598 C7.0935623,41.7856421 4.5700885,37.8534862 3.3550443,34.4239923 C2.1400001,30.9944984 1.57182085,26.2003829 1.65050655,20.0416459 C9.21683552,18.7240598 14.4086986,17.2220925 17.2260957,15.5357442 C19.39933,16.3057292 22.3312247,17.5027382 26.0217799,19.1267712 Z" id="Path-5" fill="#FFFFFF"></path>
                    <path d="M62.4803949,88.4515061 C76.5745849,88.4515061 88,90.3652541 88,92.725753 C88,95.086252 76.5745849,97 62.4803949,97 C48.3862049,97 36.9607898,95.086252 36.9607898,92.725753 C36.9607898,90.3652541 48.3862049,88.4515061 62.4803949,88.4515061 Z M59.1246904,24.1865178 C59.887896,20.4916088 69.3339548,23.5680778 73.7758383,28.7344783 C78.2177218,33.9013283 81.0731865,40.5963001 77.4256237,42.605331 C74.2839012,44.3357044 73.3935687,38.1414172 68.9516853,32.9750167 C64.5098018,27.8086162 58.2685844,28.3277282 59.1246904,24.1865178 Z" id="Combined-Shape" fill="#BAF5E0"></path>
                    <path d="M32.4605086,22 C31.8866597,31.075696 28.6493699,44.2714784 16.7847893,48.0252649 L16.5625396,48.0252649 C15.6575386,47.7753721 14.8054331,47.471096 14,47.1223247 C16.0575882,49.1034898 18.6325738,50.6702642 21.8676411,51.5642156 L22.0898908,51.5642156 C35.4382107,47.3412057 37.869623,31.1624394 37.869623,22.3501197 C36.1365194,22.5523711 34.2838455,22.3860755 32.4605086,22" id="Fill-1" fill="#BAF5E0"></path>
                    <path d="M17.2109185,14 C17.459471,14 17.6950594,14.0807216 17.8922027,14.232299 C18.4925731,14.6964485 19.3325554,15.2404227 20.3276594,15.7830515 C21.3227634,16.3265773 22.4738833,16.8714485 23.707705,17.3530876 C26.1744543,18.3186082 28.9773753,19.0231289 31.5129683,19.0204381 C31.7731437,19.0204381 32.0297429,19.0119175 32.2832127,18.9971186 C37.4818042,16.1001082 43.4698627,14.4480052 49.8352204,14.4484536 L49.8352204,14.4484536 L53.3551885,14.4484536 C73.3895917,14.4493505 89.6299932,30.7407732 89.6304402,50.8391186 L89.6304402,50.8391186 L89.6304402,93.3480361 C89.6657561,93.503201 89.6899193,93.6619536 89.6899193,93.8247423 C89.6916843,94.267366 89.5472914,94.6907062 89.3331607,95.0333247 C89.118583,95.3799794 88.8414202,95.6638505 88.5253651,95.9194691 C87.8905728,96.4266701 87.0818832,96.8370052 86.0867792,97.2267113 C84.0992534,97.9976031 81.3513179,98.6550361 77.967696,99.2124639 C71.2071578,100.321041 61.9298022,101 51.6327555,101 C45.6943181,101 40.0942875,100.773531 35.1223437,100.369923 C30.1499529,99.965866 25.8083311,99.385567 22.3706178,98.6702835 C20.0768717,98.1913351 18.1885881,97.6572268 16.7468943,97.0468814 C15.9221113,96.6952938 15.2403801,96.3239742 14.6923129,95.8710361 C14.4008449,95.6275258 14.1446928,95.3580052 13.9435262,95.0328763 C13.7298426,94.6902577 13.5854497,94.267366 13.5872378,93.8247423 C13.5863438,93.6798918 13.6064604,93.5381804 13.6346237,93.3996082 L13.6346237,93.3996082 L13.6346237,50.7633299 C13.6341767,50.2372938 13.649376,49.7143969 13.6712808,49.1932938 C11.3283607,48.1380825 9.35603411,46.7102062 7.73418444,45.0280567 C5.45474357,42.6665 3.84317575,39.8322732 2.70278476,36.8751701 C0.426473149,30.9573763 0.00312925791,24.5252062 0,20.0541237 C0,19.7339278 0.135452164,19.4303247 0.373722802,19.2173093 C0.61199344,19.0038454 0.928495525,18.9033918 1.24544465,18.9401649 C1.71215111,18.9944278 2.19360979,19.0204381 2.68445625,19.0204381 C4.58615098,19.0213351 6.63894417,18.6280412 8.58623667,18.0212835 C10.5339762,17.4154227 12.3775561,16.5987887 13.8706592,15.7830515 C14.8648691,15.2404227 15.7052984,14.6964485 16.3061159,14.232299 C16.5028121,14.0807216 16.7388476,14 16.9874001,14 L16.9874001,14 Z M51.6327555,88.8917524 C45.5552896,88.8917524 39.8381354,89.1316753 34.8143354,89.5550155 C29.7918764,89.9779072 25.4596424,90.5864588 22.1766038,91.3138505 C19.9905936,91.7963866 18.2645843,92.3399124 17.1595093,92.8740206 C16.5282932,93.1740361 16.1089727,93.4798814 15.9368635,93.6763041 C15.9073591,93.7090412 15.8863483,93.7355 15.869808,93.7588196 L15.869808,93.7588196 L15.869808,93.8902165 C15.9167468,93.9556907 16.0052601,94.054799 16.1501001,94.1705 C16.4947655,94.4516804 17.1313459,94.8014742 17.9972563,95.1364691 C19.7331004,95.813634 22.3764292,96.4607526 25.6643852,96.9993454 C32.2483439,98.0814639 41.4376332,98.7586289 51.6327555,98.7577328 C57.7097744,98.7577328 63.4287167,98.5182577 68.4534108,98.0944691 C73.4776579,97.6715773 77.8112331,97.0630258 81.0965069,96.335634 C83.2838582,95.8530979 85.0107615,95.3091237 86.1167306,94.7754639 C86.7483937,94.4754485 87.1681613,94.1691546 87.3402705,93.972732 C87.3626223,93.948067 87.3805038,93.9260928 87.395703,93.9068093 L87.395703,93.9068093 L87.395703,93.7426753 C87.3456349,93.6776495 87.2589098,93.5848196 87.1265869,93.4789845 C86.7814744,93.1978041 86.144894,92.8480103 85.2785366,92.5134639 C83.5409043,91.8354021 80.8962344,91.188732 77.6069373,90.6501392 C71.0198494,89.5684691 61.8278778,88.8913041 51.6327555,88.8917524 Z M53.3551885,16.6907216 L49.8352204,16.6907216 C44.1900391,16.6907216 38.8734299,18.0701649 34.1920601,20.5110979 C34.1612145,23.8242732 33.7982206,28.0383918 32.6801815,32.3148454 C31.5089449,36.7827887 29.5178428,41.3224845 26.1655135,44.8782732 C23.9325645,47.2470052 21.087175,49.1632474 17.544408,50.2736186 C17.434884,50.3081495 17.3253599,50.3247423 17.2109185,50.3247423 L17.2109185,50.3247423 L16.9874001,50.3247423 C16.8827935,50.3247423 16.7933861,50.3130825 16.6923558,50.2852784 C16.4142988,50.2090412 16.149206,50.1189021 15.8800898,50.0332474 C15.8747254,50.2763093 15.8693609,50.5189227 15.8693609,50.7633299 L15.8693609,50.7633299 L15.8693609,91.0156289 C16.2667767,90.8070979 16.7048728,90.6124691 17.1890137,90.4227732 C19.1747514,89.6518814 21.9208987,88.9944485 25.3036265,88.4374691 C32.0610354,87.3284433 41.3357088,86.6503814 51.6327555,86.6494845 C57.5711929,86.6494845 63.1725646,86.8759536 68.1454025,87.2795619 C73.1195814,87.684067 77.4625444,88.2634691 80.9020458,88.979201 C83.196686,89.4581495 85.0858637,89.9922577 86.5284516,90.6021546 C86.8400362,90.7348969 87.1243517,90.8725722 87.395703,91.0142835 L87.395703,91.0142835 L87.395703,50.8391186 C87.394809,41.4058969 83.5873962,32.8758608 77.4254403,26.6930309 C71.2616963,20.5110979 62.7586085,16.6907216 53.3551885,16.6907216 L53.3551885,16.6907216 Z M69.0337541,44.7880443 C71.7231277,44.7889412 73.9019853,46.9742557 73.9024323,49.672601 L73.9024323,49.672601 L73.9028794,65.903034 C76.5292208,67.8645701 78.2310901,71.0028485 78.2310901,74.5411474 C78.2310901,80.4858485 73.4281263,85.3035856 67.5026529,85.304034 C63.6013623,85.3035856 60.187789,83.2151371 58.3102343,80.0921062 L58.3102343,80.0921062 L34.3866105,80.0921062 C31.6967898,80.0916577 29.5174852,77.9058948 29.5174852,75.2079979 L29.5174852,75.2079979 L29.5174852,49.672601 C29.5174852,46.9742557 31.6967898,44.7889412 34.3866105,44.7880443 L34.3866105,44.7880443 Z M67.5026529,66.0205289 C65.1534743,66.0209773 63.0372018,66.9725959 61.4967129,68.5166216 C59.957565,70.0619928 59.0093999,72.1849722 59.0085058,74.5411474 C59.0093999,76.8977711 59.957565,79.0207505 61.4967129,80.5665701 C63.0372018,82.109699 65.1534743,83.0613175 67.5026529,83.061766 C69.8513845,83.0613175 71.9676569,82.109699 73.5085929,80.5665701 C75.0472937,79.0207505 75.9954589,76.8977711 75.9963529,74.5411474 C75.9954589,72.1845237 75.0472937,70.0619928 73.5085929,68.5166216 C71.9676569,66.9725959 69.8513845,66.0209773 67.5026529,66.0205289 Z M94.8824079,76.798349 C95.4993187,76.798349 96,77.3001686 96,77.919483 L96,77.919483 L96,81.157318 C96,81.7766325 95.4993187,82.2784521 94.8824079,82.2784521 C94.26505,82.2784521 93.7648158,81.7766325 93.7648158,81.157318 L93.7648158,81.157318 L93.7648158,77.919483 C93.7648158,77.3001686 94.26505,76.798349 94.8824079,76.798349 Z M67.2497259,68.7117505 L67.3716264,68.7152866 C67.9867491,68.7668588 68.4440678,69.3085907 68.3926585,69.9256629 L68.3926585,69.9256629 L67.9921135,74.748333 L71.5979127,77.9637454 C72.0592547,78.3749773 72.1003821,79.083534 71.6904493,79.5463381 C71.2800695,80.0091423 70.5737513,80.0508485 70.1128563,79.6396165 L70.1128563,79.6396165 L66.0895247,76.0519876 C65.8271141,75.8178948 65.6889797,75.4716887 65.7180371,75.1209979 L65.7180371,75.1209979 L66.1650739,69.7395546 L66.1821115,69.6183608 C66.2888197,69.0636374 66.7975119,68.6675711 67.3716264,68.7152866 Z M71.6676952,57.0729825 L31.7522224,57.0729825 L31.7522224,75.2079979 C31.7531165,75.9412196 32.0459256,76.5946165 32.523808,77.0758072 C33.0039255,77.556101 33.6552582,77.8493897 34.3866105,77.8498381 L34.3866105,77.8498381 L57.2927784,77.8498381 C56.9570537,76.8071835 56.7737686,75.6959155 56.7737686,74.5411474 C56.7742157,68.5964464 61.5767325,63.7791577 67.5026529,63.7782608 C68.9796626,63.7787093 70.3864876,64.0782763 71.6676952,64.6200082 L71.6676952,64.6200082 L71.6676952,57.0729825 Z M94.862783,61.8976258 C95.4796938,61.8976258 95.9803751,62.3994454 95.9803751,63.0187598 L95.9803751,63.0187598 L95.9803751,72.5349454 C95.9803751,73.1542598 95.4796938,73.6560794 94.862783,73.6560794 C94.2454251,73.6560794 93.7451909,73.1542598 93.7451909,72.5349454 L93.7451909,72.5349454 L93.7451909,63.0187598 C93.7451909,62.3994454 94.2454251,61.8976258 94.862783,61.8976258 Z M69.0337541,47.0303124 L34.3866105,47.0303124 C33.6552582,47.0307608 33.0039255,47.3244979 32.523808,47.8043433 C32.0459256,48.2859825 31.7531165,48.9393794 31.7522224,49.672601 L31.7522224,49.672601 L31.7522224,54.8307144 L71.6676952,54.8307144 L71.6676952,49.672601 C71.6668011,48.9393794 71.373992,48.2859825 70.8961096,47.8043433 C70.415992,47.3244979 69.7646593,47.0307608 69.0337541,47.0303124 L69.0337541,47.0303124 Z M36.4467351,49.7212134 C37.064093,49.7212134 37.5643272,50.223033 37.5643272,50.8423474 C37.5643272,51.4616619 37.064093,51.9634814 36.4467351,51.9634814 C35.8293772,51.9634814 35.329143,51.4616619 35.329143,50.8423474 C35.329143,50.223033 35.8293772,49.7212134 36.4467351,49.7212134 Z M40.9171035,49.7212134 C41.5344614,49.7212134 42.0346956,50.223033 42.0346956,50.8423474 C42.0346956,51.4616619 41.5344614,51.9634814 40.9171035,51.9634814 C40.2997457,51.9634814 39.7995114,51.4616619 39.7995114,50.8423474 C39.7995114,50.223033 40.2997457,49.7212134 40.9171035,49.7212134 Z M45.387472,49.7212134 C46.0048299,49.7212134 46.5050641,50.223033 46.5050641,50.8423474 C46.5050641,51.4616619 46.0048299,51.9634814 45.387472,51.9634814 C44.7701141,51.9634814 44.2698799,51.4616619 44.2698799,50.8423474 C44.2698799,50.223033 44.7701141,49.7212134 45.387472,49.7212134 Z M17.0987123,16.4270309 C16.4804603,16.8597887 15.7544725,17.3073454 14.9390773,17.7526598 C13.8594833,18.3423763 12.6270027,18.9244691 11.3010914,19.4428814 C8.64748071,20.4761186 5.62282943,21.259567 2.68445625,21.2622577 C2.5382752,21.2622577 2.39254119,21.2550825 2.24680718,21.2505979 C2.30313382,24.3157784 2.59549592,28.0984845 3.49403997,31.8565258 C4.51149583,36.1235619 6.3067958,40.3314021 9.33994079,43.4683351 C11.3238903,45.5195619 13.8348963,47.1304072 17.0848541,48.0609485 C20.153315,47.0568608 22.5856425,45.4078969 24.5423227,43.3369381 C26.5414715,41.2188918 28.039939,38.6555309 29.1445671,35.9244485 C31.1589151,30.9533402 31.8424344,25.4396031 31.946594,21.2510464 C31.8022011,21.2550825 31.6582552,21.2622577 31.5129683,21.2622577 C29.3090766,21.2613608 27.0577991,20.8178402 24.9495733,20.1626495 C22.8413476,19.5065619 20.8779617,18.6365619 19.2587943,17.7526598 C18.4438461,17.3073454 17.7178583,16.8597887 17.0987123,16.4270309 Z M21.8676119,26.5719036 C22.233288,26.0736716 22.9329007,25.9673881 23.4300057,26.3342232 C23.9266636,26.7015067 24.0326113,27.4037851 23.6664882,27.902017 L23.6664882,27.902017 L17.4079723,36.4226356 C17.2090409,36.6935015 16.894774,36.8616716 16.5599434,36.877816 C16.2246658,36.8930634 15.8956467,36.7535943 15.6730224,36.5024603 L15.6730224,36.5024603 L12.0967276,32.4663778 C11.6867948,32.0035737 11.7283692,31.2945686 12.1897113,30.8833366 C12.6506062,30.4721046 13.3569245,30.5138108 13.7673043,30.9761665 L13.7673043,30.9761665 L16.4271735,33.9781149 Z" id="Combined-Shape" fill="#2075B5"></path>
                </g>
            </g>
        </g>
    </g>
</svg>