<?xml version="1.0" encoding="UTF-8"?>
<svg width="58px" height="56px" viewBox="0 0 58 56" version="1.1" xmlns="http://www.w3.org/2000/svg" xmlns:xlink="http://www.w3.org/1999/xlink">
    <title>icon_fuq2_4</title>
    <g id="medical-3" stroke="none" stroke-width="1" fill="none" fill-rule="evenodd">
        <g id="3" transform="translate(-202.000000, -3056.000000)">
            <g id="5" transform="translate(-205.368961, 2489.000000)">
                <g id="item" transform="translate(376.368961, 545.000000)">
                    <g id="icon_fuq2_4" transform="translate(31.000000, 24.313123)">
                        <g id="Group-50-Copy-3" transform="translate(0.000000, 6.840012)">
                            <rect id="Rectangle" fill="#E4F7FF" x="0" y="0" width="48.0769231" height="41" rx="2"></rect>
                            <path d="M13.5,15.8468647 C14.3284271,15.8468647 15,16.5184375 15,17.3468647 C15,18.1752918 14.3284271,18.8468647 13.5,18.8468647 L9.5,18.8468647 C8.67157288,18.8468647 8,18.1752918 8,17.3468647 C8,16.5184375 8.67157288,15.8468647 9.5,15.8468647 L13.5,15.8468647 Z M18.5,15.8468647 C19.3284271,15.8468647 20,16.5184375 20,17.3468647 C20,18.1752918 19.3284271,18.8468647 18.5,18.8468647 C17.6715729,18.8468647 17,18.1752918 17,17.3468647 C17,16.5184375 17.6715729,15.8468647 18.5,15.8468647 Z M18.5,8.84686466 C19.3284271,8.84686466 20,9.51843753 20,10.3468647 C20,11.1752918 19.3284271,11.8468647 18.5,11.8468647 L9.5,11.8468647 C8.67157288,11.8468647 8,11.1752918 8,10.3468647 C8,9.51843753 8.67157288,8.84686466 9.5,8.84686466 L18.5,8.84686466 Z" id="Combined-Shape" fill="#ADDBFF"></path>
                            <rect id="Rectangle" stroke="#2075B5" stroke-width="2" x="9" y="28" width="32" height="5" rx="2.5"></rect>
                            <path d="M27,28 L27,33 L11.5,33 C10.8096441,33 10.1846441,32.720178 9.73223305,32.267767 C9.27982203,31.8153559 9,31.1903559 9,30.5 C9,29.8096441 9.27982203,29.1846441 9.73223305,28.732233 C10.1846441,28.279822 10.8096441,28 11.5,28 L11.5,28 L27,28 Z" id="Rectangle-Copy-8" stroke="#2075B5" stroke-width="2" fill="#FFFFFF"></path>
                            <rect id="Rectangle-Copy-52" stroke="#2075B5" stroke-width="2" x="1" y="1" width="48" height="39" rx="4"></rect>
                        </g>
                        <path d="M44.9745908,-1 L45.4527392,0.928274267 C45.5185328,1.192907 45.7051915,1.41118461 45.9560154,1.5155782 L45.9560154,1.5155782 L49.4316938,2.96193465 L51.8967768,1.87918838 L54.0376435,4.02948613 L53.0202857,5.72913621 L54.4041142,9.99676623 C54.5076548,10.247728 54.7229139,10.4357001 54.9861656,10.5014665 L54.9861656,10.5014665 L56.9093132,10.9825127 L56.9093132,14.0177051 L54.9875712,14.4978472 C54.7239626,14.5640628 54.5077995,14.7516816 54.4040157,15.0030272 L54.4040157,15.0030272 L52.9634243,18.492179 L54.0381396,20.9702513 L51.8969528,23.1199523 L50.1975177,22.0950592 L45.9567136,23.4836857 C45.705725,23.5883539 45.5189796,23.8063951 45.4532882,24.0704101 L45.4532882,24.0704101 L44.9744462,26 L41.9428244,26 L41.4640164,24.0712805 C41.398177,23.8064639 41.2114921,23.5883615 40.9612254,23.483994 L40.9612254,23.483994 L37.4831535,22.036827 L35.0196581,23.119807 L32.8784013,20.9700358 L33.8964672,19.2704229 L32.5127513,15.003055 C32.4089981,14.7517835 32.193269,14.564011 31.9313821,14.4981755 L31.9313821,14.4981755 L30.0078858,14.0177766 L30.0078858,10.9825847 L31.9310519,10.501351 C32.1942071,10.4356598 32.4092212,10.2476762 32.5126954,9.99708039 L32.5126954,9.99708039 L33.9542528,6.50443788 L32.8782601,4.02966076 L35.0198749,1.8795301 L36.7202554,2.90528694 L40.9611311,1.51560004 C41.211722,1.41130342 41.3983141,1.19336412 41.4639536,0.928526781 L41.4639536,0.928526781 L41.9428961,-1 L44.9745908,-1 Z" id="Path-Copy" stroke="#2075B5" stroke-width="2" fill="#FFFFFF" stroke-linejoin="round"></path>
                        <line x1="20" y1="2.22306955" x2="26.0346122" y2="2.22306955" id="Path-3-Copy" stroke="#2075B5" stroke-width="2"></line>
                        <line x1="11" y1="2.22306955" x2="14.93261" y2="2.22306955" id="Path-3-Copy-2" stroke="#2075B5" stroke-width="2"></line>
                        <path d="M43.6159459,8.4803071 C44.6767013,8.48057498 45.636658,8.9123128 46.3315353,9.60995321 C47.0277541,10.3089404 47.4579227,11.2746976 47.4580564,12.341293 C47.4579227,13.4081891 47.027721,14.374056 46.3314527,15.0730929 C45.6366173,15.7706913 44.6767427,16.2023954 43.6163247,16.2025294 C42.5556541,16.2023954 41.5957796,15.7706913 40.9009441,15.0730929 C40.2046758,14.374056 39.7744741,13.4081891 39.7743404,12.3415435 C39.7744741,11.2746976 40.2046427,10.3089404 40.9008615,9.60995321 C41.5957388,8.9123128 42.5556955,8.48057498 43.6159459,8.4803071 Z" id="Path" stroke="#2075B5" stroke-width="2" fill="#FFFFFF"></path>
                        <line x1="17" y1="52.2230696" x2="26.0346122" y2="52.2230696" id="Path-3" stroke="#2075B5" stroke-width="2"></line>
                    </g>
                </g>
            </g>
        </g>
    </g>
</svg>