<?xml version="1.0" encoding="UTF-8"?>
<svg width="66px" height="47px" viewBox="0 0 66 47" version="1.1" xmlns="http://www.w3.org/2000/svg" xmlns:xlink="http://www.w3.org/1999/xlink">
    <title>icon_fuq2_6</title>
    <g id="medical-3" stroke="none" stroke-width="1" fill="none" fill-rule="evenodd">
        <g id="3" transform="translate(-957.000000, -3071.000000)">
            <g id="5" transform="translate(-205.368961, 2489.000000)">
                <g id="item" transform="translate(1130.368961, 545.000000)">
                    <g id="icon_fuq2_6" transform="translate(32.000000, 37.000000)">
                        <g id="Group-50">
                            <rect id="Rectangle" fill="#E4F7FF" x="0" y="0" width="48.0769231" height="41" rx="2"></rect>
                            <path d="M13.5,24.8468647 C14.3284271,24.8468647 15,25.5184375 15,26.3468647 C15,27.1752918 14.3284271,27.8468647 13.5,27.8468647 L9.5,27.8468647 C8.67157288,27.8468647 8,27.1752918 8,26.3468647 C8,25.5184375 8.67157288,24.8468647 9.5,24.8468647 L13.5,24.8468647 Z M18.5,24.8468647 C19.3284271,24.8468647 20,25.5184375 20,26.3468647 C20,27.1752918 19.3284271,27.8468647 18.5,27.8468647 C17.6715729,27.8468647 17,27.1752918 17,26.3468647 C17,25.5184375 17.6715729,24.8468647 18.5,24.8468647 Z M18.5,17.8468647 C19.3284271,17.8468647 20,18.5184375 20,19.3468647 C20,20.1752918 19.3284271,20.8468647 18.5,20.8468647 L9.5,20.8468647 C8.67157288,20.8468647 8,20.1752918 8,19.3468647 C8,18.5184375 8.67157288,17.8468647 9.5,17.8468647 L18.5,17.8468647 Z" id="Combined-Shape" fill="#ADDBFF"></path>
                            <rect id="Rectangle-Copy-52" stroke="#2075B5" stroke-width="2" x="1" y="1" width="48" height="39" rx="4"></rect>
                            <polygon id="Rectangle-Copy-51" fill="#2075B5" points="2 10 50 10 50 12 2 12"></polygon>
                            <path d="M6.11674592,5 C5.49985547,5 5,5.50502333 5,6.12829161 C5,6.7515599 5.49985547,7.25658322 6.11674592,7.25658322 C6.73318967,7.25658322 7.23349184,6.7515599 7.23349184,6.12829161 C7.23349184,5.50502333 6.73318967,5 6.11674592,5" id="Fill-9-Copy" fill="#3474A5"></path>
                            <path d="M10.5837296,5 C9.96683915,5 9.46698368,5.50502333 9.46698368,6.12829161 C9.46698368,6.7515599 9.96683915,7.25658322 10.5837296,7.25658322 C11.2001733,7.25658322 11.7004755,6.7515599 11.7004755,6.12829161 C11.7004755,5.50502333 11.2001733,5 10.5837296,5" id="Fill-11-Copy" fill="#3474A5"></path>
                            <path d="M15.0507133,5 C14.4338228,5 13.9339674,5.50502333 13.9339674,6.12829161 C13.9339674,6.7515599 14.4338228,7.25658322 15.0507133,7.25658322 C15.667157,7.25658322 16.1674592,6.7515599 16.1674592,6.12829161 C16.1674592,5.50502333 15.667157,5 15.0507133,5" id="Fill-13-Copy" fill="#3474A5"></path>
                        </g>
                        <line x1="36" y1="46.5" x2="40" y2="46.5" id="Path-12" stroke="#2075B5" stroke-width="2" transform="translate(38.000000, 46.500000) scale(-1, 1) translate(-38.000000, -46.500000) "></line>
                        <line x1="19" y1="46.5" x2="30.754165" y2="46.5" id="Path-12-Copy" stroke="#2075B5" stroke-width="2" transform="translate(24.877082, 46.500000) scale(-1, 1) translate(-24.877082, -46.500000) "></line>
                        <path d="M49.3,35 C54.9333044,35 60.0333044,32.1666667 64.6,26.5 C60.0333044,20.8333333 54.9333044,18 49.3,18 C43.6666956,18 38.5666956,20.8333333 34,26.5 C38.5666956,32.1666667 43.6666956,35 49.3,35 Z" id="Oval-Copy-10" stroke="#2075B5" stroke-width="2" fill="#FFFFFF" stroke-linecap="round" stroke-linejoin="round"></path>
                        <circle id="Oval" stroke="#2075B5" stroke-width="2" fill="#FFFFFF" stroke-linecap="round" stroke-linejoin="round" cx="49.3" cy="26.5" r="3.96666667"></circle>
                    </g>
                </g>
            </g>
        </g>
    </g>
</svg>