<?xml version="1.0" encoding="UTF-8"?>
<svg width="97px" height="73px" viewBox="0 0 97 73" version="1.1" xmlns="http://www.w3.org/2000/svg" xmlns:xlink="http://www.w3.org/1999/xlink">
    <title>icon_progress_webpage</title>
    <g id="medical-3" stroke="none" stroke-width="1" fill="none" fill-rule="evenodd">
        <g id="4" transform="translate(-348.000000, -1723.000000)">
            <g id="icon_progress_webpage" transform="translate(348.000000, 1723.000000)">
                <path d="M11,6 L85,6 C87.7614237,6 90,8.23857625 90,11 L90,56 C90,57.1045695 89.1045695,58 88,58 L8,58 C6.8954305,58 6,57.1045695 6,56 L6,11 C6,8.23857625 8.23857625,6 11,6 Z" id="Rectangle" fill="#E4F7FF"></path>
                <path d="M18,45 L79,45 L79,48 C79,49.6568542 77.6568542,51 76,51 L21,51 C19.3431458,51 18,49.6568542 18,48 L18,45 L18,45 Z" id="Rectangle-Copy-74" fill="#ADDBFF"></path>
                <path d="M5,58 L92,58 C94.209139,58 96,59.790861 96,62 L96,64 C96,65.1045695 95.1045695,66 94,66 L3,66 C1.8954305,66 1,65.1045695 1,64 L1,62 C1,59.790861 2.790861,58 5,58 Z" id="Rectangle-Copy-155" fill="#E4F7FF" transform="translate(48.500000, 62.000000) scale(1, -1) translate(-48.500000, -62.000000) "></path>
                <path d="M87,6 C87.8284271,6 88.5784271,6.33578644 89.1213203,6.87867966 C89.6642136,7.42157288 90,8.17157288 90,9 L90,9 L90,58 L7,58 L7,9 C7,8.17157288 7.33578644,7.42157288 7.87867966,6.87867966 C8.42157288,6.33578644 9.17157288,6 10,6 L10,6 Z" id="Rectangle" stroke="#2075B5" stroke-width="2"></path>
                <rect id="Rectangle-Copy-48" stroke="#2075B5" stroke-width="2" fill="#FFFFFF" x="19" y="1" width="59" height="46" rx="4"></rect>
                <polygon id="Fill-17" fill="#3474A5" points="40.168117 29.7347692 38.6305175 24 36.0151612 24 34.5206719 29.720539 33.4572853 24 31 24 33.0549228 31.9404497 35.7996099 31.9404497 37.265359 26.6183562 38.716738 31.9404497 41.4614251 31.9404497 43.5163479 24 41.2315036 24"></polygon>
                <polygon id="Fill-19" fill="#3474A5" points="52.7849208 29.7347692 51.2473212 24 48.631965 24 47.1374757 29.720539 46.074089 24 43.6168038 24 45.6717265 31.9404497 48.4164136 31.9404497 49.8821627 26.6183562 51.3335418 31.9404497 54.0782288 31.9404497 56.1331516 24 53.8483074 24"></polygon>
                <polygon id="Fill-21" fill="#3474A5" points="65.4017245 29.7347692 63.864125 24 61.2487687 24 59.7542794 29.720539 58.6908928 24 56.2336075 24 58.2885303 31.9404497 61.0332174 31.9404497 62.4989665 26.6183562 63.9503455 31.9404497 66.6950326 31.9404497 68.7499554 24 66.4651112 24"></polygon>
                <rect id="Rectangle" fill="#2075B5" x="20" y="10" width="57" height="2"></rect>
                <path d="M24.1167459,5 C23.4998555,5 23,5.50502333 23,6.12829161 C23,6.7515599 23.4998555,7.25658322 24.1167459,7.25658322 C24.7331897,7.25658322 25.2334918,6.7515599 25.2334918,6.12829161 C25.2334918,5.50502333 24.7331897,5 24.1167459,5" id="Fill-9" fill="#3474A5"></path>
                <path d="M28.5837296,5 C27.9668392,5 27.4669837,5.50502333 27.4669837,6.12829161 C27.4669837,6.7515599 27.9668392,7.25658322 28.5837296,7.25658322 C29.2001733,7.25658322 29.7004755,6.7515599 29.7004755,6.12829161 C29.7004755,5.50502333 29.2001733,5 28.5837296,5" id="Fill-11" fill="#3474A5"></path>
                <path d="M33.0507133,5 C32.4338228,5 31.9339674,5.50502333 31.9339674,6.12829161 C31.9339674,6.7515599 32.4338228,7.25658322 33.0507133,7.25658322 C33.667157,7.25658322 34.1674592,6.7515599 34.1674592,6.12829161 C34.1674592,5.50502333 33.667157,5 33.0507133,5" id="Fill-13" fill="#3474A5"></path>
                <path d="M96,58 L96,62 C96,62.8284271 95.6642136,63.5784271 95.1213203,64.1213203 C94.5784271,64.6642136 93.8284271,65 93,65 L93,65 L4,65 C3.17157288,65 2.42157288,64.6642136 1.87867966,64.1213203 C1.33578644,63.5784271 1,62.8284271 1,62 L1,62 L1,58 L96,58 Z" id="Rectangle-Copy-45" stroke="#2075B5" stroke-width="2"></path>
                <path d="M60,58 C60,58.8284271 59.6642136,59.5784271 59.1213203,60.1213203 C58.5784271,60.6642136 57.8284271,61 57,61 L57,61 L42,61 C41.1715729,61 40.4215729,60.6642136 39.8786797,60.1213203 C39.3357864,59.5784271 39,58.8284271 39,58 L39,58 Z" id="Rectangle-Copy-46" stroke="#2075B5" stroke-width="2" fill="#ADDBFF"></path>
                <line x1="19.0012883" y1="71.6950176" x2="26.6801383" y2="71.8468647" id="Path-12-Copy-5" stroke="#2075B5" stroke-width="2"></line>
                <line x1="31.4710705" y1="71.8468647" x2="36.2252355" y2="71.8468647" id="Path-12-Copy-4" stroke="#2075B5" stroke-width="2"></line>
            </g>
        </g>
    </g>
</svg>