<?xml version="1.0" encoding="UTF-8"?>
<svg width="113px" height="83px" viewBox="0 0 113 83" version="1.1" xmlns="http://www.w3.org/2000/svg" xmlns:xlink="http://www.w3.org/1999/xlink">
    <title>icon_real-time</title>
    <g id="medical-3" stroke="none" stroke-width="1" fill="none" fill-rule="evenodd">
        <g id="1" transform="translate(-664.000000, -1571.000000)">
            <g id="3" transform="translate(253.000000, 1037.000000)">
                <g id="icon_real-time" transform="translate(411.000000, 534.000000)">
                    <rect id="Rectangle" fill-opacity="0.06" fill="#0091FF" x="21" y="0" width="73" height="66" rx="7.19621036"></rect>
                    <rect id="Rectangle" fill="#ECEEFF" x="13" y="12" width="85" height="62" rx="7.19621036"></rect>
                    <rect id="Rectangle" fill="#FFFFFF" x="0" y="45" width="29" height="38" rx="8"></rect>
                    <g id="Group-35" transform="translate(6.000000, 12.000000)">
                        <path d="M105.748683,36.75401 C105.910693,37.6213485 106,38.514997 106,39.4296044 C106,47.4764548 99.4347915,54 91.3361003,54 C83.237858,54 76.6726494,47.4764548 76.6726494,39.4296044 C76.6726494,38.514997 76.7610592,37.6213485 76.9235177,36.75401 C78.1886296,43.5223721 84.1578578,48.6488111 91.3361003,48.6488111 C98.5143429,48.6488111 104.48402,43.5223721 105.748683,36.75401 Z M59.0856186,31.3775813 C61.6418718,32.9347772 63.3530715,35.7285438 63.3530715,38.9263251 C63.3530715,43.8186496 59.3616186,47.7852184 54.4380488,47.7852184 C50.8074153,47.7852184 47.6892891,45.6251218 46.2989674,42.5312427 C47.6533866,43.3562177 49.2411717,43.8405003 50.946986,43.8405003 C55.8705558,43.8405003 59.8620087,39.8748233 59.8620087,34.9820529 C59.8620087,33.6973217 59.5810722,32.4794802 59.0856186,31.3775813 Z M27.2550607,15 C28.5497922,15 29.7278407,16.0497249 29.5994895,17.3299968 C29.4163871,19.1551982 23.4776761,20.7989051 20.2074133,24.0100644 C18.3297161,25.8535489 17.5295406,28.3565676 16.89317,30.0421921 C15.3251313,33.9436547 13,31.3585845 13,30.0716236 L13,30.0716236 L13,17.3299968 C13,16.0430359 14.0496974,15 15.3444288,15 L15.3444288,15 Z" id="Combined-Shape" fill="#CBD0FF"></path>
                        <circle id="Oval" fill="#FFFFFF" cx="50" cy="35" r="9"></circle>
                        <circle id="Oval-Copy-20" fill="#FFFFFF" cx="91" cy="34" r="14"></circle>
                        <circle id="Oval-Copy-19" fill="#FFFFFF" cx="50" cy="27" r="4"></circle>
                        <path d="M16.2280503,54.9079365 L16.2280503,65 L13.6435071,65 L13.6435071,57.1918547 L12.1207852,57.1918547 L12.1207852,54.9079365 L16.2280503,54.9079365 Z M4.48083234,54.7367318 C5.87924121,54.7367318 6.90112087,55.1957458 7.54692009,56.11422 C8.19316809,57.032248 8.51629209,58.2763589 8.51629209,59.8469988 C8.51629209,61.4265602 8.19316809,62.6782544 7.54692009,63.6011893 C6.90112087,64.5241242 5.87924121,64.9858147 4.48083234,64.9858147 C3.0734478,64.9858147 2.04932422,64.5241242 1.40801284,63.6011893 C0.766252668,62.6782544 0.445372582,61.4265602 0.445372582,59.8469988 C0.445372582,58.2763589 0.766252668,57.032248 1.40801284,56.11422 C2.04932422,55.1957458 3.0734478,54.7367318 4.48083234,54.7367318 Z M4.48083234,57.049199 C3.83952095,57.049199 3.40913773,57.2914192 3.18788755,57.7767518 C2.96798371,58.2625305 2.85848058,58.9526128 2.85848058,59.8469988 C2.85848058,60.7507523 2.96798371,61.4479719 3.18788755,61.9377653 C3.40913773,62.4284509 3.83952095,62.6733475 4.48083234,62.6733475 C5.11271927,62.6733475 5.53637074,62.4284509 5.75178674,61.9377653 C5.96765153,61.4479719 6.07535953,60.7507523 6.07535953,59.8469988 C6.07535953,58.9432452 5.96765153,58.2504864 5.75178674,57.7700607 C5.53637074,57.2896349 5.11271927,57.049199 4.48083234,57.049199 Z M87.573067,0 C88.9189682,0 90.1481857,0.54555339 91.0291474,1.42298837 C91.9119043,2.29863904 92.4612151,3.52044606 92.4603175,4.8582333 L92.4603175,4.8582333 L92.4607663,18.048307 C100.595862,18.6808453 107,25.4366932 107,33.6855633 C107,41.9339874 100.595413,48.6902814 92.4603175,49.3228197 L92.4603175,49.3228197 L92.4603175,57.4695381 C92.4598687,60.153142 90.2724987,62.3277711 87.573067,62.3277711 L87.573067,62.3277711 L23.182753,62.3277711 C22.5629832,62.3277711 22.0607946,61.8286101 22.0607946,61.2125767 C22.0607946,60.5965433 22.5629832,60.0973822 23.182753,60.0973822 L23.182753,60.0973822 L87.573067,60.0973822 C88.3068277,60.0969362 88.960705,59.8052013 89.4426983,59.3278981 C89.9224477,58.8483645 90.215952,58.1984291 90.2168496,57.4695381 L90.2168496,57.4695381 L90.2168496,49.341555 C81.963724,48.8285655 75.4294387,42.0182961 75.4289899,33.6855633 C75.4294387,25.3528305 81.963724,18.5421151 90.2168496,18.0295717 L90.2168496,18.0295717 L90.2168496,12.2198548 L9.30704833,12.2198548 L9.30749711,33.6556761 C9.30749711,34.2717095 8.80485978,34.7708706 8.18553877,34.7708706 C7.56576899,34.7708706 7.06357934,34.2717095 7.06357934,33.6556761 L7.06357934,33.6556761 L7.06357934,4.8582333 C7.06357934,3.52044606 7.61244246,2.29908512 8.49519928,1.42298837 C9.37616096,0.54555339 10.6049297,0 11.9512797,0 L11.9512797,0 Z M4.10771387,39.7783715 L4.10771387,49.8704351 L1.52272186,49.8704351 L1.52272186,42.0622897 L0,42.0622897 L0,39.7783715 L4.10771387,39.7783715 Z M12.4651815,39.6071669 C13.8635904,39.6071669 14.8854701,40.0661809 15.5312693,40.984655 C16.1775173,41.9026831 16.5006413,43.146794 16.5006413,44.7174338 C16.5006413,46.2969952 16.1775173,47.5486895 15.5312693,48.4716244 C14.8854701,49.3945593 13.8635904,49.8562498 12.4651815,49.8562498 C11.057797,49.8562498 10.0336734,49.3945593 9.39236204,48.4716244 C8.75060187,47.5486895 8.42972179,46.2969952 8.42972179,44.7174338 C8.42972179,43.146794 8.75060187,41.9026831 9.39236204,40.984655 C10.0336734,40.0661809 11.057797,39.6071669 12.4651815,39.6071669 Z M59.7159185,21.836221 C60.10636,21.3580256 60.8127449,21.2848689 61.2942895,21.6729565 C61.7753852,22.0610442 61.8489857,22.7631706 61.4589929,23.2418121 L61.4589929,23.2418121 L41.1878985,48.076746 C40.797457,48.5553875 40.091072,48.6285442 39.6095275,48.2404566 C39.1284317,47.8519228 39.0548313,47.1497964 39.444824,46.6716011 L39.444824,46.6716011 L43.1957551,42.0765539 C42.8672457,41.7482407 42.5598291,41.3989618 42.2797883,41.027379 L42.2797883,41.027379 L39.2540911,43.0316064 C38.7388878,43.373302 38.0419273,43.2345718 37.6981592,42.7220284 C37.35484,42.2094851 37.4939628,41.5171724 38.0100637,41.1759229 L38.0100637,41.1759229 L41.1457128,39.0980926 C40.741359,38.1916626 40.4667036,37.2156444 40.3518151,36.1914498 L40.3518151,36.1914498 L37.0137646,36.1914498 C36.3939949,36.1914498 35.8918063,35.6922888 35.8918063,35.0762554 C35.8918063,34.460222 36.3939949,33.961061 37.0137646,33.961061 L37.0137646,33.961061 L40.3536102,33.961061 C40.4649085,32.9703222 40.7220613,32.0237452 41.1044248,31.1431877 L41.1044248,31.1431877 L38.0100637,29.0930142 C37.4939628,28.7513187 37.35484,28.059006 37.6981592,27.5464626 C38.0419273,27.0339192 38.7388878,26.8956351 39.2540911,27.2373307 L39.2540911,27.2373307 L42.2232416,29.2040876 C42.8923776,28.2989958 43.7109584,27.5107764 44.6439789,26.8755616 C44.6821255,23.8797033 47.1324825,21.4637461 50.1554871,21.4628539 C53.1228425,21.4637461 55.5346041,23.7931642 55.6584683,26.7122972 L55.6584683,26.7122972 L55.7100784,26.7444148 Z M12.4651815,41.919634 C11.8238702,41.919634 11.3934869,42.1618543 11.1722368,42.6471869 C10.9523329,43.1329656 10.8428298,43.8230479 10.8428298,44.7174338 C10.8428298,45.6211874 10.9523329,46.318407 11.1722368,46.8082004 C11.3934869,47.2988859 11.8238702,47.5437826 12.4651815,47.5437826 C13.0970685,47.5437826 13.5207199,47.2988859 13.736136,46.8082004 C13.9520007,46.318407 14.0597087,45.6211874 14.0597087,44.7174338 C14.0597087,43.8136803 13.9520007,43.1209215 13.736136,42.6404957 C13.5207199,42.16007 13.0970685,41.919634 12.4651815,41.919634 Z M91.2149437,20.2251665 C87.4716419,20.2256126 84.093201,21.7302329 81.6392537,24.1676019 C79.1866528,26.6072012 77.6733554,29.9648286 77.6724578,33.6855633 C77.6733554,37.405852 79.1866528,40.7639254 81.6392537,43.2030787 C84.093201,45.6408937 87.4716419,47.145068 91.2149437,47.1455141 C94.9577968,47.145068 98.3357889,45.6408937 100.790185,43.2030787 C103.242337,40.7639254 104.755635,37.405852 104.756532,33.6855633 C104.755635,29.9648286 103.242337,26.6072012 100.790185,24.1676019 C98.3357889,21.7302329 94.9577968,20.2256126 91.2149437,20.2251665 Z M61.0173453,27.2371969 C61.5325485,26.8955013 62.2295091,27.0342315 62.5728283,27.5463288 C62.9165963,28.0593182 62.7770247,28.7511848 62.2613727,29.0928804 L62.2613727,29.0928804 L59.3905057,30.9954021 C59.8092205,31.9178909 60.0897101,32.9153208 60.2077401,33.9609271 L60.2077401,33.9609271 L63.2585692,33.9609271 C63.8778902,33.9609271 64.3805276,34.4600882 64.3805276,35.0761216 C64.3805276,35.692155 63.8778902,36.191316 63.2585692,36.191316 L63.2585692,36.191316 L60.2108816,36.191316 C60.0892613,37.2721625 59.7930643,38.3003717 59.3514615,39.2478409 L59.3514615,39.2478409 L62.2613727,41.1757891 C62.7770247,41.5174846 62.9165963,42.2097973 62.5728283,42.7223407 C62.2295091,43.234438 61.5325485,43.3736142 61.0173453,43.0314726 L61.0173453,43.0314726 L58.1832785,41.1543773 C56.3558328,43.498516 53.4975317,45.0093814 50.2824479,45.0098275 C49.2363339,45.0098275 48.2238787,44.8492395 47.2738044,44.5512596 C46.682308,44.3656912 46.3546961,43.7398441 46.5409412,43.1523597 C46.7271863,42.5648752 47.3572781,42.2387924 47.9483257,42.4243607 C48.6843304,42.6545369 49.466111,42.7794387 50.2824479,42.7794387 C52.4258371,42.7789926 54.3560542,41.9189546 55.7620924,40.5231773 C57.1658867,39.1256156 58.0306922,37.206589 58.0315897,35.0761216 C58.0311409,33.6482266 57.6429434,32.3189149 56.9652805,31.1738332 C56.6506834,30.6434467 56.8288504,29.9596095 57.3629026,29.646909 L57.3629026,29.646909 L57.4463763,29.6089924 C57.459391,29.5991787 57.4701618,29.5866885 57.4840741,29.5777669 L57.4840741,29.5777669 Z M87.3412704,39.6583663 C87.6877311,39.1480533 88.3855892,39.01423 88.8985485,39.358602 C89.533577,39.7854985 90.2484888,40.0995372 91.0177035,40.276184 C91.6217658,40.4144681 91.998295,41.0126584 91.8591722,41.6130791 C91.7200494,42.2130537 91.1182309,42.587759 90.5141686,42.4494749 C89.4716449,42.2108233 88.5009265,41.7839269 87.642404,41.2067022 C87.1289958,40.8614381 86.9939121,40.1686793 87.3412704,39.6583663 Z M91.8654552,23.4777872 C92.2900042,23.0299251 92.9999794,23.0089595 93.4510067,23.4313951 C93.9015852,23.8542769 93.9222292,24.5599719 93.4972314,25.007834 L93.4972314,25.007834 L92.9250326,25.6109311 C97.4469735,25.8589504 101.039484,29.5698714 101.039935,34.1270019 C101.04083,36.0772539 100.378426,37.8847611 99.2681363,39.3215776 C98.1578463,40.7592862 96.5983242,41.8365641 94.7928689,42.3446466 C94.1968846,42.512818 93.576666,42.1679998 93.4074747,41.5756086 C93.2387322,40.9827712 93.5856417,40.3662917 94.181626,40.1985665 C95.5109222,39.8247533 96.6665393,39.0280584 97.4882616,37.9637168 C98.3095351,36.8984831 98.7955674,35.5745243 98.796465,34.1270019 C98.7955674,32.3814996 98.0873873,30.8108597 96.9367069,29.6657781 C95.78468,28.5215886 94.2049627,27.8176779 92.4484247,27.8172318 C92.3869414,27.8172318 92.3268044,27.8234769 92.2653211,27.8252612 L92.2653211,27.8252612 L93.4061284,28.8945096 C93.8571556,29.3173913 93.8777997,30.0230864 93.4528018,30.4713945 C93.027804,30.9188106 92.31738,30.9397762 91.8668015,30.5173406 L91.8668015,30.5173406 L89.1467257,27.9680061 C88.9564416,27.7900211 88.847836,27.560291 88.8119334,27.3220855 C88.8083431,27.302012 88.806548,27.2819385 88.8038553,27.261865 C88.800265,27.2199337 88.7980211,27.1788945 88.7983687,27.1365171 C88.7989186,27.0923554 88.8016113,27.0495319 88.8069967,27.0058163 C88.8096894,26.9879732 88.8119334,26.9705762 88.8155236,26.9531792 C88.8599532,26.6935619 88.9945882,26.4566946 89.2001309,26.2862929 L89.2001309,26.2862929 Z M50.2824928,27.3733844 C48.8706204,27.3738305 47.5556852,27.7529966 46.4180194,28.4060545 C46.3839119,28.4283583 46.3498044,28.4497701 46.3134529,28.4689514 C45.7641421,28.7963725 45.2534267,29.1817837 44.8023994,29.6296458 C43.3981564,31.0272075 42.5333509,32.9453419 42.5324533,35.0762554 C42.5333509,37.1112622 43.3245559,38.9544556 44.6188471,40.3323898 L44.6188471,40.3323898 L54.2874352,28.4872406 C53.1179059,27.7828838 51.752707,27.3738305 50.2824928,27.3733844 Z M85.0890512,35.8273612 C85.6648402,35.5998615 86.3169224,35.8799983 86.5453531,36.4523161 C86.6315195,36.6691099 86.7298031,36.8796586 86.8384086,37.082624 C87.1292202,37.6268389 86.9218823,38.3017546 86.3743667,38.591259 C85.8272998,38.8798714 85.1478418,38.6737834 84.8570302,38.1300146 C84.7089317,37.8534464 84.5765406,37.5675106 84.4594082,37.2748835 C84.2309775,36.7021197 84.5128134,36.0539687 85.0890512,35.8273612 Z M50.1554871,23.6932428 C49.2484959,23.6936889 48.4379932,24.055904 47.8424578,24.6456188 C47.5552364,24.9320008 47.324113,25.2683434 47.1598583,25.6403723 C48.142245,25.3196423 49.1910517,25.1434416 50.2824928,25.1429955 C51.2639819,25.1429955 52.2109147,25.2906473 53.109379,25.5542793 C52.947817,25.2165984 52.732401,24.9092508 52.4685164,24.6456188 C51.8725321,24.055904 51.0624782,23.6936889 50.1554871,23.6932428 Z M87.573067,2.23038914 L11.9512797,2.23038914 C11.217519,2.23083522 10.5636417,2.52257008 10.0816484,2.9998733 C9.60189898,3.47896083 9.3079459,4.12934222 9.30704833,4.8582333 L9.30704833,4.8582333 L9.30704833,9.98946593 L90.2168496,9.98946593 L90.2168496,4.8582333 C90.215952,4.12934222 89.9224477,3.47896083 89.4422496,2.9998733 C88.960705,2.52301616 88.3068277,2.23083522 87.573067,2.23038914 L87.573067,2.23038914 Z M14.0198119,4.90667735 C14.6391329,4.90667735 15.1417702,5.40628446 15.1417702,6.02187178 C15.1417702,6.63790519 14.6391329,7.13706622 14.0198119,7.13706622 C13.4000421,7.13706622 12.8978536,6.63790519 12.8978536,6.02187178 C12.8978536,5.40628446 13.4000421,4.90667735 14.0198119,4.90667735 Z M18.5076453,4.90667735 C19.1269663,4.90667735 19.6296036,5.40628446 19.6296036,6.02187178 C19.6296036,6.63790519 19.1269663,7.13706622 18.5076453,7.13706622 C17.8878755,7.13706622 17.3856869,6.63790519 17.3856869,6.02187178 C17.3856869,5.40628446 17.8878755,4.90667735 18.5076453,4.90667735 Z M22.9954786,4.90667735 C23.6147996,4.90667735 24.117437,5.40628446 24.117437,6.02187178 C24.117437,6.63790519 23.6147996,7.13706622 22.9954786,7.13706622 C22.3757088,7.13706622 21.8735203,6.63790519 21.8735203,6.02187178 C21.8735203,5.40628446 22.3757088,4.90667735 22.9954786,4.90667735 Z" id="Combined-Shape" fill="#2075B5"></path>
                    </g>
                </g>
            </g>
        </g>
    </g>
</svg>