<?xml version="1.0" encoding="UTF-8"?>
<svg width="116px" height="88px" viewBox="0 0 116 88" version="1.1" xmlns="http://www.w3.org/2000/svg" xmlns:xlink="http://www.w3.org/1999/xlink">
    <title>icon_scalable</title>
    <g id="medical-3" stroke="none" stroke-width="1" fill="none" fill-rule="evenodd">
        <g id="2" transform="translate(-686.000000, -1281.000000)">
            <g id="3" transform="translate(268.000000, 1037.000000)">
                <g id="icon_scalable" transform="translate(418.000000, 244.000000)">
                    <rect id="Rectangle-Copy-26" fill-opacity="0.06" fill="#0091FF" x="29.8" y="0" width="86" height="70" rx="8"></rect>
                    <path d="M5,21 L88,21 L90.6292967,23.2544031 C90.6292967,26.2361641 90.6292967,28.2809586 90.6292967,29.3887866 C90.6292967,30.4966146 89.7528645,31.1884667 88,31.4643428 L88,80.8037896 C88,84.7781469 84.7781469,88 80.8037896,88 L12.1962104,88 C8.22185312,88 5,84.7781469 5,80.8037896 L5,77.5957899 L5,77.5957899 L1.50252375,77.5957899 L1.50252375,70.8170697 L5,69.5766736 L5,56.5242748 L1.50252375,56.5242748 L1.50252375,48.5114284 L5,47.5009403 L5,31.2648179 C3.16105075,31.806902 2.24157612,31.4651108 2.24157612,30.2394444 C2.24157612,29.013778 2.24157612,26.6854309 2.24157612,23.2544031 L5,21 Z" id="Rectangle" fill="#FFF5E6"></path>
                    <g id="Group-19" transform="translate(0.000000, 20.000000)">
                        <path d="M88.7437518,0 C89.6391972,0 90.4606574,0.368369813 91.04671,0.959023319 C91.6341078,1.54832418 92,2.37388645 92,3.27429489 L92,3.27429489 L92,8.21910176 C92,9.11951019 91.6341078,9.94552334 91.04671,10.5348242 C90.4606574,11.1254777 89.6391972,11.494298 88.7437518,11.4938471 L88.7437518,11.4938471 L88.1047886,11.4938471 L88.1047886,62.413139 C88.1056853,63.9524452 87.4819675,65.3564872 86.4784589,66.3637543 C85.4762954,67.3728249 84.0804409,68 82.5500678,68 L82.5500678,68 L60.7266695,68 C60.1074356,68 59.6056813,67.4954644 59.6056813,66.8727984 C59.6056813,66.2501324 60.1074356,65.7455971 60.7266695,65.7455971 L60.7266695,65.7455971 L82.5500678,65.7455971 C83.4683813,65.7451462 84.2898415,65.3745224 84.8924848,64.7694407 C85.4937828,64.1630064 85.8628121,63.3369932 85.8632605,62.413139 L85.8632605,62.413139 L85.8632605,11.4938471 L5.84757098,11.4938471 L5.84757098,22.6130121 C5.84757098,23.2356781 5.34536826,23.7402134 4.72658277,23.7402134 C4.10734889,23.7402134 3.60559457,23.2356781 3.60559457,22.6130121 L3.60559457,22.6130121 L3.60559457,11.4933962 C2.71239117,11.4924945 1.89362138,11.1236742 1.30891394,10.5348242 C0.721964514,9.94552334 0.35562393,9.11951019 0.35562393,8.21910176 L0.35562393,8.21910176 L0.35562393,3.27429489 C0.35562393,2.37388645 0.721964514,1.54832418 1.30891394,0.959023319 C1.89496657,0.368369813 2.71642673,0 3.6123205,0 L3.6123205,0 Z M34.581189,47.5626666 C35.4766344,47.5622162 36.2976461,47.9310364 36.8836988,48.52169 C37.471545,49.1109908 37.8383323,49.9365531 37.8374372,50.8374124 L37.8374372,50.8374124 L37.8374372,54.6649373 C37.8383323,55.5657966 37.471545,56.3913589 36.8836988,56.9806597 C36.2976461,57.5713132 35.4766344,57.9396826 34.581189,57.9392318 L34.581189,57.9392318 L33.8489595,57.9392318 L33.8489595,62.4133194 C33.8498563,63.9526255 33.2261385,65.3562166 32.2226298,66.3639346 C31.2204664,67.3730053 29.8246119,68.0001801 28.2942388,67.9997295 L28.2942388,67.9997295 L9.1612121,67.9997295 C7.63039061,68.0001801 6.2345361,67.3730053 5.23237265,66.3639346 C4.22886401,65.3562166 3.60469778,63.9526255 3.60559457,62.4133194 L3.60559457,62.4133194 L3.60559457,57.9392318 L3.25674304,57.9392318 C2.36084927,57.9396826 1.53983751,57.5713132 0.953784874,56.9806597 C0.366387056,56.3913589 -0.000848679531,55.5657966 4.64722914e-05,54.6649373 L4.64722914e-05,54.6649373 L4.64722914e-05,50.8374124 C-0.000848679531,49.9365531 0.366387056,49.1109908 0.953784874,48.52169 C1.53983751,47.9310364 2.36084927,47.5622162 3.25674304,47.5626666 L3.25674304,47.5626666 Z M56.9419891,37.645234 C57.5607746,37.645234 58.0625299,38.1497693 58.0625299,38.7719844 L58.0625299,38.7719844 L58.0625299,62.4134546 C58.0634257,63.9527608 57.4392595,65.3563519 56.4357508,66.363619 C55.4340358,67.3731405 54.0377329,68.0003154 52.5073598,67.9998647 L52.5073598,67.9998647 L36.5131001,67.9998647 C35.8943146,67.9998647 35.3921119,67.4953292 35.3921119,66.8726631 C35.3921119,66.2499971 35.8943146,65.7454618 36.5131001,65.7454618 L36.5131001,65.7454618 L52.5073598,65.7454618 C53.4256733,65.7450109 54.2471334,65.3743871 54.8502251,64.7693054 C55.4515232,64.1628711 55.8201041,63.336858 55.8210009,62.4134546 L55.8210009,62.4134546 L55.8210009,38.7719844 C55.8210009,38.1497693 56.3227552,37.645234 56.9419891,37.645234 Z M31.6074315,57.9392318 L5.84712258,57.9392318 L5.84712258,62.4133194 C5.84801937,63.3371736 6.21660029,64.1631867 6.81789836,64.7691702 C7.42099002,65.3742519 8.24245017,65.7448757 9.1612121,65.7453265 L9.1612121,65.7453265 L28.2942388,65.7453265 C29.2125523,65.7448757 30.0340125,65.3742519 30.6366557,64.7691702 C31.2379538,64.1631867 31.6065347,63.3371736 31.6074315,62.4133194 L31.6074315,62.4133194 L31.6074315,57.9392318 Z M34.581189,49.8170697 L3.25674304,49.8170697 C2.97290883,49.8175206 2.72629142,49.929339 2.53886219,50.1160035 C2.35367494,50.3040207 2.24247291,50.552005 2.24157612,50.8374124 L2.24157612,50.8374124 L2.24157612,54.6649373 C2.24247291,54.9503447 2.35367494,55.1978781 2.53886219,55.3863462 C2.72584303,55.5725598 2.97290883,55.6843782 3.25674304,55.6848291 L3.25674304,55.6848291 L4.68129485,55.6848291 C4.69654029,55.6843782 4.71088894,55.6803203 4.72658277,55.6803203 L4.72658277,55.6803203 L4.77231909,55.6848291 L32.6831318,55.6848291 C32.6983772,55.6843782 32.7127259,55.6803203 32.7284197,55.6803203 L32.7284197,55.6803203 L32.774156,55.6848291 L34.581189,55.6848291 C34.8645748,55.6843782 35.1116406,55.5725598 35.2986215,55.3863462 C35.4838087,55.1978781 35.5950107,54.9503447 35.5959075,54.6649373 L35.5959075,54.6649373 L35.5959075,50.8374124 C35.5950107,50.552005 35.4838087,50.3040207 35.2986215,50.1160035 C35.1111922,49.929339 34.8645748,49.8175206 34.581189,49.8170697 L34.581189,49.8170697 Z M54.3105365,25.4702416 C54.929322,25.4702416 55.4310763,25.9747774 55.4310763,26.5974434 C55.4310763,27.2201094 54.929322,27.7246447 54.3105365,27.7246447 L54.3105365,27.7246447 L3.2566982,27.7246447 C2.97286399,27.7250956 2.72579819,27.8373649 2.53881735,28.0235785 C2.3536301,28.2115957 2.24242807,28.45958 2.24153128,28.7445365 L2.24153128,28.7445365 L2.24153128,33.6888925 C2.24242807,33.9742999 2.3536301,34.2222842 2.53881735,34.4107523 C2.72624658,34.5969659 2.97286399,34.7087843 3.2566982,34.7092352 L3.2566982,34.7092352 L46.6878168,34.7092352 C47.3066022,34.7092352 47.8083566,35.2137705 47.8083566,35.8364365 C47.8083566,36.4591025 47.3066022,36.9636379 46.6878168,36.9636379 L46.6878168,36.9636379 L5.84752614,36.9636379 L5.84752614,44.941969 C5.84752614,45.564635 5.34532342,46.0691703 4.72653793,46.0691703 C4.10730405,46.0691703 3.60554973,45.564635 3.60554973,44.941969 L3.60554973,44.941969 L3.60554973,36.9636379 L3.2566982,36.9636379 C2.36080443,36.9640887 1.53979267,36.5957193 0.953740035,36.004615 C0.366342216,35.415765 -0.00089351906,34.5897518 1.63276285e-06,33.6888925 L1.63276285e-06,33.6888925 L1.63276285e-06,28.7445365 C-0.00089351906,27.8436772 0.366342216,27.0176641 0.953740035,26.429265 C1.53979267,25.8381606 2.36080443,25.4697912 3.2566982,25.4702416 L3.2566982,25.4702416 Z M47.0076571,40.1386935 C47.4439457,39.6968306 48.1533071,39.6936744 48.5931828,40.1314794 C49.0330586,40.5697353 49.035749,41.2834792 48.6003572,41.725793 L48.6003572,41.725793 L47.1767021,43.1699634 C46.7404135,43.6118263 46.0310522,43.6154334 45.5911764,43.1767266 C45.1513006,42.7389216 45.1486103,42.0251777 45.5840021,41.5828639 L45.5840021,41.5828639 Z M64.5204074,23.0312038 C64.8154515,23.0312038 65.1042181,23.1515889 65.3131703,23.3612483 C65.5221225,23.5713587 65.6409472,23.8617257 65.6409472,24.1584051 L65.6409472,24.1584051 L65.6413956,30.0405926 C65.6413956,30.6632587 65.1391929,31.167794 64.5204074,31.167794 C63.9011735,31.167794 63.3994192,30.6632587 63.3994192,30.0405926 L63.3994192,30.0405926 L63.3994192,26.7148978 L51.2936434,38.9937275 C50.8573548,39.4360413 50.1475451,39.4391975 49.7081177,39.0004907 C49.2686903,38.5622348 49.2655516,37.8484909 49.7009434,37.406628 L49.7009434,37.406628 L61.6515744,25.2856065 L58.7926061,25.2856065 C58.1733722,25.2856065 57.6716179,24.7810711 57.6716179,24.1584051 C57.6716179,23.5357391 58.1733722,23.0312038 58.7926061,23.0312038 L58.7926061,23.0312038 Z M88.7437518,2.25440311 L3.6123205,2.25440311 C3.32803789,2.25440311 3.08142048,2.36712324 2.89443965,2.5533369 C2.7092524,2.74135409 2.59805037,2.9888875 2.59715358,3.27429489 L2.59715358,3.27429489 L2.59715358,8.21910176 C2.59805037,8.50450914 2.7092524,8.75249343 2.89443965,8.94051062 C3.08142048,9.12717516 3.32803789,9.23899353 3.6123205,9.23944441 L3.6123205,9.23944441 L88.7437518,9.23944441 C89.027586,9.23899353 89.2742034,9.12717516 89.4611843,8.94051062 C89.6463715,8.75249343 89.7575736,8.50450914 89.7584703,8.21910176 L89.7584703,8.21910176 L89.7584703,3.27429489 C89.7575736,2.9888875 89.6463715,2.74135409 89.4611843,2.5533369 C89.2742034,2.36712324 89.027586,2.25440311 88.7437518,2.25440311 L88.7437518,2.25440311 Z" id="Combined-Shape" fill="#2075B5"></path>
                        <path d="M43.3149474,52.5475846 L43.5240058,52.5525036 C45.8099423,52.6603103 47.6298947,54.5266488 47.6298947,56.8130709 L47.6298947,56.8130709 L47.6298947,58.7349623 C47.6298947,61.0902214 45.697971,63 43.3149474,63 C40.9319237,63 39,61.0902214 39,58.7349623 L39,58.7349623 L39,56.8130709 C39,54.4573633 40.9319237,52.5475846 43.3149474,52.5475846 L43.3149474,52.5475846 Z M66.6850526,39 L66.8941111,39.0049189 C69.1800476,39.1127257 71,40.9790641 71,43.2654863 L71,43.2654863 L71,58.7348277 C71,61.0900868 69.0680763,62.9998654 66.6850526,62.9998654 C64.302029,62.9998654 62.3705591,61.0900868 62.3705591,58.7348277 L62.3705591,58.7348277 L62.3705591,43.2654863 C62.3705591,40.9097786 64.302029,39 66.6850526,39 L66.6850526,39 Z" id="Combined-Shape" fill="#FFDEB0"></path>
                    </g>
                </g>
            </g>
        </g>
    </g>
</svg>