<?xml version="1.0" encoding="UTF-8"?>
<svg width="84px" height="73px" viewBox="0 0 84 73" version="1.1" xmlns="http://www.w3.org/2000/svg" xmlns:xlink="http://www.w3.org/1999/xlink">
    <title>icon_best-in_2</title>
    <g id="medical-3" stroke="none" stroke-width="1" fill="none" fill-rule="evenodd">
        <g id="2" transform="translate(-492.000000, -3174.000000)">
            <g id="5" transform="translate(171.000000, 2922.000000)">
                <g id="item" transform="translate(281.000000, 208.000000)">
                    <g id="icon_best-in_2" transform="translate(40.000000, 44.000000)">
                        <g id="Group-5" transform="translate(0.000000, -0.000000)">
                            <g id="Group-57">
                                <rect id="Rectangle-Copy-156" fill="#E4F7FF" x="0" y="5" width="84" height="62" rx="5"></rect>
                                <circle id="Oval" fill="#ADDBFF" cx="43" cy="40" r="9"></circle>
                                <rect id="Rectangle-Copy-67" stroke="#2075B5" stroke-width="2" x="1" y="6" width="82" height="60" rx="4"></rect>
                                <line x1="35" y1="0.424076485" x2="42.67885" y2="0.575923515" id="Path-12-Copy-5" stroke="#2075B5" stroke-width="2"></line>
                                <line x1="47.4697822" y1="0.575923515" x2="52.2239471" y2="0.575923515" id="Path-12-Copy-4" stroke="#2075B5" stroke-width="2"></line>
                                <line x1="15" y1="71.4240765" x2="22.67885" y2="71.5759235" id="Path-12-Copy-7" stroke="#2075B5" stroke-width="2"></line>
                                <line x1="27.4697822" y1="71.5759235" x2="32.2239471" y2="71.5759235" id="Path-12-Copy-6" stroke="#2075B5" stroke-width="2"></line>
                                <path d="M42.5,24 C44.9852814,24 47,26.0147186 47,28.5 C47,28.7554897 46.9787083,29.0060065 46.9378025,29.2498727 C49.3740575,30.742787 51,33.4315139 51,36.5 C51,41.1944204 47.1944204,45 42.5,45 C37.8055796,45 34,41.1944204 34,36.5 C34,33.4315139 35.6259425,30.742787 38.0632656,29.2483812 C38.0212917,29.0060065 38,28.7554897 38,28.5 C38,26.0147186 40.0147186,24 42.5,24 Z" id="Combined-Shape" fill="#FFFFFF"></path>
                                <path d="M51.8241122,23.4125196 C52.2145537,22.9343243 52.9209386,22.8611675 53.4024832,23.2492552 C53.8835789,23.6373428 53.9571794,24.3394693 53.5671866,24.8181107 L53.5671866,24.8181107 L33.2960921,49.6530447 C32.9056506,50.1316861 32.1992657,50.2048429 31.7177212,49.8167552 C31.2366254,49.4282215 31.163025,48.7260951 31.5530177,48.2478997 L31.5530177,48.2478997 L35.3039488,43.6528525 C34.9754394,43.3245393 34.6680228,42.9752604 34.387982,42.6036776 L34.387982,42.6036776 L31.3622848,44.6079051 C30.8470815,44.9496006 30.150121,44.8108704 29.8063529,44.2983271 C29.4630337,43.7857837 29.6021565,43.093471 30.1182573,42.7522215 L30.1182573,42.7522215 L33.2539065,40.6743912 C32.8495527,39.7679612 32.5748973,38.791943 32.4600088,37.7677485 L32.4600088,37.7677485 L29.1219583,37.7677485 C28.5021886,37.7677485 28,37.2685874 28,36.652554 C28,36.0365206 28.5021886,35.5373596 29.1219583,35.5373596 L29.1219583,35.5373596 L32.4618039,35.5373596 C32.5731022,34.5466209 32.830255,33.6000438 33.2126184,32.7194863 L33.2126184,32.7194863 L30.1182573,30.6693129 C29.6021565,30.3276173 29.4630337,29.6353046 29.8063529,29.1227612 C30.150121,28.6102179 30.8470815,28.4719338 31.3622848,28.8136293 L31.3622848,28.8136293 L34.3314353,30.7803862 C35.0005713,29.8752944 35.8191521,29.087075 36.7521726,28.4518603 C36.7903192,25.4560019 39.2406762,23.0400447 42.2636808,23.0391526 C45.2310362,23.0400447 47.6427978,25.3694628 47.766662,28.2885958 L47.766662,28.2885958 L47.8182721,28.3207134 Z M53.125539,28.8134955 C53.6407422,28.4717999 54.3377027,28.6105301 54.681022,29.1226274 C55.02479,29.6356168 54.8852184,30.3274835 54.3695664,30.669179 L54.3695664,30.669179 L51.4986994,32.5717007 C51.9174142,33.4941896 52.1979038,34.4916195 52.3159338,35.5372258 L52.3159338,35.5372258 L55.3667629,35.5372258 C55.9860839,35.5372258 56.4887213,36.0363868 56.4887213,36.6524202 C56.4887213,37.2684536 55.9860839,37.7676147 55.3667629,37.7676147 L55.3667629,37.7676147 L52.3190753,37.7676147 C52.197455,38.8484611 51.901258,39.8766704 51.4596552,40.8241396 L51.4596552,40.8241396 L54.3695664,42.7520877 C54.8852184,43.0937833 55.02479,43.786096 54.681022,44.2986393 C54.3377027,44.8107366 53.6407422,44.9499129 53.125539,44.6077712 L53.125539,44.6077712 L50.2914722,42.730676 C48.4640265,45.0748147 45.6057254,46.5856801 42.3906416,46.5861262 C41.3445276,46.5861262 40.3320724,46.4255382 39.3819981,46.1275582 C38.7905016,45.9419899 38.4628898,45.3161427 38.6491349,44.7286583 C38.83538,44.1411739 39.4654718,43.815091 40.0565194,44.0006594 C40.7925241,44.2308355 41.5743047,44.3557373 42.3906416,44.3557373 C44.5340308,44.3552912 46.4642479,43.4952533 47.8702861,42.0994759 C49.2740804,40.7019142 50.1388859,38.7828877 50.1397834,36.6524202 C50.1393346,35.2245253 49.7511371,33.8952135 49.0734742,32.7501319 C48.7588771,32.2197454 48.9370441,31.5359082 49.4710963,31.2232076 C49.4980233,31.2075949 49.5267454,31.1986734 49.55457,31.185291 C49.5675847,31.1754773 49.5783555,31.1629871 49.5922678,31.1540656 L49.5922678,31.1540656 Z M42.3906864,28.9496831 C40.9788141,28.9501291 39.6638789,29.3292952 38.5262131,29.9823531 C38.4921056,30.004657 38.4579981,30.0260687 38.4216466,30.0452501 C37.8723358,30.3726711 37.3616204,30.7580823 36.9105931,31.2059444 C35.5063501,32.6035061 34.6415446,34.5216405 34.640647,36.652554 C34.6415446,38.6875608 35.4327496,40.5307542 36.7270407,41.9086884 L36.7270407,41.9086884 L46.3956289,30.0635393 C45.2260996,29.3591824 43.8609007,28.9501291 42.3906864,28.9496831 Z M42.2636808,25.2695414 C41.3566896,25.2699875 40.5461869,25.6322026 39.9506514,26.2219175 C39.6634301,26.5082994 39.4323067,26.844642 39.268052,27.2166709 C40.2504387,26.895941 41.2992454,26.7197403 42.3906864,26.7192942 C43.3721756,26.7192942 44.3191084,26.8669459 45.2175727,27.1305779 C45.0560107,26.792897 44.8405947,26.4855494 44.5767101,26.2219175 C43.9807258,25.6322026 43.1706719,25.2699875 42.2636808,25.2695414 Z" id="Combined-Shape-Copy-8" fill="#3474A5"></path>
                            </g>
                            <rect id="Rectangle-Copy-74" fill="#ADDBFF" transform="translate(14.000000, 21.500000) rotate(-180.000000) translate(-14.000000, -21.500000) " x="7" y="20" width="14" height="3" rx="1.5"></rect>
                            <rect id="Rectangle-Copy-76" fill="#ADDBFF" transform="translate(14.000000, 35.500000) rotate(-180.000000) translate(-14.000000, -35.500000) " x="7" y="34" width="14" height="3" rx="1.5"></rect>
                            <rect id="Rectangle-Copy-75" fill="#ADDBFF" transform="translate(27.500000, 21.500000) rotate(-180.000000) translate(-27.500000, -21.500000) " x="23" y="20" width="9" height="3" rx="1.5"></rect>
                            <rect id="Rectangle-Copy-84" fill="#ADDBFF" transform="translate(30.000000, 14.500000) rotate(-180.000000) translate(-30.000000, -14.500000) " x="20" y="13" width="20" height="3" rx="1.5"></rect>
                            <rect id="Rectangle-Copy-92" fill="#ADDBFF" transform="translate(46.000000, 14.500000) rotate(-180.000000) translate(-46.000000, -14.500000) " x="42" y="13" width="8" height="3" rx="1.5"></rect>
                            <rect id="Rectangle-Copy-85" fill="#ADDBFF" transform="translate(12.500000, 14.500000) rotate(-180.000000) translate(-12.500000, -14.500000) " x="7" y="13" width="11" height="3" rx="1.5"></rect>
                            <rect id="Rectangle-Copy-100" fill="#ADDBFF" transform="translate(30.000000, 56.500000) rotate(-180.000000) translate(-30.000000, -56.500000) " x="20" y="55" width="20" height="3" rx="1.5"></rect>
                            <rect id="Rectangle-Copy-99" fill="#ADDBFF" transform="translate(12.500000, 56.500000) rotate(-180.000000) translate(-12.500000, -56.500000) " x="7" y="55" width="11" height="3" rx="1.5"></rect>
                            <rect id="Rectangle-Copy-98" fill="#ADDBFF" transform="translate(21.500000, 49.500000) rotate(-180.000000) translate(-21.500000, -49.500000) " x="15" y="48" width="13" height="3" rx="1.5"></rect>
                            <rect id="Rectangle-Copy-97" fill="#ADDBFF" transform="translate(10.000000, 49.500000) rotate(-180.000000) translate(-10.000000, -49.500000) " x="7" y="48" width="6" height="3" rx="1.5"></rect>
                            <rect id="Rectangle-Copy-95" fill="#ADDBFF" transform="translate(12.500000, 42.500000) rotate(-180.000000) translate(-12.500000, -42.500000) " x="7" y="41" width="11" height="3" rx="1.5"></rect>
                            <rect id="Rectangle-Copy-96" fill="#ADDBFF" transform="translate(22.500000, 42.500000) rotate(-180.000000) translate(-22.500000, -42.500000) " x="20" y="41" width="5" height="3" rx="1.5"></rect>
                            <rect id="Rectangle-Copy-94" fill="#ADDBFF" transform="translate(20.000000, 28.500000) rotate(-180.000000) translate(-20.000000, -28.500000) " x="15" y="27" width="10" height="3" rx="1.5"></rect>
                            <rect id="Rectangle-Copy-93" fill="#ADDBFF" transform="translate(10.000000, 28.500000) rotate(-180.000000) translate(-10.000000, -28.500000) " x="7" y="27" width="6" height="3" rx="1.5"></rect>
                        </g>
                    </g>
                </g>
            </g>
        </g>
    </g>
</svg>