<?xml version="1.0" encoding="UTF-8"?>
<svg width="109px" height="90px" viewBox="0 0 109 90" version="1.1" xmlns="http://www.w3.org/2000/svg" xmlns:xlink="http://www.w3.org/1999/xlink">
    <title>icon_no-tracking</title>
    <g id="medical-3" stroke="none" stroke-width="1" fill="none" fill-rule="evenodd">
        <g id="1" transform="translate(-330.000000, -1564.000000)">
            <g id="3" transform="translate(253.000000, 1037.000000)">
                <g id="Group-27" transform="translate(77.000000, 527.000000)">
                    <rect id="Rectangle-Copy-44" fill-opacity="0.06" fill="#0091FF" x="37.4366557" y="0" width="70.9611172" height="64.1566265" rx="7.19621036"></rect>
                    <rect id="Rectangle" fill="#FFECE8" x="0" y="18" width="85" height="63" rx="8"></rect>
                    <path d="M41.5,62.6882386 C51.9934102,62.6882386 61.5105003,56.2229237 61.5105003,53.9101975 C61.5105003,51.5974712 53.181012,44.9780477 42.6876017,44.9780477 C32.1941915,44.9780477 27.3699008,50.0726945 24.3752035,53.9101975 C28.6951016,56.3712366 31.0065898,62.6882386 41.5,62.6882386 Z" id="Oval" fill="#FFFFFF"></path>
                    <path d="M55.9266367,87.7434168 C56.5430805,87.7434168 57.0433827,88.2488914 57.0433827,88.8717084 C57.0433827,89.4534255 56.6075639,89.932138 56.0482631,89.993381 L55.9266367,90 L21.4321421,90 C20.8152516,90 20.3153962,89.4949767 20.3153962,88.8717084 C20.3153962,88.2904125 20.7508258,87.8113349 21.3104379,87.7500414 L21.4321421,87.7434168 L55.9266367,87.7434168 Z M64.9618259,87.7238296 C65.5782697,87.7238296 66.0785719,88.2293043 66.0785719,88.8521212 C66.0785719,89.4338383 65.6427531,89.9125509 65.0834523,89.9737938 L64.9618259,89.9804129 L61.736217,89.9804129 C61.1193266,89.9804129 60.6194711,89.4753895 60.6194711,88.8521212 C60.6194711,88.2708254 61.0549008,87.7917478 61.6145128,87.7304543 L61.736217,87.7238296 L64.9618259,87.7238296 Z M80.1350081,18.54281 C82.7497147,18.5436882 84.8819166,20.6261324 84.9952609,23.2395686 L85,23.4585509 L85,76.6872873 C85,79.3290266 82.9384658,81.4832737 80.3517505,81.5977898 L80.1350081,81.602578 L4.86454632,81.602578 C3.52445121,81.6034795 2.30139108,81.0506166 1.42452219,80.1628767 C0.604860462,79.3360045 0.0735395556,78.2044433 0.0070651856,76.9564321 L1.48503432e-12,76.6872873 L1.48503432e-12,23.4585509 C1.48503432e-12,20.8168116 2.06111233,18.6629927 4.64780489,18.5476683 L4.86454632,18.54281 L80.1350081,18.54281 Z M82.7669549,30.9061781 L2.23304623,30.9061781 L2.23304623,76.6872873 C2.23393963,77.42519 2.52608036,78.0827583 3.00360092,78.5674724 C3.44014705,79.0064804 4.01771696,79.290698 4.66751039,79.3387458 L4.86454632,79.3459936 L80.1350081,79.3459936 C80.8653599,79.3459936 81.5161994,79.0503812 81.9959535,78.5674724 C82.4304692,78.1268232 82.7114092,77.5433193 82.7595694,76.8864722 L82.7669549,76.6872873 L82.7669549,30.9061781 Z M52.408217,40.6361137 C52.7963979,40.1523022 53.4995012,40.0782863 53.9783618,40.4704805 C54.4572225,40.8631259 54.530481,41.5739497 54.1418534,42.0577611 L54.1418534,42.0577611 L46.9285682,51.0412189 C47.4244034,51.8147756 47.7169908,52.7381695 47.7165441,53.7256503 C47.7174375,55.0872726 47.1671051,56.3301987 46.2835357,57.2210977 C45.4013064,58.1142534 44.1710991,58.6698242 42.8234102,58.6689215 C42.2065197,58.6693729 41.6159845,58.5479687 41.0705658,58.3358499 L41.0705658,58.3358499 L33.9644881,67.184364 C33.5763073,67.6681754 32.873204,67.7421914 32.3943434,67.3495459 C31.9154827,66.9569004 31.8417775,66.246528 32.2308518,65.7627166 L32.2308518,65.7627166 L34.9177425,62.4162036 C31.0685426,61.2883633 28.2672972,59.4605309 26.3858036,57.8285699 C24.2519255,55.9795256 23.2861637,54.3868292 23.2401537,54.311008 C22.9913427,53.8971506 23.0319923,53.3691102 23.3402142,52.9990305 C23.3880109,52.9435186 25.25387,50.7085986 28.6085747,48.4610417 C31.9601526,46.2175466 36.8269313,43.9510344 42.8234102,43.9496805 C45.0899577,43.9496805 47.184973,44.261089 49.0937152,44.7638557 L49.0937152,44.7638557 Z M54.0321443,46.6300049 C59.3514285,49.2945784 62.2585414,52.9430221 62.322866,53.018392 C62.610093,53.378994 62.6498492,53.8817608 62.4229264,54.2843352 C62.3670891,54.3818196 61.0587096,56.6740568 57.9523692,58.9617809 C54.850049,61.2499563 49.9327934,63.5060882 42.8235888,63.5015818 C42.0709021,63.5015818 41.3414437,63.4753987 40.6361069,63.4257538 C40.0210033,63.3824274 39.5568837,62.8431041 39.5997667,62.2211897 C39.6426498,61.5997267 40.1764543,61.13126 40.791558,61.1745864 C41.444631,61.2206207 42.1218257,61.2449918 42.8235888,61.2449918 C49.3619129,61.24093 53.7243691,59.2370841 56.5064065,57.2332382 C58.3356364,55.9126857 59.4689101,54.5849121 60.0371104,53.8199304 C59.716381,53.4769297 59.260302,53.0165867 58.6657465,52.4835818 C57.382382,51.3331757 55.4803404,49.8718124 53.0413673,48.6523548 C52.4888014,48.376149 52.2623254,47.6996254 52.5357048,47.1408953 C52.8095309,46.5821653 53.4795784,46.3537991 54.0321443,46.6300049 Z M42.8234102,46.206263 C37.4402481,46.2049098 33.0197211,48.2304189 29.9156141,50.2938386 C27.8536545,51.6635846 26.3893772,53.0423569 25.634457,53.8186216 C25.6755532,53.870523 25.7175429,53.9242296 25.7631061,53.9815469 C26.203104,54.5285426 26.8878926,55.2908164 27.8393601,56.115372 C29.6650163,57.6958828 32.4680486,59.5025034 36.4597452,60.4958513 L36.4597452,60.4958513 L39.2185543,57.060429 C38.4229845,56.1830695 37.9298295,55.0091949 37.9307229,53.7256503 C37.9298295,52.364028 38.4801619,51.121102 39.3637313,50.2302029 C40.2455139,49.3374986 41.4761679,48.7819278 42.8234102,48.7823791 C43.7302079,48.7819278 44.5807215,49.0378243 45.3106267,49.4742475 L45.3106267,49.4742475 L47.5333978,46.7058712 C46.0718007,46.3913035 44.5003158,46.206263 42.8234102,46.206263 Z M45.3758446,52.9742081 L42.6228426,56.4024093 C42.6894007,56.4073738 42.755512,56.4123383 42.8234102,56.4123383 C43.5613559,56.411887 44.2193426,56.1135667 44.7040103,55.6252421 C45.1873379,55.1360148 45.4826055,54.4712254 45.4834989,53.7256503 C45.4830522,53.4634354 45.4446362,53.212052 45.3758446,52.9742081 L45.3758446,52.9742081 Z M42.8234102,51.0389623 C42.0854645,51.0394137 41.4279245,51.337734 40.9432567,51.8260586 C40.4599291,52.3157371 40.1646615,52.9805265 40.1637681,53.7256503 C40.1642148,54.3060435 40.3455743,54.8363406 40.6529028,55.274569 L40.6529028,55.274569 L43.8776183,51.2587535 C43.5551021,51.1179428 43.1999769,51.0394137 42.8234102,51.0389623 Z M80.1350081,20.7993932 L4.86454632,20.7993932 C4.13464118,20.8002958 3.48380166,21.0954569 3.00360092,21.5783657 C2.56949132,22.0190149 2.28858819,22.6025188 2.24043135,23.2593659 L2.23304623,23.4585509 L2.23304623,28.6495949 L82.7669549,28.6495949 L82.7669549,23.4585509 C82.7660615,22.7206481 82.4739207,22.0630798 81.9959535,21.5783657 C81.5161994,21.0954569 80.8653599,20.8002958 80.1350081,20.7993932 Z M6.92373645,23.5074736 C7.5401802,23.5074736 8.04048237,24.0124969 8.04048237,24.6357652 C8.04048237,25.2590335 7.5401802,25.7640568 6.92373645,25.7640568 C6.30684601,25.7640568 5.80699053,25.2590335 5.80699053,24.6357652 C5.80699053,24.0124969 6.30684601,23.5074736 6.92373645,23.5074736 Z M11.3907201,23.5074736 C12.0071639,23.5074736 12.507466,24.0124969 12.507466,24.6357652 C12.507466,25.2590335 12.0071639,25.7640568 11.3907201,25.7640568 C10.7738297,25.7640568 10.2739742,25.2590335 10.2739742,24.6357652 C10.2739742,24.0124969 10.7738297,23.5074736 11.3907201,23.5074736 Z M15.8577038,23.5074736 C16.4741476,23.5074736 16.9744497,24.0124969 16.9744497,24.6357652 C16.9744497,25.2590335 16.4741476,25.7640568 15.8577038,25.7640568 C15.2408134,25.7640568 14.7409579,25.2590335 14.7409579,24.6357652 C14.7409579,24.0124969 15.2408134,23.5074736 15.8577038,23.5074736 Z M60.3937544,11.0195871 C61.0101982,11.0195871 61.5105003,11.5250618 61.5105003,12.1478788 C61.5105003,12.7295958 61.0746816,13.2083084 60.5153808,13.2695513 L60.3937544,13.2761704 L48.2341782,13.2761704 C47.6172877,13.2761704 47.1174322,12.771147 47.1174322,12.1478788 C47.1174322,11.5665829 47.5528619,11.0875053 48.112474,11.0262118 L48.2341782,11.0195871 L60.3937544,11.0195871 Z M69.4289436,11 C70.0453874,11 70.5456895,11.5054746 70.5456895,12.1282916 C70.5456895,12.7100087 70.1098708,13.1887212 69.55057,13.2499642 L69.4289436,13.2565832 L66.2033347,13.2565832 C65.5864443,13.2565832 65.0865888,12.7515599 65.0865888,12.1282916 C65.0865888,11.5469958 65.5220185,11.0679181 66.0816305,11.0066247 L66.2033347,11 L69.4289436,11 Z" id="Combined-Shape" fill="#2075B5"></path>
                    <path d="M72.0531599,52.5927073 C74.4483655,46.5211296 78,50.544969 78,52.5467514 L78,52.5467514 L78,72.3744445 C78,74.3766775 76.3966678,76 74.4180971,76 L74.4180971,76 L56.2241492,76 C54.2460236,76 52.4468374,74.3667654 52.6426914,72.3744445 C52.9217834,69.5332922 61.9942756,66.9764353 66.9898884,61.9794133 C69.8578144,59.110327 71.0801215,55.2157947 72.0531599,52.5927073 Z M26.7758508,35 C28.7535313,35 30.5527175,36.632784 30.3573086,38.6251049 C30.0782166,41.4662573 21.0052793,44.0231142 16.0096665,49.0201362 C13.1421856,51.8892225 11.9194334,55.7837548 10.9468401,58.4068422 C8.55163455,64.4784199 5,60.455031 5,58.452798 L5,58.452798 L5,38.6251049 C5,36.6233225 6.60377732,35 8.58145777,35 L8.58145777,35 Z" id="Combined-Shape" fill="#FFD1C6"></path>
                </g>
            </g>
        </g>
    </g>
</svg>