<?xml version="1.0" encoding="UTF-8"?>
<svg width="53px" height="65px" viewBox="0 0 53 65" version="1.1" xmlns="http://www.w3.org/2000/svg" xmlns:xlink="http://www.w3.org/1999/xlink">
    <title>icon_fuq_4</title>
    <g id="medical-3" stroke="none" stroke-width="1" fill="none" fill-rule="evenodd">
        <g id="2" transform="translate(-768.000000, -4142.000000)">
            <g id="6" transform="translate(-168.000000, 3603.000000)">
                <g id="item" transform="translate(904.000000, 510.000000)">
                    <g id="icon_fuq_4" transform="translate(32.076949, 29.535329)">
                        <g id="Group-12" transform="translate(0.000000, -0.000000)">
                            <g id="Group-50-Copy" transform="translate(20.000361, 31.582524) rotate(-270.000000) translate(-20.000361, -31.582524) translate(-11.582164, 11.582164)">
                                <path d="M6.54234108,1.08110057 L50.3870013,1.08110057 C51.4915708,1.08110057 52.3870013,1.97653107 52.3870013,3.08110057 L52.3870013,36.9196207 C52.3870013,38.0241902 51.4915708,38.9196207 50.3870013,38.9196207 L9.12029754,38.9196207 L9.12029754,38.9196207 L6.54234108,38.9196207 C5.43777158,38.9196207 4.54234108,38.0241902 4.54234108,36.9196207 L4.54234108,3.08110057 C4.54234108,1.97653107 5.43777158,1.08110057 6.54234108,1.08110057 Z" id="Rectangle-Copy-7" fill="#FFFFFF" transform="translate(28.464671, 20.000361) scale(1, -1) translate(-28.464671, -20.000361) "></path>
                                <path d="M38.2313698,18.3210487 C39.1269829,18.3210487 39.8530207,19.0470866 39.8530207,19.9426996 C39.8530207,20.8383126 39.1269829,21.5643505 38.2313698,21.5643505 L33.8630211,21.5643505 C32.967408,21.5643505 32.2413702,20.8383126 32.2413702,19.9426996 C32.2413702,19.0470866 32.967408,18.3210487 33.8630211,18.3210487 L38.2313698,18.3210487 Z M43.668263,18.3210487 C44.5638761,18.3210487 45.2899139,19.0470866 45.2899139,19.9426996 C45.2899139,20.8383126 44.5638761,21.5643505 43.668263,21.5643505 L43.6494288,21.5643505 C42.7538158,21.5643505 42.027778,20.8383126 42.027778,19.9426996 C42.027778,19.0470866 42.7538158,18.3210487 43.6494288,18.3210487 L43.668263,18.3210487 Z" id="Combined-Shape" fill="#ADDBFF" transform="translate(38.765642, 19.942700) rotate(-270.000000) translate(-38.765642, -19.942700) "></path>
                                <path d="M45.2313698,18.3210487 C46.1269829,18.3210487 46.8530207,19.0470866 46.8530207,19.9426996 C46.8530207,20.8383126 46.1269829,21.5643505 45.2313698,21.5643505 L40.8630211,21.5643505 C39.967408,21.5643505 39.2413702,20.8383126 39.2413702,19.9426996 C39.2413702,19.0470866 39.967408,18.3210487 40.8630211,18.3210487 L45.2313698,18.3210487 Z M50.668263,18.3210487 C51.5638761,18.3210487 52.2899139,19.0470866 52.2899139,19.9426996 C52.2899139,20.8383126 51.5638761,21.5643505 50.668263,21.5643505 L50.6494288,21.5643505 C49.7538158,21.5643505 49.027778,20.8383126 49.027778,19.9426996 C49.027778,19.0470866 49.7538158,18.3210487 50.6494288,18.3210487 L50.668263,18.3210487 Z" id="Combined-Shape-Copy" fill="#ADDBFF" transform="translate(45.765642, 19.942700) rotate(-90.000000) translate(-45.765642, -19.942700) "></path>
                                <path d="M54.5423411,1 C55.3707682,1 56.1207682,1.33578644 56.6636614,1.87867966 C57.2065546,2.42157288 57.5423411,3.17157288 57.5423411,4 L57.5423411,4 L57.5423411,36.0007212 C57.5423411,36.8291484 57.2065546,37.5791484 56.6636614,38.1220416 C56.1207682,38.6649348 55.3707682,39.0007212 54.5423411,39.0007212 L54.5423411,39.0007212 L8.54234108,39.0007212 C7.71391396,39.0007212 6.96391396,38.6649348 6.42102074,38.1220416 C5.87812752,37.5791484 5.54234108,36.8291484 5.54234108,36.0007212 L5.54234108,36.0007212 L5.54234108,4 C5.54234108,3.17157288 5.87812752,2.42157288 6.42102074,1.87867966 C6.96391396,1.33578644 7.71391396,1 8.54234108,1 L8.54234108,1 Z" id="Rectangle-Copy-52" stroke="#2075B5" stroke-width="2"></path>
                                <line x1="0.5" y1="9.18140245" x2="0.5" y2="13.737497" id="Path-25" stroke="#2075B5" stroke-width="2"></line>
                                <line x1="62.6650485" y1="22.1806812" x2="62.6650485" y2="26.7367757" id="Path-25-Copy" stroke="#2075B5" stroke-width="2"></line>
                            </g>
                        </g>
                        <circle id="Oval" stroke="#2075B5" stroke-width="2" fill="#E4F7FF" stroke-linecap="round" stroke-linejoin="round" cx="38.9871539" cy="39.4518507" r="6.5"></circle>
                        <path d="M51.538436,63.0031327 C51.538436,56.205782 46.0280944,50.6954404 39.2307436,50.6954404 C32.4333929,50.6954404 26.9230513,56.205782 26.9230513,63.0031327 C34.6262795,63.0031327 42.2309616,63.0031327 51.538436,63.0031327 Z" id="Oval-Copy" stroke="#2075B5" stroke-width="2" fill="#E4F7FF" stroke-linecap="round" stroke-linejoin="round"></path>
                        <path d="M25.4259709,22.3756866 L25.4259709,26.7162253 C25.4259709,27.6818866 24.6418878,28.4646712 23.6743975,28.4646712 C22.7071344,28.4646712 21.9230513,27.6818866 21.9230513,26.7162253 L21.9230513,14.213117 C21.9230513,13.2472289 22.7071344,12.4646712 23.6743975,12.4646712 C24.6418878,12.4646712 25.4259709,13.2472289 25.4259709,14.213117 L25.4259709,18.4901254 L26.9769344,18.4901254 C28.0516964,18.4901254 28.9230513,19.3600373 28.9230513,20.4327926 C28.9230513,21.5057747 28.0516964,22.3756866 26.9769344,22.3756866 L25.4259709,22.3756866 Z M18.9230513,26.7162253 C18.9230513,27.6818866 18.1369185,28.4646712 17.1671269,28.4646712 C16.1973352,28.4646712 15.4112024,27.6818866 15.4112024,26.7162253 L15.4112024,22.3756866 L13.8742558,22.3756866 C12.7966841,22.3756866 11.9230513,21.5057747 11.9230513,20.4327926 C11.9230513,19.3600373 12.7966841,18.4901254 13.8742558,18.4901254 L15.4112024,18.4901254 L15.4112024,14.213117 C15.4112024,13.2472289 16.1973352,12.4646712 17.1671269,12.4646712 C18.1369185,12.4646712 18.9230513,13.2472289 18.9230513,14.213117 L18.9230513,26.7162253 Z" id="Fill-1" stroke="#2075B5" stroke-width="2" fill="#FFFFFF"></path>
                    </g>
                </g>
            </g>
        </g>
    </g>
</svg>