<?xml version="1.0" encoding="UTF-8"?>
<svg width="52px" height="51px" viewBox="0 0 52 51" version="1.1" xmlns="http://www.w3.org/2000/svg" xmlns:xlink="http://www.w3.org/1999/xlink">
    <title>icon_vision_2</title>
    <g id="medical-3" stroke="none" stroke-width="1" fill="none" fill-rule="evenodd">
        <g id="6" transform="translate(-786.000000, -2831.000000)">
            <g id="4" transform="translate(-2.000000, 2339.000000)">
                <g id="item" transform="translate(737.000000, 223.000000)">
                    <g id="icon_vision_2" transform="translate(51.000000, 270.000000)">
                        <path d="M7.19621036,3 L29.0888857,3 C32.5459669,3 35.3484848,5.802518 35.3484848,9.25959914 L35.3484848,9.25959914 L35.3484848,9.25959914 L29.5,17.5839823 C26.0426885,20.5279941 22.8760219,22 20,22 C20,25.9345965 20,29.8691931 20,33.8037896 C20,37.7781469 16.7781469,41 12.8037896,41 L7.19621036,41 C3.22185312,41 1.37489681e-15,37.7781469 0,33.8037896 L0,10.1962104 C-4.86718387e-16,6.22185312 3.22185312,3 7.19621036,3 Z" id="Rectangle-Copy-10" fill-opacity="0.06" fill="#0091FF"></path>
                        <line x1="42" y1="5" x2="45" y2="6" id="Path-25-Copy-2" stroke="#2075B5" stroke-width="2" fill="#FFFFFF" stroke-linecap="round" stroke-linejoin="round" transform="translate(43.500000, 5.500000) scale(1, -1) translate(-43.500000, -5.500000) "></line>
                        <line x1="28" y1="5" x2="31" y2="6" id="Path-25-Copy-4" stroke="#2075B5" stroke-width="2" fill="#FFFFFF" stroke-linecap="round" stroke-linejoin="round" transform="translate(29.500000, 5.500000) scale(-1, -1) translate(-29.500000, -5.500000) "></line>
                        <line x1="36.5" y1="3" x2="36.5" y2="1.27897692e-13" id="Path-25-Copy-5" stroke="#2075B5" stroke-width="2" fill="#FFFFFF" stroke-linecap="round" stroke-linejoin="round"></line>
                        <path d="M10,19 L17,19 C18.6568542,19 20,20.3431458 20,22 L20,46 C20,47.6568542 18.6568542,49 17,49 L10,49 L10,49 L10,19 Z" id="Rectangle" stroke="#2075B5" stroke-width="2" fill="#E4F7FF" stroke-linecap="round" stroke-linejoin="round"></path>
                        <path d="M44.2922078,42 L46.1753247,42 C47.7353498,42 49,43.3431458 49,45 C49,46.6568542 47.7353498,48 46.1753247,48 C39.2160966,48 33.7171883,48 29.6785997,48 C27.1531458,48 23.9269459,47.1750047 20,45.525014" id="Path" stroke="#2075B5" stroke-width="2" stroke-linecap="round" stroke-linejoin="round"></path>
                        <path d="M43,35 L47.5714286,35 C49.4649763,35 51,36.5670034 51,38.5 C51,40.4329966 49.4649763,42 47.5714286,42 L43,42" id="Path-Copy" stroke="#2075B5" stroke-width="2" stroke-linecap="round" stroke-linejoin="round"></path>
                        <path d="M43,28 L47.5714286,28 C49.4649763,28 51,29.5670034 51,31.5 C51,33.4329966 49.4649763,35 47.5714286,35 L43,35" id="Path-Copy-2" stroke="#2075B5" stroke-width="2" stroke-linecap="round" stroke-linejoin="round"></path>
                        <path d="M34,21 L47.625,21 C49.488961,21 51,22.5670034 51,24.5 C51,26.4329966 49.488961,28 47.625,28 L43.125,28" id="Path-Copy-3" stroke="#2075B5" stroke-width="2" stroke-linecap="round" stroke-linejoin="round"></path>
                        <path d="M36.0135899,21 C38.2662462,17.7363483 39.501171,15.3989483 39.7183645,13.9877999 C39.9564606,12.4408437 40.6005233,10.7162353 38.4972219,9.44436389 C36.7216289,8.3706585 34.9071236,9.24272878 33.0537059,12.0605747 C29.6185781,18.6868582 26.0164528,22 22.2473298,22 C21.7479232,22 20.9988133,22 20,22" id="Path-23" stroke="#2075B5" stroke-width="2" stroke-linecap="round" stroke-linejoin="round"></path>
                        <circle id="Oval-Copy-25" fill="#2075B5" transform="translate(14.801416, 43.593172) rotate(22.000000) translate(-14.801416, -43.593172) " cx="14.8014162" cy="43.5931716" r="1.66700264"></circle>
                    </g>
                </g>
            </g>
        </g>
    </g>
</svg>