<?xml version="1.0" encoding="UTF-8"?>
<svg width="107px" height="93px" viewBox="0 0 107 93" version="1.1" xmlns="http://www.w3.org/2000/svg" xmlns:xlink="http://www.w3.org/1999/xlink">
    <title>icon_any-browser</title>
    <g id="medical-3" stroke="none" stroke-width="1" fill="none" fill-rule="evenodd">
        <g id="2" transform="translate(-698.000000, -1563.000000)">
            <g id="3" transform="translate(268.000000, 1037.000000)">
                <g id="icon_any-browser" transform="translate(430.000000, 526.000000)">
                    <rect id="Rectangle-Copy-10" fill-opacity="0.06" fill="#0091FF" x="34" y="0" width="73" height="66" rx="7.19621036"></rect>
                    <g id="Group-4">
                        <g id="Group-56-Copy" transform="translate(19.000000, 26.000000)">
                            <rect id="Rectangle" fill="#E4F7FF" x="0" y="0" width="72" height="56" rx="2"></rect>
                            <rect id="Rectangle-Copy-54" stroke="#2075B5" stroke-width="2" x="1" y="1" width="70" height="54" rx="4"></rect>
                            <rect id="Rectangle-Copy-53" fill="#2075B5" x="2" y="9" width="68" height="2"></rect>
                            <path d="M6,5 C5.4476,5 5,5.4476 5,6 C5,6.5524 5.4476,7 6,7 C6.552,7 7,6.5524 7,6 C7,5.4476 6.552,5 6,5" id="Fill-9-Copy-2" fill="#3474A5"></path>
                            <path d="M9,5 C8.4476,5 8,5.4476 8,6 C8,6.5524 8.4476,7 9,7 C9.552,7 10,6.5524 10,6 C10,5.4476 9.552,5 9,5" id="Fill-11-Copy-2" fill="#3474A5"></path>
                            <path d="M13,5 C12.4476,5 12,5.4476 12,6 C12,6.5524 12.4476,7 13,7 C13.552,7 14,6.5524 14,6 C14,5.4476 13.552,5 13,5" id="Fill-13-Copy-2" fill="#3474A5"></path>
                        </g>
                        <g id="Group-56">
                            <rect id="Rectangle" fill="#E4F7FF" x="0" y="5.15313534" width="72" height="62" rx="2"></rect>
                            <rect id="Rectangle-Copy-54" stroke="#2075B5" stroke-width="2" x="1" y="6.15313534" width="72" height="60" rx="4"></rect>
                            <rect id="Rectangle-Copy-53" fill="#2075B5" x="2" y="15.1531353" width="70" height="2"></rect>
                            <path d="M6.11674592,10.1531353 C5.49985547,10.1531353 5,10.6581587 5,11.281427 C5,11.9046952 5.49985547,12.4097186 6.11674592,12.4097186 C6.73318967,12.4097186 7.23349184,11.9046952 7.23349184,11.281427 C7.23349184,10.6581587 6.73318967,10.1531353 6.11674592,10.1531353" id="Fill-9-Copy-2" fill="#3474A5"></path>
                            <path d="M10.5837296,10.1531353 C9.96683915,10.1531353 9.46698368,10.6581587 9.46698368,11.281427 C9.46698368,11.9046952 9.96683915,12.4097186 10.5837296,12.4097186 C11.2001733,12.4097186 11.7004755,11.9046952 11.7004755,11.281427 C11.7004755,10.6581587 11.2001733,10.1531353 10.5837296,10.1531353" id="Fill-11-Copy-2" fill="#3474A5"></path>
                            <path d="M15.0507133,10.1531353 C14.4338228,10.1531353 13.9339674,10.6581587 13.9339674,11.281427 C13.9339674,11.9046952 14.4338228,12.4097186 15.0507133,12.4097186 C15.667157,12.4097186 16.1674592,11.9046952 16.1674592,11.281427 C16.1674592,10.6581587 15.667157,10.1531353 15.0507133,10.1531353" id="Fill-13-Copy-2" fill="#3474A5"></path>
                            <rect id="Rectangle-Copy-140" fill="#ADDBFF" x="41" y="55.1531353" width="24" height="4" rx="2"></rect>
                            <rect id="Rectangle-Copy-144" fill="#ADDBFF" x="10" y="39.1531353" width="24" height="4" rx="2"></rect>
                            <rect id="Rectangle-Copy-146" fill="#ADDBFF" transform="translate(22.500000, 61.153135) scale(-1, 1) translate(-22.500000, -61.153135) " x="11" y="59.1531353" width="23" height="4" rx="2"></rect>
                            <rect id="Rectangle" stroke="#2075B5" stroke-width="2" fill="#FFFFFF" x="41" y="42.1531353" width="24" height="14" rx="2"></rect>
                            <rect id="Rectangle-Copy-50" stroke="#2075B5" stroke-width="2" fill="#FFFFFF" x="10" y="22.1531353" width="24" height="18" rx="2"></rect>
                            <path d="" id="Path-7" stroke="#2075B5" stroke-width="2"></path>
                            <circle id="Oval" stroke="#2075B5" stroke-width="2" fill="#FFFFFF" cx="26" cy="28.1531353" r="3"></circle>
                            <rect id="Rectangle-Copy-49" stroke="#2075B5" stroke-width="2" fill="#FFFFFF" x="11" y="46.1531353" width="23" height="14" rx="2"></rect>
                            <rect id="Rectangle-Copy-58" fill="#2075B5" x="15" y="54.1531353" width="11" height="2"></rect>
                            <rect id="Rectangle-Copy-59" fill="#2075B5" x="27" y="54.1531353" width="3" height="2"></rect>
                            <rect id="Rectangle-Copy-56" fill="#2075B5" x="15" y="50.1531353" width="6" height="2"></rect>
                            <rect id="Rectangle-Copy-57" fill="#2075B5" x="22" y="50.1531353" width="8" height="2"></rect>
                            <rect id="Rectangle-Copy-56" fill="#2075B5" x="45" y="46.1531353" width="8" height="2"></rect>
                            <rect id="Rectangle-Copy-60" fill="#2075B5" x="45" y="50.1531353" width="16" height="2"></rect>
                            <rect id="Rectangle-Copy-57" fill="#2075B5" x="55" y="46.1531353" width="6" height="2"></rect>
                            <line x1="37.9710705" y1="0.5" x2="48.1801383" y2="0.5" id="Path-12-Copy-3" stroke="#2075B5" stroke-width="2" transform="translate(43.075604, 0.500000) scale(-1, 1) translate(-43.075604, -0.500000) "></line>
                            <line x1="27.9710705" y1="0.5" x2="32.7252355" y2="0.5" id="Path-12-Copy-2" stroke="#2075B5" stroke-width="2" transform="translate(30.348153, 0.500000) scale(-1, 1) translate(-30.348153, -0.500000) "></line>
                        </g>
                    </g>
                    <g id="Group-9" transform="translate(76.000000, 63.000000)">
                        <circle id="Oval" stroke="#2075B5" stroke-width="2.3" fill="#FFFFFF" cx="15" cy="15" r="13.85"></circle>
                        <path d="M10.8831944,14.7151436 C10.4874651,14.26621 9.80636232,14.2257537 9.36192122,14.6246609 C8.91661796,15.0240031 8.87695881,15.711324 9.27225706,16.1602577 L12.7208786,20.0753771 C12.9355553,20.3189845 13.2523974,20.4538386 13.5757057,20.4390482 C13.8985829,20.4242577 14.2016305,20.2606927 14.3938911,19.9979447 L20.4289789,11.7326927 C20.7820315,11.248958 20.6798661,10.5681622 20.2005077,10.2118864 C19.7215804,9.8560455 19.0465127,9.95870863 18.6938911,10.4424434 L13.4476756,17.6266874 L10.8831944,14.7151436 Z" id="Fill-10" fill="#3474A5"></path>
                    </g>
                </g>
            </g>
        </g>
    </g>
</svg>