<?xml version="1.0" encoding="UTF-8"?>
<svg width="84px" height="73px" viewBox="0 0 84 73" version="1.1" xmlns="http://www.w3.org/2000/svg" xmlns:xlink="http://www.w3.org/1999/xlink">
    <title>icon_progress_url</title>
    <g id="medical-3" stroke="none" stroke-width="1" fill="none" fill-rule="evenodd">
        <g id="4" transform="translate(-675.000000, -1720.000000)">
            <g id="icon_progress_url" transform="translate(675.000000, 1720.000000)">
                <rect id="Rectangle" fill="#E4F7FF" x="0" y="5.15313534" width="84" height="62" rx="2"></rect>
                <rect id="Rectangle-Copy-52" stroke="#2075B5" stroke-width="2" x="1" y="6.15313534" width="82" height="60" rx="4"></rect>
                <path d="M50.0050049,47.8779739 L50.0050049,56.202633 C50.0050049,57.8321863 48.6608625,59.1531353 47.0023077,59.1531353 C45.3441424,59.1531353 44,57.8321863 44,56.202633 L44,33.1036377 C44,31.4737015 45.3441424,30.1531353 47.0023077,30.1531353 C48.6608625,30.1531353 50.0050049,31.4737015 50.0050049,33.1036377 L50.0050049,41.3210893 L53.6637996,41.3210893 C55.5062487,41.3210893 57,42.7890657 57,44.5993402 C57,46.4099975 55.5062487,47.8779739 53.6637996,47.8779739 L50.0050049,47.8779739 Z M39.9974091,56.2275742 C39.9974091,57.8571275 38.6497529,59.1780765 36.9872529,59.1780765 C35.3247529,59.1780765 33.9770966,57.8571275 33.9770966,56.2275742 L33.9770966,47.9029151 L30.342331,47.9029151 C28.4950654,47.9029151 26.9974091,46.4349387 26.9974091,44.6242814 C26.9974091,42.8140069 28.4950654,41.3460305 30.342331,41.3460305 L33.9770966,41.3460305 L33.9770966,33.1285789 C33.9770966,31.4986427 35.3247529,30.1780765 36.9872529,30.1780765 C38.6497529,30.1780765 39.9974091,31.4986427 39.9974091,33.1285789 L39.9974091,56.2275742 Z" id="Fill-1-Copy" fill="#ADDBFF"></path>
                <path d="M50.0050049,43.8779739 L50.0050049,52.202633 C50.0050049,53.8321863 48.6608625,55.1531353 47.0023077,55.1531353 C45.3441424,55.1531353 44,53.8321863 44,52.202633 L44,29.1036377 C44,27.4737015 45.3441424,26.1531353 47.0023077,26.1531353 C48.6608625,26.1531353 50.0050049,27.4737015 50.0050049,29.1036377 L50.0050049,37.3210893 L53.6637996,37.3210893 C55.5062487,37.3210893 57,38.7890657 57,40.5993402 C57,42.4099975 55.5062487,43.8779739 53.6637996,43.8779739 L50.0050049,43.8779739 Z M39.9974091,52.2275742 C39.9974091,53.8571275 38.6497529,55.1780765 36.9872529,55.1780765 C35.3247529,55.1780765 33.9770966,53.8571275 33.9770966,52.2275742 L33.9770966,43.9029151 L30.342331,43.9029151 C28.4950654,43.9029151 26.9974091,42.4349387 26.9974091,40.6242814 C26.9974091,38.8140069 28.4950654,37.3460305 30.342331,37.3460305 L33.9770966,37.3460305 L33.9770966,29.1285789 C33.9770966,27.4986427 35.3247529,26.1780765 36.9872529,26.1780765 C38.6497529,26.1780765 39.9974091,27.4986427 39.9974091,29.1285789 L39.9974091,52.2275742 Z" id="Fill-1" stroke="#2075B5" stroke-width="2" fill="#FFFFFF"></path>
                <rect id="Rectangle-Copy-51" fill="#2075B5" x="2" y="15.1531353" width="80" height="2"></rect>
                <path d="M6.11674592,10.1531353 C5.49985547,10.1531353 5,10.6581587 5,11.281427 C5,11.9046952 5.49985547,12.4097186 6.11674592,12.4097186 C6.73318967,12.4097186 7.23349184,11.9046952 7.23349184,11.281427 C7.23349184,10.6581587 6.73318967,10.1531353 6.11674592,10.1531353" id="Fill-9-Copy" fill="#3474A5"></path>
                <path d="M10.5837296,10.1531353 C9.96683915,10.1531353 9.46698368,10.6581587 9.46698368,11.281427 C9.46698368,11.9046952 9.96683915,12.4097186 10.5837296,12.4097186 C11.2001733,12.4097186 11.7004755,11.9046952 11.7004755,11.281427 C11.7004755,10.6581587 11.2001733,10.1531353 10.5837296,10.1531353" id="Fill-11-Copy" fill="#3474A5"></path>
                <path d="M15.0507133,10.1531353 C14.4338228,10.1531353 13.9339674,10.6581587 13.9339674,11.281427 C13.9339674,11.9046952 14.4338228,12.4097186 15.0507133,12.4097186 C15.667157,12.4097186 16.1674592,11.9046952 16.1674592,11.281427 C16.1674592,10.6581587 15.667157,10.1531353 15.0507133,10.1531353" id="Fill-13-Copy" fill="#3474A5"></path>
                <line x1="42.9710705" y1="72.5" x2="59.1801383" y2="72.5" id="Path-12" stroke="#2075B5" stroke-width="2"></line>
                <line x1="63.9710705" y1="72.5" x2="68.7252355" y2="72.5" id="Path-12-Copy" stroke="#2075B5" stroke-width="2"></line>
                <line x1="21.9710705" y1="0.5" x2="28.1801383" y2="0.5" id="Path-12" stroke="#2075B5" stroke-width="2" transform="translate(25.075604, 0.500000) scale(-1, 1) translate(-25.075604, -0.500000) "></line>
                <line x1="11.9710705" y1="0.5" x2="16.7252355" y2="0.5" id="Path-12-Copy" stroke="#2075B5" stroke-width="2" transform="translate(14.348153, 0.500000) scale(-1, 1) translate(-14.348153, -0.500000) "></line>
                <rect id="Rectangle-Copy-74" fill="#ADDBFF" x="63" y="51.1531353" width="14" height="3" rx="1.5"></rect>
                <rect id="Rectangle-Copy-84" fill="#ADDBFF" x="57" y="58.1531353" width="7" height="3" rx="1.5"></rect>
                <rect id="Rectangle-Copy-85" fill="#ADDBFF" x="66" y="58.1531353" width="11" height="3" rx="1.5"></rect>
                <rect id="Rectangle-Copy-138" fill="#ADDBFF" x="7" y="21.1531353" width="23" height="3" rx="1.5"></rect>
                <rect id="Rectangle-Copy-139" fill="#ADDBFF" x="7" y="35.1531353" width="12" height="3" rx="1.5"></rect>
                <rect id="Rectangle-Copy-87" fill="#ADDBFF" x="7" y="28.1531353" width="7" height="3" rx="1.5"></rect>
                <rect id="Rectangle-Copy-86" fill="#ADDBFF" x="16" y="28.1531353" width="11" height="3" rx="1.5"></rect>
            </g>
        </g>
    </g>
</svg>