<?xml version="1.0" encoding="UTF-8"?>
<svg width="102px" height="81px" viewBox="0 0 102 81" version="1.1" xmlns="http://www.w3.org/2000/svg" xmlns:xlink="http://www.w3.org/1999/xlink">
    <title>icon_usefull</title>
    <g id="medical-3" stroke="none" stroke-width="1" fill="none" fill-rule="evenodd">
        <g id="2" transform="translate(-333.000000, -1561.000000)">
            <g id="3" transform="translate(268.000000, 1037.000000)">
                <g id="Group-25" transform="translate(65.000000, 524.000000)">
                    <rect id="Rectangle-Copy-27" fill-opacity="0.06" fill="#0091FF" x="46" y="0" width="54" height="61" rx="7.19621036"></rect>
                    <rect id="Rectangle" fill="#E3FFF5" x="20" y="9" width="61" height="72" rx="5"></rect>
                    <path d="M73.3914272,60.2223587 L72.2114682,60.5171691 C71.6336116,60.6623204 71.1590239,61.0729813 70.9313834,61.6242858 L69.4725985,65.1575027 C69.3774116,65.3883022 69.3284711,65.6344284 69.3289201,65.8805545 C69.3284711,66.2159351 69.4182701,66.5544712 69.5987661,66.8528878 L70.2233182,67.8964445 L69.1717719,68.9521722 L68.1305524,68.3242351 C67.8342157,68.145726 67.4997144,68.0546684 67.1634171,68.0546684 C66.9205108,68.0546684 66.6753595,68.1015496 66.4423311,68.1993689 L66.445025,68.1980166 L62.924455,69.6630529 C62.3753341,69.8920494 61.9658506,70.3685243 61.8217232,70.9477771 L61.5276314,72.1328788 L60.0419069,72.1328788 L59.7478151,70.9482279 C59.6036877,70.3685243 59.1942043,69.8920494 58.6450833,69.6630529 L55.1240643,68.1980166 C54.8937298,68.1020003 54.6490275,68.0546684 54.4056722,68.0546684 C54.0698239,68.0546684 53.7348736,68.1448245 53.4376389,68.3251366 L52.3973174,68.9521722 L51.3457711,67.8964445 L51.9716702,66.8515355 C52.1508192,66.5522173 52.2401692,66.2154843 52.2397202,65.8805545 C52.2397202,65.6357807 52.1921267,65.3923593 52.0987357,65.1633628 L50.6377059,61.6242858 C50.4100654,61.0729813 49.9359267,60.6623204 49.3585191,60.5171691 L48.1781111,60.2223587 L48.1781111,58.7302755 L49.3580701,58.4350144 C49.9359267,58.2907646 50.4100654,57.8796529 50.6377059,57.3283485 L52.0969398,53.7928777 C52.1930247,53.5607258 52.2401692,53.3150504 52.2401692,53.0720798 C52.2401692,52.7330929 52.1485742,52.3986139 51.9739151,52.1038035 L51.9721191,52.100648 L51.3457711,51.055739 L52.3973174,50.0000113 L53.4389859,50.6283992 C53.7348736,50.8069082 54.0693749,50.8975151 54.4056722,50.8975151 C54.6490275,50.8975151 54.8928318,50.8497323 55.1213703,50.7555192 L55.1240643,50.7541669 L58.6450833,49.2891306 C59.1942043,49.0605849 59.6041367,48.5836592 59.7478151,48.0039556 L60.0419069,46.8197555 L61.5276314,46.8197555 L61.8212742,48.0039556 C61.9654016,48.5836592 62.3753341,49.0605849 62.924455,49.2891306 L66.445025,50.7541669 C66.6767065,50.8501831 66.9205108,50.8975151 67.1634171,50.8975151 C67.4992654,50.8975151 67.8337667,50.8064574 68.1274094,50.6306531 L69.1717719,50.0000113 L70.2228692,51.055739 L69.5974192,52.100648 C69.4196171,52.3977123 69.3289201,52.7344453 69.3289201,53.0720798 C69.3289201,53.3132473 69.3751666,53.5620781 69.4743945,53.798287 L69.4721495,53.7928777 L70.9313834,57.3278977 C71.1590239,57.8796529 71.6336116,58.2907646 72.2110192,58.4350144 L73.3914272,58.7302755 L73.3914272,60.2223587 Z" id="Fill-21" fill="#FFFFFF"></path>
                    <path d="M73.8223875,51.5883288 L76.1186009,53.8645636 L75.0390882,55.6449761 C74.9153941,55.8487448 74.8965026,56.0984396 74.9882612,56.3178142 L74.9882612,56.3178142 L76.4501012,59.814432 C76.5418598,60.0338066 76.7330235,60.1969999 76.9655685,60.2545189 L76.9655685,60.2545189 L79,60.7570295 L79,63.9749701 L76.9655685,64.4774807 C76.7330235,64.5349997 76.5418598,64.698193 76.4501012,64.9175677 L76.4501012,64.9175677 L74.9882612,68.4141854 C74.8965026,68.6331142 74.9153941,68.8832548 75.0390882,69.0870235 L75.0390882,69.0870235 L76.1186009,70.8669901 L73.8228373,73.1432249 L72.0267982,72.0731047 C71.8207912,71.9504868 71.5693547,71.9317597 71.3480546,72.0231658 L71.3480546,72.0231658 L67.8207471,73.4722869 C67.599447,73.5632471 67.4348213,73.7523017 67.3767975,73.9828234 L67.3767975,73.9828234 L66.8698764,76 L63.623692,76 L63.1167708,73.9828234 C63.058747,73.7523017 62.8941213,73.5632471 62.6728212,73.4722869 L62.6728212,73.4722869 L62.4681636,73.3875691 L62.8788282,71.7534063 C62.936852,71.5228846 63.1014777,71.33383 63.3227778,71.2428698 L63.3227778,71.2428698 L66.8500853,69.7937487 C67.0713854,69.7023426 67.3232717,69.7210697 67.5288289,69.8436877 L67.5288289,69.8436877 L69.324868,70.9138079 L71.6206316,68.637573 L70.5411189,66.8576064 C70.4174248,66.6538377 70.3985333,66.4036971 70.4902919,66.1847683 L70.4902919,66.1847683 L71.9521319,62.6881506 C72.0438905,62.4687759 72.2350542,62.3055826 72.4675992,62.2480636 L72.4675992,62.2480636 L74.5020307,61.745553 L74.5020307,58.5276124 L72.4675992,58.0251018 C72.2350542,57.9675828 72.0438905,57.8043895 71.9521319,57.5850149 L71.9521319,57.5850149 L70.4902919,54.0883971 C70.3985333,53.8690225 70.4174248,53.6193278 70.5411189,53.415559 L70.5411189,53.415559 L71.0448915,52.5844323 L71.3480546,52.7088338 C71.5693547,52.7993481 71.8207912,52.7810669 72.0267982,52.6588949 L72.0267982,52.6588949 L73.8223875,51.5883288 Z M32.2762194,45 C34.6381031,45 36.5528886,46.8981257 36.5528886,49.2394595 L36.5528886,49.2394595 L36.5528886,68.8511958 C36.5528886,71.1925296 34.6381031,73.0906553 32.2762194,73.0906553 C29.9143357,73.0906553 28,71.1925296 28,68.8511958 L28,68.8511958 L28,49.2394595 C28,46.8981257 29.9143357,45 32.2762194,45 Z" id="Combined-Shape" fill="#BAF5E0"></path>
                    <path d="M77.934314,9 C80.6354682,9 82.8238699,11.1975545 82.8243189,13.9094495 L82.8243189,13.9094495 L82.8243189,33.7293627 L93.1116931,33.7983321 C93.5306055,31.7441258 95.3400555,30.1997521 97.5104975,30.1993013 C98.7465808,30.1988505 99.8758033,30.7055277 100.684892,31.5196371 C101.495777,32.3314926 102,33.4656562 102,34.7071054 C102,35.9485547 101.495777,37.0822674 100.684892,37.8945737 C99.8758033,38.7086832 98.7465808,39.2153603 97.5104975,39.2149096 C96.2739651,39.2153603 95.1438447,38.7086832 94.3352046,37.8945737 C93.8300852,37.3883473 93.4439495,36.7572547 93.2248399,36.0531357 L93.2248399,36.0531357 L82.8243189,35.9832648 L82.8243189,51.1709585 L89.689902,51.2349693 C90.3072702,49.4854905 91.9640618,48.2309686 93.9185372,48.2305178 C95.1546205,48.2300671 96.283843,48.7367442 97.0929321,49.5508537 C97.9038171,50.3627092 98.4089365,51.4968727 98.4080385,52.738322 C98.4089365,53.9797712 97.9038171,55.113484 97.0929321,55.9257903 C96.283843,56.7398997 95.1546205,57.2465769 93.9185372,57.2461261 C92.6820049,57.2465769 91.5518844,56.7398997 90.7432443,55.9257903 C90.0989365,55.2802727 89.6535334,54.4305516 89.4954871,53.4870682 L89.4954871,53.4870682 L82.8243189,53.4248605 L82.8243189,68.890235 L93.2288808,68.9601059 C93.8031455,67.1344453 95.5016937,65.8114047 97.5104975,65.810954 C98.7465808,65.8105032 99.8758033,66.3171804 100.684892,67.1312898 C101.495777,67.9431453 102,69.0773088 102,70.3187581 C102,71.5602074 101.495777,72.6939201 100.684892,73.5062264 C99.8758033,74.3203358 98.7465808,74.827013 97.5104975,74.8265622 C96.2739651,74.827013 95.1438447,74.3203358 94.3352046,73.5062264 C93.7241224,72.8940666 93.2876992,72.09889 93.1094482,71.2131064 L93.1094482,71.2131064 L82.8243189,71.144137 L82.8243189,76.0905505 C82.8238699,78.8024455 80.6354682,81 77.934314,81 L77.934314,81 L24.7266067,81 C22.0254525,81 19.8370507,78.8024455 19.8366017,76.0905505 L19.8366017,76.0905505 L19.8366017,63.1950752 L12.310098,63.125655 C11.6931788,64.874683 10.0363872,66.1292049 8.08191179,66.1296557 C6.84537947,66.1301065 5.71615696,65.6234293 4.90706791,64.8093199 C4.09618288,63.9970136 3.59106347,62.8633008 3.59196146,61.6218516 C3.59106347,60.3804023 4.09618288,59.2462388 4.90706791,58.4343833 C5.71615696,57.6202738 6.84537947,57.1135967 8.08191179,57.1140474 C10.3075802,57.114949 12.1489088,58.7404632 12.5049619,60.8735561 L12.5049619,60.8735561 L19.8366017,60.9411732 L19.8366017,45.4455964 C19.7566806,45.4627261 19.6749635,45.4735448 19.5901035,45.473094 L19.5901035,45.473094 L8.77111916,45.4000676 C8.19730351,47.2252775 6.49830631,48.5487688 4.48995152,48.5492196 C3.2534192,48.5496704 2.1241967,48.0429932 1.31510765,47.2288838 C0.504222617,46.4165774 0,45.2828647 0,44.0414155 C0,42.7999662 0.504222617,41.6658027 1.31510765,40.8539471 C2.1241967,40.0398377 3.2534192,39.5331605 4.48995152,39.5336113 C6.66488346,39.5340621 8.47702742,41.0856483 8.89055184,43.1466163 L8.89055184,43.1466163 L19.6053693,43.219192 C19.6848414,43.2196428 19.7620686,43.2286584 19.8366017,43.2448865 L19.8366017,43.2448865 L19.8366017,13.9094495 C19.8370507,11.1975545 22.0254525,9 24.7266067,9 L24.7266067,9 Z M80.5797928,21.3482279 L22.0811279,21.3482279 L22.0811279,76.0905505 C22.0820259,76.8271257 22.3756687,77.4839128 22.8556444,77.9685017 C23.338314,78.4508368 23.9924998,78.7460979 24.7266067,78.7460979 L24.7266067,78.7460979 L77.934314,78.7460979 C78.6684209,78.7460979 79.3226067,78.4508368 79.8048273,77.9685017 C80.285252,77.4839128 80.5788948,76.8271257 80.5797928,76.0905505 L80.5797928,76.0905505 L80.5797928,21.3482279 Z M62.4049677,44.5658534 C62.920414,44.5658534 63.3694091,44.9183637 63.4942297,45.4200823 L63.4942297,45.4200823 L63.9553476,47.2781991 L67.1333344,48.6007889 L68.7663294,47.6144813 C69.2081405,47.3480701 69.7743232,47.4179411 70.1389072,47.783524 L70.1389072,47.783524 L72.4310268,50.084758 C72.7951618,50.4503409 72.864756,51.018775 72.5994,51.4618922 L72.5994,51.4618922 L71.6174478,53.1027329 L72.9343502,56.2933566 L74.7851078,56.7563081 C75.2848392,56.8811743 75.6359534,57.3324055 75.6359534,57.8494506 L75.6359534,57.8494506 L75.6359534,61.1027329 C75.6359534,61.6202288 75.2848392,62.07146 74.7851078,62.1963261 L74.7851078,62.1963261 L72.9339013,62.6592776 L71.6169988,65.8499014 L72.598951,67.4898405 C72.864756,67.9329577 72.7951618,68.5013918 72.4310268,68.8674255 L72.4310268,68.8674255 L70.1393562,71.1686595 C69.7747722,71.5346932 69.2090385,71.6045642 68.7672273,71.3377021 L68.7672273,71.3377021 L67.1333344,70.3518454 L63.9548986,71.6739843 L63.4942297,73.5321012 C63.3694091,74.0342706 62.920414,74.3867809 62.4049677,74.3867809 L62.4049677,74.3867809 L59.1645706,74.3867809 C58.6491243,74.3867809 58.1996803,74.0342706 58.0753086,73.5321012 L58.0753086,73.5321012 L57.6141907,71.6739843 L54.4362039,70.3518454 L52.802311,71.3377021 C52.3604998,71.6041134 51.7943171,71.5346932 51.4301821,71.1686595 L51.4301821,71.1686595 L49.1380625,68.8674255 C48.7739275,68.5013918 48.7047823,67.9329577 48.9701384,67.4898405 L48.9701384,67.4898405 L49.9525395,65.8499014 L48.6347391,62.6592776 L46.7844305,62.1963261 C46.2842501,62.07146 45.9335849,61.6202288 45.9335849,61.1027329 L45.9335849,61.1027329 L45.9335849,57.8494506 C45.9335849,57.3324055 46.2842501,56.8811743 46.7844305,56.7563081 L46.7844305,56.7563081 L48.6351881,56.2933566 L49.9520905,53.1022821 L48.9696894,51.4618922 C48.7047823,51.018775 48.7739275,50.4503409 49.1380625,50.084758 L49.1380625,50.084758 L51.4301821,47.783524 C51.7943171,47.4179411 52.3604998,47.3480701 52.802311,47.6144813 L52.802311,47.6144813 L54.4362039,48.6007889 L57.6137417,47.2781991 L58.0753086,45.4200823 C58.1996803,44.9183637 58.6491243,44.5658534 59.1645706,44.5658534 L59.1645706,44.5658534 Z M97.5104975,68.064856 C96.8863944,68.0653068 96.3323345,68.3154899 95.922851,68.7252493 C95.5151635,69.1363611 95.2659713,69.6926241 95.2650733,70.3187581 C95.2659713,70.9448921 95.5151635,71.5011551 95.922851,71.9122669 C96.3327835,72.3220263 96.8863944,72.5722094 97.5104975,72.5726602 C98.1337026,72.5722094 98.6877624,72.3220263 99.0976949,71.9122669 C99.5053824,71.5011551 99.7545746,70.9448921 99.7554726,70.3187581 C99.7545746,69.6926241 99.5053824,69.1363611 99.0976949,68.7252493 C98.6877624,68.3154899 98.1337026,68.0653068 97.5104975,68.064856 Z M61.5276314,46.8197555 L60.0419069,46.8197555 L59.7478151,48.0039556 C59.6041367,48.5836592 59.1942043,49.0605849 58.6450833,49.2891306 L58.6450833,49.2891306 L55.1240643,50.7541669 C54.8928318,50.8497323 54.6490275,50.8975151 54.4056722,50.8975151 C54.0693749,50.8975151 53.7348736,50.8069082 53.4389859,50.6283992 L53.4389859,50.6283992 L52.3973174,50.0000113 L51.3457711,51.055739 L51.9721191,52.100648 C52.1485742,52.3986139 52.2401692,52.7330929 52.2401692,53.0720798 C52.2401692,53.3150504 52.1930247,53.5607258 52.0969398,53.7928777 L52.0969398,53.7928777 L50.6377059,57.3283485 C50.4100654,57.8796529 49.9359267,58.2907646 49.3580701,58.4350144 L49.3580701,58.4350144 L48.1781111,58.7302755 L48.1781111,60.2223587 L49.3585191,60.5171691 C49.9359267,60.6623204 50.4100654,61.0729813 50.6377059,61.6242858 L50.6377059,61.6242858 L52.0969398,65.1593058 C52.1921267,65.3923593 52.2397202,65.6357807 52.2397202,65.8805545 C52.2401692,66.2154843 52.1508192,66.5522173 51.9725681,66.8506339 L51.9725681,66.8506339 L51.9716702,66.8515355 L51.3457711,67.8964445 L52.3973174,68.9521722 L53.4376389,68.3251366 C53.7348736,68.1448245 54.0698239,68.0546684 54.4056722,68.0546684 C54.6490275,68.0546684 54.8937298,68.1020003 55.1240643,68.1980166 L55.1240643,68.1980166 L58.6450833,69.6630529 C59.1942043,69.8920494 59.6036877,70.3685243 59.7478151,70.9482279 L59.7478151,70.9482279 L60.0419069,72.1328788 L61.5276314,72.1328788 L61.8217232,70.9477771 C61.9658506,70.3685243 62.3753341,69.8920494 62.924455,69.6630529 L62.924455,69.6630529 L66.445025,68.1980166 C66.6753595,68.1015496 66.9205108,68.0546684 67.1634171,68.0546684 C67.4997144,68.0546684 67.8342157,68.145726 68.1296544,68.3237843 L68.1296544,68.3237843 L68.1305524,68.3242351 L69.1717719,68.9521722 L70.2233182,67.8964445 L69.5987661,66.8528878 C69.4182701,66.5544712 69.3284711,66.2159351 69.3289201,65.8805545 C69.3284711,65.6344284 69.3774116,65.3883022 69.4725985,65.1575027 L69.4725985,65.1575027 L70.9313834,61.6242858 C71.1590239,61.0729813 71.6336116,60.6623204 72.2114682,60.5171691 L72.2114682,60.5171691 L73.3914272,60.2223587 L73.3914272,58.7302755 L72.2110192,58.4350144 C71.6336116,58.2907646 71.1590239,57.8796529 70.9313834,57.3278977 L70.9313834,57.3278977 L69.4721495,53.7928777 L69.4098024,53.6190807 C69.3549338,53.4381417 69.3289201,53.2529554 69.3289201,53.0720798 C69.3289201,52.7344453 69.4196171,52.3977123 69.5974192,52.100648 L69.5974192,52.100648 L70.2228692,51.055739 L69.1717719,50.0000113 L68.1310014,50.6283992 C67.8337667,50.8064574 67.4992654,50.8975151 67.1634171,50.8975151 C66.9205108,50.8975151 66.6767065,50.8501831 66.446821,50.7546177 L66.446821,50.7546177 L66.445025,50.7541669 L62.924455,49.2891306 C62.3753341,49.0605849 61.9654016,48.5836592 61.8212742,48.0039556 L61.8212742,48.0039556 L61.5276314,46.8197555 Z M60.7847243,52.9874683 C64.3546838,52.9883699 67.2471098,55.8918465 67.2475588,59.4760016 C67.2471098,63.0601566 64.3546838,65.9640841 60.7847243,65.9645349 C57.2147647,65.9640841 54.3223387,63.0601566 54.3218898,59.4760016 C54.3223387,55.8918465 57.2147647,52.9883699 60.7847243,52.9874683 Z M8.08191179,59.3679495 C7.45825769,59.3684003 6.90419782,59.6185834 6.49426535,60.0283428 C6.08657786,60.4394546 5.83738562,60.9957176 5.83648763,61.6218516 C5.83738562,62.2479856 6.08657786,62.8042486 6.49426535,63.2158111 C6.90419782,63.6251197 7.45825769,63.8753029 8.08191179,63.8757536 C8.70556589,63.8753029 9.25962576,63.6251197 9.66910923,63.2158111 C10.0767967,62.8042486 10.325989,62.2484364 10.326887,61.6218516 C10.325989,60.9957176 10.0767967,60.4394546 9.66910923,60.0283428 C9.25962576,59.6185834 8.70556589,59.3684003 8.08191179,59.3679495 Z M60.7847243,55.2413704 C59.6164392,55.2418212 58.5689338,55.7137882 57.8020503,56.4819181 C57.0369627,57.251851 56.5673139,58.3030709 56.5664159,59.4760016 C56.5673139,60.6489322 57.0369627,61.7006029 57.8020503,62.4705359 C58.5689338,63.2382149 59.6164392,63.710182 60.7847243,63.7106328 C61.9530093,63.710182 63.0005147,63.2382149 63.7673983,62.4705359 C64.5324858,61.7006029 65.0021346,60.6489322 65.0030326,59.4760016 C65.0021346,58.3030709 64.5324858,57.251851 63.7673983,56.4819181 C63.0005147,55.7137882 61.9530093,55.2418212 60.7847243,55.2413704 Z M93.9185372,50.4844199 C93.2944341,50.4848707 92.7403742,50.7350538 92.3308908,51.1448132 C91.9232033,51.5559249 91.674011,52.112188 91.673113,52.738322 C91.674011,53.364456 91.9232033,53.920719 92.3308908,54.3318307 C92.7408232,54.7415901 93.2944341,54.9917733 93.9185372,54.992224 C94.5417423,54.9917733 95.0958022,54.7415901 95.5057346,54.3318307 C95.9134221,53.920719 96.1626144,53.364456 96.1635124,52.738322 C96.1626144,52.112188 95.9134221,51.5559249 95.5057346,51.1448132 C95.0958022,50.7350538 94.5417423,50.4848707 93.9185372,50.4844199 Z M4.48995152,41.7875134 C3.86629742,41.7879642 3.31223755,42.0381473 2.90230509,42.4479067 C2.4946176,42.8590184 2.24542535,43.4152815 2.24452736,44.0414155 C2.24542535,44.6675494 2.4946176,45.2238125 2.90230509,45.635375 C3.31223755,46.0446836 3.86629742,46.2948667 4.48995152,46.2953175 C5.11360563,46.2948667 5.6676655,46.0446836 6.07714897,45.635375 C6.48483646,45.2238125 6.7340287,44.6680002 6.73492669,44.0414155 C6.7340287,43.4152815 6.48483646,42.8590184 6.07714897,42.4479067 C5.6676655,42.0381473 5.11360563,41.7879642 4.48995152,41.7875134 Z M45.5811687,27.3935989 C46.7885164,27.3935989 47.7080582,27.6942695 48.3402432,28.2951597 C48.9719792,28.8965008 49.2880717,29.7065532 49.2880717,30.7257677 C49.2880717,31.3604666 49.1470873,31.9257452 48.8646694,32.4211529 C48.5818026,32.9161098 48.1624412,33.3060348 47.6070343,33.5891249 C47.0516275,33.8726658 46.3763389,34.0151124 45.5811687,34.0151124 L45.5811687,34.0151124 L44.0586266,34.0151124 L44.0586266,37.592055 L41.6012768,37.592055 L41.6012768,27.3935989 Z M52.9516467,27.3937792 L52.9516467,37.5922353 L50.4942969,37.5922353 L50.4942969,27.3937792 L52.9516467,27.3937792 Z M36.9317733,27.465859 L40.6530442,37.5921902 L38.0376481,37.5921902 L37.4059121,35.7313687 L33.5984342,35.7313687 L32.9662492,37.5921902 L30.3800378,37.5921902 L34.1013086,27.465859 L36.9317733,27.465859 Z M97.5104975,32.4532034 C96.8863944,32.4536541 96.3323345,32.7038373 95.922851,33.1131459 C95.5151635,33.5247084 95.2659713,34.0809714 95.2650733,34.7071054 C95.2659713,35.3332394 95.5151635,35.8895025 95.922851,36.3006142 C96.3327835,36.7103736 96.8863944,36.9605567 97.5104975,36.9610075 C98.1337026,36.9605567 98.6877624,36.7103736 99.0976949,36.3006142 C99.5053824,35.8895025 99.7545746,35.3332394 99.7554726,34.7071054 C99.7545746,34.0809714 99.5053824,33.5247084 99.0976949,33.1131459 C98.6877624,32.7038373 98.1337026,32.4536541 97.5104975,32.4532034 Z M35.5093571,30.1056291 L34.2306192,33.8561222 L36.7737271,33.8561222 L35.5093571,30.1056291 Z M45.3081798,29.3842452 L44.0586266,29.3842452 L44.0586266,32.0384403 L45.3081798,32.0384403 C46.2946219,32.0384403 46.7885164,31.6011833 46.7885164,30.7257677 C46.7885164,29.8314194 46.2946219,29.3842452 45.3081798,29.3842452 L45.3081798,29.3842452 Z M77.934314,11.2539021 L24.7266067,11.2539021 C23.9924998,11.2543528 23.338314,11.5491632 22.8556444,12.0314983 C22.3756687,12.5156364 22.0820259,13.1724235 22.0811279,13.9094495 L22.0811279,13.9094495 L22.0811279,19.0943258 L80.5797928,19.0943258 L80.5797928,13.9094495 C80.5788948,13.1724235 80.285252,12.5156364 79.8048273,12.0314983 C79.3226067,11.5491632 78.6684209,11.2543528 77.934314,11.2539021 L77.934314,11.2539021 Z M31.2858404,13.9583592 C31.9059025,13.9583592 32.408328,14.4627824 32.408328,15.0853102 C32.408328,15.7078379 31.9059025,16.2122612 31.2858404,16.2122612 C30.6657783,16.2122612 30.1633528,15.7078379 30.1633528,15.0853102 C30.1633528,14.4627824 30.6657783,13.9583592 31.2858404,13.9583592 Z M26.7958901,13.9583592 C27.4159522,13.9583592 27.9183776,14.4627824 27.9183776,15.0853102 C27.9183776,15.7078379 27.4159522,16.2122612 26.7958901,16.2122612 C26.1758279,16.2122612 25.6734025,15.7078379 25.6734025,15.0853102 C25.6734025,14.4627824 26.1758279,13.9583592 26.7958901,13.9583592 Z M35.7757907,13.9583592 C36.3958529,13.9583592 36.8982783,14.4627824 36.8982783,15.0853102 C36.8982783,15.7078379 36.3958529,16.2122612 35.7757907,16.2122612 C35.1557286,16.2122612 34.6533031,15.7078379 34.6533031,15.0853102 C34.6533031,14.4627824 35.1557286,13.9583592 35.7757907,13.9583592 Z" id="Combined-Shape" fill="#2075B5"></path>
                </g>
            </g>
        </g>
    </g>
</svg>