<?xml version="1.0" encoding="UTF-8"?>
<svg width="90px" height="78px" viewBox="0 0 90 78" version="1.1" xmlns="http://www.w3.org/2000/svg" xmlns:xlink="http://www.w3.org/1999/xlink">
    <title>icon_best-in_1</title>
    <g id="medical-3" stroke="none" stroke-width="1" fill="none" fill-rule="evenodd">
        <g id="2" transform="translate(-203.000000, -3171.000000)">
            <g id="5" transform="translate(171.000000, 2922.000000)">
                <g id="item" transform="translate(0.000000, 208.000000)">
                    <g id="Group-3" transform="translate(32.000000, 41.000000)">
                        <rect id="Rectangle-Copy-9" stroke="#2075B5" stroke-width="2" fill="#E4F7FF" x="1" y="21" width="65" height="51" rx="4"></rect>
                        <rect id="Rectangle-Copy-138" fill="#ADDBFF" x="7" y="36" width="12" height="3" rx="1.5"></rect>
                        <rect id="Rectangle-Copy-139" fill="#ADDBFF" x="7" y="50" width="12" height="3" rx="1.5"></rect>
                        <rect id="Rectangle-Copy-140" fill="#ADDBFF" x="12" y="57" width="7" height="3" rx="1.5"></rect>
                        <rect id="Rectangle-Copy-141" fill="#ADDBFF" x="21" y="64" width="7" height="3" rx="1.5"></rect>
                        <rect id="Rectangle-Copy-87" fill="#ADDBFF" x="7" y="43" width="7" height="3" rx="1.5"></rect>
                        <rect id="Rectangle-Copy-86" fill="#ADDBFF" x="16" y="43" width="3" height="3" rx="1.5"></rect>
                        <rect id="Rectangle-Copy-89" fill="#ADDBFF" x="7" y="57" width="3" height="3" rx="1.5"></rect>
                        <rect id="Rectangle-Copy-88" fill="#ADDBFF" x="7" y="64" width="12" height="3" rx="1.5"></rect>
                        <rect id="Rectangle-Copy-102" fill="#ADDBFF" x="30" y="64" width="31" height="3" rx="1.5"></rect>
                        <rect id="Rectangle-Copy-53" fill="#2075B5" x="1" y="30" width="66" height="2"></rect>
                        <path d="M5.11674592,25 C4.49985547,25 4,25.5050233 4,26.1282916 C4,26.7515599 4.49985547,27.2565832 5.11674592,27.2565832 C5.73318967,27.2565832 6.23349184,26.7515599 6.23349184,26.1282916 C6.23349184,25.5050233 5.73318967,25 5.11674592,25" id="Fill-9-Copy-2" fill="#3474A5"></path>
                        <path d="M9.5837296,25 C8.96683915,25 8.46698368,25.5050233 8.46698368,26.1282916 C8.46698368,26.7515599 8.96683915,27.2565832 9.5837296,27.2565832 C10.2001733,27.2565832 10.7004755,26.7515599 10.7004755,26.1282916 C10.7004755,25.5050233 10.2001733,25 9.5837296,25" id="Fill-11-Copy-2" fill="#3474A5"></path>
                        <path d="M14.0507133,25 C13.4338228,25 12.9339674,25.5050233 12.9339674,26.1282916 C12.9339674,26.7515599 13.4338228,27.2565832 14.0507133,27.2565832 C14.667157,27.2565832 15.1674592,26.7515599 15.1674592,26.1282916 C15.1674592,25.5050233 14.667157,25 14.0507133,25" id="Fill-13-Copy-2" fill="#3474A5"></path>
                        <rect id="Rectangle-Copy-10" stroke="#2075B5" stroke-width="2" fill="#E4F7FF" x="24" y="6" width="65" height="51" rx="4"></rect>
                        <rect id="Rectangle-Copy-54" fill="#2075B5" x="24" y="15" width="66" height="2"></rect>
                        <path d="M29.1167459,10 C28.4998555,10 28,10.5050233 28,11.1282916 C28,11.7515599 28.4998555,12.2565832 29.1167459,12.2565832 C29.7331897,12.2565832 30.2334918,11.7515599 30.2334918,11.1282916 C30.2334918,10.5050233 29.7331897,10 29.1167459,10" id="Fill-9-Copy-3" fill="#3474A5"></path>
                        <path d="M33.5837296,10 C32.9668392,10 32.4669837,10.5050233 32.4669837,11.1282916 C32.4669837,11.7515599 32.9668392,12.2565832 33.5837296,12.2565832 C34.2001733,12.2565832 34.7004755,11.7515599 34.7004755,11.1282916 C34.7004755,10.5050233 34.2001733,10 33.5837296,10" id="Fill-11-Copy-3" fill="#3474A5"></path>
                        <path d="M38.0507133,10 C37.4338228,10 36.9339674,10.5050233 36.9339674,11.1282916 C36.9339674,11.7515599 37.4338228,12.2565832 38.0507133,12.2565832 C38.667157,12.2565832 39.1674592,11.7515599 39.1674592,11.1282916 C39.1674592,10.5050233 38.667157,10 38.0507133,10" id="Fill-13-Copy-3" fill="#3474A5"></path>
                        <g id="Group-50" transform="translate(18.971070, 0.000000)" stroke="#2075B5" stroke-width="2">
                            <line x1="0" y1="77.5" x2="16.2090678" y2="77.5" id="Path-12"></line>
                            <line x1="21" y1="77.5" x2="25.754165" y2="77.5" id="Path-12-Copy"></line>
                            <line x1="27" y1="0.5" x2="33.2090678" y2="0.5" id="Path-12" transform="translate(30.104534, 0.500000) scale(-1, 1) translate(-30.104534, -0.500000) "></line>
                            <line x1="17" y1="0.5" x2="21.754165" y2="0.5" id="Path-12-Copy" transform="translate(19.377082, 0.500000) scale(-1, 1) translate(-19.377082, -0.500000) "></line>
                        </g>
                        <rect id="Rectangle-Copy-142" fill="#ADDBFF" x="29" y="21" width="12" height="3" rx="1.5"></rect>
                        <rect id="Rectangle-Copy-91" fill="#ADDBFF" x="29" y="28" width="7" height="3" rx="1.5"></rect>
                        <rect id="Rectangle-Copy-143" fill="#ADDBFF" transform="translate(79.000000, 50.500000) scale(-1, -1) translate(-79.000000, -50.500000) " x="73" y="49" width="12" height="3" rx="1.5"></rect>
                        <rect id="Rectangle-Copy-101" fill="#ADDBFF" transform="translate(81.500000, 44.500000) scale(-1, -1) translate(-81.500000, -44.500000) " x="78" y="43" width="7" height="3" rx="1.5"></rect>
                        <rect id="Rectangle-Copy-90" fill="#ADDBFF" x="38" y="28" width="3" height="3" rx="1.5"></rect>
                        <path d="M66.0050049,40.8779739 L66.0050049,49.202633 C66.0050049,50.8321863 64.6608625,52.1531353 63.0023077,52.1531353 C61.3441424,52.1531353 60,50.8321863 60,49.202633 L60,27.1036377 C60,25.4737015 61.3441424,24.1531353 63.0023077,24.1531353 C64.6608625,24.1531353 66.0050049,25.4737015 66.0050049,27.1036377 L66.0050049,34.3210893 L69.6637996,34.3210893 C71.5062487,34.3210893 73,35.7890657 73,37.5993402 C73,39.4099975 71.5062487,40.8779739 69.6637996,40.8779739 L66.0050049,40.8779739 Z M55.9974091,49.2275742 C55.9974091,50.8571275 54.6497529,52.1780765 52.9872529,52.1780765 C51.3247529,52.1780765 49.9770966,50.8571275 49.9770966,49.2275742 L49.9770966,40.9029151 L46.342331,40.9029151 C44.4950654,40.9029151 42.9974091,39.4349387 42.9974091,37.6242814 C42.9974091,35.8140069 44.4950654,34.3460305 46.342331,34.3460305 L49.9770966,34.3460305 L49.9770966,27.1285789 C49.9770966,25.4986427 51.3247529,24.1780765 52.9872529,24.1780765 C54.6497529,24.1780765 55.9974091,25.4986427 55.9974091,27.1285789 L55.9974091,49.2275742 Z" id="Fill-1-Copy" fill="#ADDBFF"></path>
                        <path d="M66.0050049,37.8779739 L66.0050049,45.202633 C66.0050049,46.8321863 64.6608625,48.1531353 63.0023077,48.1531353 C61.3441424,48.1531353 60,46.8321863 60,45.202633 L60,24.1036377 C60,22.4737015 61.3441424,21.1531353 63.0023077,21.1531353 C64.6608625,21.1531353 66.0050049,22.4737015 66.0050049,24.1036377 L66.0050049,31.3210893 L68.6637996,31.3210893 C70.5062487,31.3210893 72,32.7890657 72,34.5993402 C72,36.4099975 70.5062487,37.8779739 68.6637996,37.8779739 L66.0050049,37.8779739 Z M55.9974091,45.2275742 C55.9974091,46.8571275 54.6497529,48.1780765 52.9872529,48.1780765 C51.3247529,48.1780765 49.9770966,46.8571275 49.9770966,45.2275742 L49.9770966,37.9029151 L47.342331,37.9029151 C45.4950654,37.9029151 43.9974091,36.4349387 43.9974091,34.6242814 C43.9974091,32.8140069 45.4950654,31.3460305 47.342331,31.3460305 L49.9770966,31.3460305 L49.9770966,24.1285789 C49.9770966,22.4986427 51.3247529,21.1780765 52.9872529,21.1780765 C54.6497529,21.1780765 55.9974091,22.4986427 55.9974091,24.1285789 L55.9974091,45.2275742 Z" id="Fill-1" stroke="#2075B5" stroke-width="2" fill="#FFFFFF"></path>
                    </g>
                </g>
            </g>
        </g>
    </g>
</svg>