<?xml version="1.0" encoding="UTF-8"?>
<svg width="59px" height="54px" viewBox="0 0 59 54" version="1.1" xmlns="http://www.w3.org/2000/svg" xmlns:xlink="http://www.w3.org/1999/xlink">
    <title>icon_fuq2_1</title>
    <g id="medical-3" stroke="none" stroke-width="1" fill="none" fill-rule="evenodd">
        <g id="3" transform="translate(-202.000000, -2682.000000)">
            <g id="5" transform="translate(-205.368961, 2489.000000)">
                <g id="item" transform="translate(376.368961, 169.000000)">
                    <g id="icon_fuq2_1" transform="translate(31.000000, 24.153135)">
                        <g id="Group-50" transform="translate(0.000000, 7.000000)">
                            <rect id="Rectangle" fill="#E4F7FF" x="1" y="0" width="48.0769231" height="41" rx="2"></rect>
                            <path d="M12.5,29.8468647 C13.3284271,29.8468647 14,30.5184375 14,31.3468647 C14,32.1752918 13.3284271,32.8468647 12.5,32.8468647 L8.5,32.8468647 C7.67157288,32.8468647 7,32.1752918 7,31.3468647 C7,30.5184375 7.67157288,29.8468647 8.5,29.8468647 L12.5,29.8468647 Z M17.5,29.8468647 C18.3284271,29.8468647 19,30.5184375 19,31.3468647 C19,32.1752918 18.3284271,32.8468647 17.5,32.8468647 C16.6715729,32.8468647 16,32.1752918 16,31.3468647 C16,30.5184375 16.6715729,29.8468647 17.5,29.8468647 Z M17.5,22.8468647 C18.3284271,22.8468647 19,23.5184375 19,24.3468647 C19,25.1752918 18.3284271,25.8468647 17.5,25.8468647 L8.5,25.8468647 C7.67157288,25.8468647 7,25.1752918 7,24.3468647 C7,23.5184375 7.67157288,22.8468647 8.5,22.8468647 L17.5,22.8468647 Z" id="Combined-Shape" fill="#ADDBFF"></path>
                            <rect id="Rectangle-Copy-52" stroke="#2075B5" stroke-width="2" x="1" y="1" width="48" height="39" rx="4"></rect>
                            <polygon id="Rectangle-Copy-51" fill="#2075B5" points="2 10 50 10 50 12 2 12"></polygon>
                            <path d="M6.11674592,5 C5.49985547,5 5,5.50502333 5,6.12829161 C5,6.7515599 5.49985547,7.25658322 6.11674592,7.25658322 C6.73318967,7.25658322 7.23349184,6.7515599 7.23349184,6.12829161 C7.23349184,5.50502333 6.73318967,5 6.11674592,5" id="Fill-9-Copy" fill="#3474A5"></path>
                            <path d="M10.5837296,5 C9.96683915,5 9.46698368,5.50502333 9.46698368,6.12829161 C9.46698368,6.7515599 9.96683915,7.25658322 10.5837296,7.25658322 C11.2001733,7.25658322 11.7004755,6.7515599 11.7004755,6.12829161 C11.7004755,5.50502333 11.2001733,5 10.5837296,5" id="Fill-11-Copy" fill="#3474A5"></path>
                            <path d="M15.0507133,5 C14.4338228,5 13.9339674,5.50502333 13.9339674,6.12829161 C13.9339674,6.7515599 14.4338228,7.25658322 15.0507133,7.25658322 C15.667157,7.25658322 16.1674592,6.7515599 16.1674592,6.12829161 C16.1674592,5.50502333 15.667157,5 15.0507133,5" id="Fill-13-Copy" fill="#3474A5"></path>
                        </g>
                        <circle id="Oval" stroke="#2075B5" stroke-width="2" fill="#FFFFFF" cx="44.5" cy="14.5" r="13.5"></circle>
                        <path d="M45.2,18.0868647 C45.52,18.0868647 45.7833333,17.9768647 45.99,17.7568647 C46.1966667,17.5368647 46.3,17.280198 46.3,16.9868647 C46.3,16.7335313 46.3366667,16.500198 46.41,16.2868647 C46.4833333,16.0735313 46.6066667,15.8635313 46.78,15.6568647 C46.9533333,15.450198 47.1,15.290198 47.22,15.1768647 C47.34,15.0635313 47.5366667,14.8968647 47.81,14.6768647 C48.0833333,14.4568647 48.2666667,14.3068647 48.36,14.2268647 C49.12,13.560198 49.5,12.7135313 49.5,11.6868647 C49.5,10.5135313 49.0666667,9.55353133 48.2,8.80686466 C47.3466667,8.07353133 46.3,7.70686466 45.06,7.70686466 C43.82,7.70686466 42.7533333,8.10686466 41.86,8.90686466 C40.9533333,9.70686466 40.5,10.780198 40.5,12.1268647 C40.5,12.4468647 40.5966667,12.7135313 40.79,12.9268647 C40.9833333,13.140198 41.2466667,13.2468647 41.58,13.2468647 C41.9133333,13.2468647 42.1766667,13.140198 42.37,12.9268647 C42.5633333,12.7135313 42.66,12.4468647 42.66,12.1268647 C42.6466667,11.3535313 42.8533333,10.7268647 43.28,10.2468647 C43.7066667,9.76686466 44.3,9.52686466 45.06,9.52686466 C45.7533333,9.52686466 46.3166667,9.73353133 46.75,10.1468647 C47.1833333,10.560198 47.4,11.0535313 47.4,11.6268647 C47.4,12.000198 47.2866667,12.360198 47.06,12.7068647 C46.8333333,13.0535313 46.56,13.3635313 46.24,13.6368647 C45.92,13.910198 45.5966667,14.1968647 45.27,14.4968647 C44.9433333,14.7968647 44.6666667,15.160198 44.44,15.5868647 C44.2133333,16.0135313 44.1,16.480198 44.1,16.9868647 C44.1,17.280198 44.2033333,17.5368647 44.41,17.7568647 C44.6166667,17.9768647 44.88,18.0868647 45.2,18.0868647 Z M45.18,21.9068647 C45.5133333,21.9068647 45.8,21.7835313 46.04,21.5368647 C46.28,21.290198 46.4,20.9935313 46.4,20.6468647 C46.4,20.3135313 46.28,20.0235313 46.04,19.7768647 C45.8,19.530198 45.5133333,19.4068647 45.18,19.4068647 C44.8333333,19.4068647 44.5366667,19.5268647 44.29,19.7668647 C44.0433333,20.0068647 43.92,20.300198 43.92,20.6468647 C43.92,20.9935313 44.0433333,21.290198 44.29,21.5368647 C44.5366667,21.7835313 44.8333333,21.9068647 45.18,21.9068647 Z" id="?" fill="#2075B5" fill-rule="nonzero"></path>
                        <line x1="34" y1="53.3468647" x2="40.2090678" y2="53.3468647" id="Path-12" stroke="#2075B5" stroke-width="2" transform="translate(37.104534, 53.346865) scale(-1, 1) translate(-37.104534, -53.346865) "></line>
                        <line x1="24" y1="53.3468647" x2="28.754165" y2="53.3468647" id="Path-12-Copy" stroke="#2075B5" stroke-width="2" transform="translate(26.377082, 53.346865) scale(-1, 1) translate(-26.377082, -53.346865) "></line>
                    </g>
                </g>
            </g>
        </g>
    </g>
</svg>