<?xml version="1.0" encoding="UTF-8"?>
<svg width="60px" height="68px" viewBox="0 0 60 68" version="1.1" xmlns="http://www.w3.org/2000/svg" xmlns:xlink="http://www.w3.org/1999/xlink">
    <title>icon_best-in_3</title>
    <g id="medical-3" stroke="none" stroke-width="1" fill="none" fill-rule="evenodd">
        <g id="2" transform="translate(-767.000000, -3174.000000)">
            <g id="5" transform="translate(171.000000, 2922.000000)">
                <g id="item" transform="translate(564.000000, 208.000000)">
                    <g id="Group-6" transform="translate(32.074012, 44.000000)">
                        <rect id="Rectangle-Copy-10" stroke="#2075B5" stroke-width="2" fill="#E4F7FF" x="6.92598819" y="1" width="38" height="66" rx="8"></rect>
                        <line x1="50.1197556" y1="54.0776247" x2="50.1197556" y2="58.7220161" id="Path-12-Copy-7" stroke="#2075B5" stroke-width="2"></line>
                        <line x1="0.65184703" y1="13.9259882" x2="0.5" y2="21.6048382" id="Path-12-Copy-9" stroke="#2075B5" stroke-width="2"></line>
                        <line x1="0.5" y1="26.3957704" x2="0.5" y2="31.1499353" id="Path-12-Copy-8" stroke="#2075B5" stroke-width="2"></line>
                        <rect id="Rectangle-Copy-74" fill="#ADDBFF" transform="translate(18.925988, 20.500000) rotate(-180.000000) translate(-18.925988, -20.500000) " x="11.9259882" y="19" width="14" height="3" rx="1.5"></rect>
                        <rect id="Rectangle-Copy-76" fill="#ADDBFF" transform="translate(19.925988, 34.500000) rotate(-180.000000) translate(-19.925988, -34.500000) " x="11.9259882" y="33" width="16" height="3" rx="1.5"></rect>
                        <rect id="Rectangle-Copy-77" fill="#ADDBFF" transform="translate(16.925988, 41.500000) rotate(-180.000000) translate(-16.925988, -41.500000) " x="11.9259882" y="40" width="10" height="3" rx="1.5"></rect>
                        <rect id="Rectangle-Copy-75" fill="#ADDBFF" transform="translate(32.425988, 20.500000) rotate(-180.000000) translate(-32.425988, -20.500000) " x="27.9259882" y="19" width="9" height="3" rx="1.5"></rect>
                        <rect id="Rectangle-Copy-84" fill="#ADDBFF" transform="translate(32.425988, 13.500000) rotate(-180.000000) translate(-32.425988, -13.500000) " x="24.9259882" y="12" width="15" height="3" rx="1.5"></rect>
                        <rect id="Rectangle-Copy-85" fill="#ADDBFF" transform="translate(17.425988, 13.500000) rotate(-180.000000) translate(-17.425988, -13.500000) " x="11.9259882" y="12" width="11" height="3" rx="1.5"></rect>
                        <rect id="Rectangle-Copy-94" fill="#ADDBFF" transform="translate(25.425988, 27.500000) rotate(-180.000000) translate(-25.425988, -27.500000) " x="19.9259882" y="26" width="11" height="3" rx="1.5"></rect>
                        <rect id="Rectangle-Copy-93" fill="#ADDBFF" transform="translate(14.925988, 27.500000) rotate(-180.000000) translate(-14.925988, -27.500000) " x="11.9259882" y="26" width="6" height="3" rx="1.5"></rect>
                        <rect id="Rectangle-Copy-78" fill="#ADDBFF" transform="translate(23.925988, 48.500000) rotate(-180.000000) translate(-23.925988, -48.500000) " x="20.9259882" y="47" width="6" height="3" rx="1.5"></rect>
                        <rect id="Rectangle-Copy-79" fill="#ADDBFF" transform="translate(26.925988, 41.500000) rotate(-180.000000) translate(-26.925988, -41.500000) " x="23.9259882" y="40" width="6" height="3" rx="1.5"></rect>
                        <rect id="Rectangle-Copy-103" fill="#ADDBFF" transform="translate(14.925988, 48.500000) rotate(-180.000000) translate(-14.925988, -48.500000) " x="11.9259882" y="47" width="6" height="3" rx="1.5"></rect>
                        <circle id="Oval" stroke="#2075B5" stroke-width="2" fill="#FFFFFF" cx="45.9259882" cy="37" r="13"></circle>
                        <path d="M25.3247,55.8194543 C26.3920483,55.8190196 27.3693015,56.2596881 28.0676473,56.9665846 C28.7681486,57.6713061 29.2048303,58.6570462 29.2039694,59.734574 C29.2048303,60.8125369 28.7681486,61.7982769 28.0676473,62.5034334 C27.3693015,63.209895 26.3920483,63.6505634 25.3247,63.6496947 C24.2564894,63.6505634 23.2796674,63.209895 22.5813215,62.5034334 C21.8808203,61.7982769 21.4441386,60.8125369 21.4449994,59.734574 C21.4441386,58.6570462 21.8808203,57.6713061 22.5813215,56.9665846 C23.2796674,56.2596881 24.2564894,55.8190196 25.3247,55.8194543 Z M25.3247,57.994521 C24.8449105,57.995391 24.42073,58.1876668 24.1051812,58.5043565 C23.7913566,58.8227862 23.6008203,59.2508393 23.5999581,59.734574 C23.6008203,60.2187438 23.7913566,60.6467968 24.1051812,60.9652265 C24.42073,61.2819162 24.8449105,61.474192 25.3247,61.4746271 C25.8040584,61.474192 26.2282388,61.2819162 26.5437877,60.9652265 C26.8576122,60.6467968 27.0481486,60.2187438 27.0490107,59.734574 C27.0481486,59.2508393 26.8576122,58.8227862 26.5437877,58.5043565 C26.2282388,58.1876668 25.8040584,57.995391 25.3247,57.994521 Z M50.2088203,32.0313984 C50.5614418,31.5476637 51.2365095,31.4450005 51.7154368,31.8008414 C52.1947952,32.1571172 52.2969606,32.837913 51.943908,33.3216477 L51.943908,33.3216477 L45.9088203,41.5868997 C45.7165596,41.8496477 45.413512,42.0132127 45.0906348,42.0280032 C44.7673265,42.0427936 44.4504844,41.9079395 44.2358077,41.6643321 L44.2358077,41.6643321 L40.7871862,37.7492127 C40.3918879,37.300279 40.4315471,36.6129581 40.8768503,36.2136159 C41.3212914,35.8147088 42.0023942,35.855165 42.3981235,36.3040987 L42.3981235,36.3040987 L44.9626047,39.2156424 Z M28.9888604,5.22811671 C29.5837476,5.22811671 30.0665546,5.71533156 30.0665546,6.31564987 C30.0665546,6.91640318 29.5837476,7.40318302 28.9888604,7.40318302 L28.9888604,7.40318302 L23.6340133,7.40318302 C23.038695,7.40318302 22.556319,6.91640318 22.556319,6.31564987 C22.556319,5.71533156 23.038695,5.22811671 23.6340133,5.22811671 L23.6340133,5.22811671 Z" id="Combined-Shape" fill="#1F73B3"></path>
                    </g>
                </g>
            </g>
        </g>
    </g>
</svg>