<?xml version="1.0" encoding="UTF-8"?>
<svg width="124px" height="81px" viewBox="0 0 124 81" version="1.1" xmlns="http://www.w3.org/2000/svg" xmlns:xlink="http://www.w3.org/1999/xlink">
    <title>icon_automate</title>
    <g id="medical-3" stroke="none" stroke-width="1" fill="none" fill-rule="evenodd">
        <g id="2" transform="translate(-324.000000, -1280.000000)">
            <g id="3" transform="translate(268.000000, 1037.000000)">
                <g id="Group-34" transform="translate(56.000000, 243.000000)">
                    <rect id="Rectangle-Copy-27" fill-opacity="0.06" fill="#0091FF" x="45" y="0" width="78.530303" height="71" rx="7.19621036"></rect>
                    <rect id="Rectangle" fill="#FFEEE8" x="26" y="12" width="71" height="68" rx="7.19621036"></rect>
                    <circle id="Oval" fill="#FFFFFF" cx="61.5" cy="39.5" r="6.5"></circle>
                    <path d="M25.2615208,58.8474002 L23.409524,57.7214865 C23.2863254,57.646546 23.1475038,57.6086243 23.0077894,57.6086243 C22.9069094,57.6086243 22.805583,57.628488 22.709613,57.668667 L19.0716826,59.1936615 C18.8431403,59.2893687 18.6730726,59.4884577 18.6137051,59.7313372 L18.0910037,61.8531473 L14.743215,61.8531473 L14.2200673,59.7313372 C14.1606998,59.4884577 13.9906321,59.2893687 13.7620898,59.1936615 L10.1241594,57.668667 C10.0281894,57.628488 9.92686304,57.6086243 9.82598301,57.6086243 C9.68626862,57.6086243 9.54744699,57.646546 9.42424836,57.7214865 L7.57225166,58.8474002 L5.20380275,56.4520121 L6.31750045,54.5789504 C6.4451628,54.3645121 6.46435678,54.1017688 6.36927959,53.8710784 L4.86188193,50.1917695 C4.7672511,49.9606276 4.56995475,49.7895285 4.32980671,49.7290343 L2.23185913,49.1999362 L2.23185913,45.8136176 L4.32980671,45.2849709 C4.56995475,45.2244767 4.7672511,45.0529261 4.86188193,44.8222357 L6.36927959,41.1424754 C6.46435678,40.9117849 6.4451628,40.6490417 6.31794683,40.4350549 L5.20380275,38.5610903 L7.57225166,36.1666051 L9.42469473,37.2925187 C9.54744699,37.3674593 9.68626862,37.405381 9.82598301,37.405381 C9.92686304,37.405381 10.0281894,37.3855172 10.1241594,37.3448868 L13.7620898,35.8203437 C13.9906321,35.7246365 14.1606998,35.5250961 14.2200673,35.282668 L14.743215,33.160858 L18.0910037,33.160858 L18.6137051,35.282668 C18.6730726,35.5250961 18.8431403,35.7246365 19.0716826,35.8203437 L22.709613,37.3448868 C22.805583,37.3855172 22.9069094,37.405381 23.0077894,37.405381 C23.1475038,37.405381 23.2863254,37.3674593 23.409524,37.2925187 L25.190994,36.2094927 C25.2432195,36.2311623 25.2985696,36.2474144 25.3548125,36.2609579 L27.6299697,38.5610903 L26.516272,40.4350549 C26.3886096,40.6490417 26.3694156,40.9117849 26.4644928,41.1424754 L27.9718905,44.8222357 C28.0665213,45.0529261 28.264264,45.2244767 28.5039657,45.2849709 L30.6019133,45.8136176 L30.6019133,49.1999362 L28.5039657,49.7290343 C28.264264,49.7895285 28.0665213,49.9606276 27.9718905,50.1917695 L26.4644928,53.8710784 C26.3694156,54.1017688 26.3886096,54.3645121 26.5167183,54.5789504 L27.6299697,56.4520121 L25.2615208,58.8474002 Z" id="Path" fill="#FFFFFF"></path>
                    <path d="M75,65.5 C75,58.0441559 68.9558441,52 61.5,52 C54.0441559,52 48,58.0441559 48,65.5 C58.0793503,67 70.027928,67.0001636 75,65.5 Z" id="Oval-Copy-5" fill="#FFFFFF"></path>
                    <path d="M70.7595499,52.847948 C78.6240752,52.847948 85,59.1467957 85,66.9167967 C81.5804396,66.9708427 78.8035091,66.9945891 76.9173087,66.9992768 L76.574145,66.9999351 C76.5187109,67.0000085 76.4641619,67.000064 76.4105054,67.0001019 L76.0993378,67.0001211 C76.0492818,67.00009 76.0001336,67.0000421 75.9519006,66.9999776 L75.6735469,66.9993946 C73.6691779,66.993574 73.5489194,66.9556214 76.0027167,66.9167967 C76.0027167,60.7006181 71.9201994,55.4298 66.2609083,53.5688576 C67.675731,53.1035109 69.1868248,52.847948 70.7595499,52.847948 Z M33.1015557,37.8379168 L35.4880851,40.1957623 L34.365674,42.0402597 C34.2374627,42.2513769 34.2181185,42.510051 34.3134897,42.7371687 L34.3134897,42.7371687 L35.8331309,46.359495 C35.9285021,46.587057 36.1268922,46.7559508 36.3684692,46.8150636 L36.3684692,46.8150636 L38.4837305,47.335523 L38.4837305,50.6693966 L36.3684692,51.1903004 C36.1268922,51.2498577 35.9285021,51.4187514 35.8331309,51.6463135 L35.8331309,51.6463135 L34.3134897,55.2681954 C34.2181185,55.4957575 34.2374627,55.7544315 34.3661239,55.9651043 L34.3661239,55.9651043 L35.4880851,57.8096017 L33.1015557,60.1674472 L31.2346194,59.0589709 C31.0213838,58.9318562 30.7595629,58.9127445 30.5292324,59.0069694 L30.5292324,59.0069694 L26.8632893,60.5083459 C26.6329589,60.6025708 26,59.9403296 26,59.9403296 L26,59.9403296 L28.2493208,56.8291291 L27.3495925,54.1623858 L28.699185,51.0511853 L31.39837,50.1622709 L31.39837,45.7176987 L28.699185,44.3843271 L27.3495925,42.162041 L27.7994567,40.3842122 L28.3469413,38.1050356 L30.5292324,38.9983946 C30.7595629,39.092175 31.0213838,39.0730634 31.2346194,38.9463931 L31.2346194,38.9463931 L33.1015557,37.8379168 Z M70.7595499,33 C74.7111567,33 77.9146394,36.1649798 77.9146394,40.0695365 C77.9146394,43.9732042 74.7111567,47.138184 70.7595499,47.138184 C69.0545647,47.138184 67.4899371,46.5466114 66.2609083,45.5630276 C67.8804192,44.2669904 68.9173561,42.2887113 68.9173561,40.0695365 C68.9173561,37.8499171 67.8804192,35.8711936 66.2609083,34.5751564 C67.4899371,33.5915726 69.0545647,33 70.7595499,33 Z" id="Combined-Shape" fill="#FFD2CA"></path>
                    <path d="M16.515579,39.8908332 C20.619968,39.891736 23.9463308,43.2554822 23.9467772,47.4074581 C23.9463308,51.5585312 20.619968,54.9222773 16.515579,54.9231802 C12.4102973,54.9222773 9.08438085,51.5585312 9.08393448,47.4074581 C9.08438085,43.2559336 12.4102973,39.891736 16.515579,39.8908332 Z M16.515579,42.1480779 C15.0755835,42.1485293 13.7833371,42.7349615 12.8383679,43.6884217 C11.896077,44.6441391 11.31624,45.9515353 11.3153472,47.4074581 C11.31624,48.8629295 11.8956306,50.1707771 12.8383679,51.1255916 C13.7833371,52.0790518 15.0755835,52.665484 16.515579,52.6659355 C17.9546818,52.665484 19.247821,52.0790518 20.1923437,51.1255916 C21.1346347,50.1707771 21.7144717,48.8629295 21.7153644,47.4074581 C21.7144717,45.9515353 21.1346347,44.6441391 20.1923437,43.6884217 C19.247821,42.7349615 17.9546818,42.1485293 16.515579,42.1480779 Z M81.8888755,10.0007482 L82.0035931,10.0107365 C82.0281435,10.0143481 82.0522476,10.0179597 82.0772444,10.0233771 C82.1665188,10.0418865 82.2549004,10.0680706 82.3397111,10.1096039 C82.3406038,10.1100553 82.3414966,10.1100553 82.3423893,10.1105068 L82.3423893,10.1105068 L82.4420976,10.1665993 L82.4420976,10.1665993 L82.5370074,10.2337523 L86.9435901,13.6999773 C87.4301354,14.082806 87.5176242,14.7920323 87.1395473,15.2841117 C86.761024,15.7757396 86.0602202,15.864675 85.5736749,15.4818463 L85.5736749,15.4818463 L82.9677562,13.4318167 L82.9682026,29.9417561 C82.9682026,30.5652071 82.4682662,31.0703785 81.852273,31.0703785 C81.2358335,31.0703785 80.7363435,30.5652071 80.7363435,29.9417561 L80.7363435,29.9417561 L80.7363435,13.4318167 L78.1304247,15.4818463 L78.0234385,15.5566853 C77.5454089,15.8499154 76.9160383,15.7406233 76.5645524,15.2841117 C76.1864754,14.7920323 76.2735179,14.082806 76.7605096,13.6999773 L76.7605096,13.6999773 L81.1670923,10.2337523 C81.1778052,10.2247233 81.1911964,10.2211118 81.202802,10.2129857 C81.2652941,10.1669379 81.3318035,10.1285647 81.4014375,10.0974147 C81.4228633,10.0879343 81.4433964,10.0770995 81.465715,10.0689735 C81.5500793,10.037372 81.6366754,10.0143481 81.7263962,10.0039648 C81.7424656,10.002159 81.7580886,10.0039648 81.774158,10.0026105 C81.8504875,9.99719307 81.9272635,10.0003532 82.0035931,10.0107365 Z M31.977051,16.7180941 C32.6533043,16.7180941 33.2010025,17.272022 33.2010025,17.9559671 C33.2010025,18.6399123 32.6533043,19.1938402 31.977051,19.1938402 C31.301244,19.1938402 30.7530994,18.6399123 30.7530994,17.9559671 C30.7530994,17.272022 31.301244,16.7180941 31.977051,16.7180941 Z M36.8732142,16.7180941 C37.5494676,16.7180941 38.0971658,17.272022 38.0971658,17.9559671 C38.0971658,18.6399123 37.5494676,19.1938402 36.8732142,19.1938402 C36.1974073,19.1938402 35.6492627,18.6399123 35.6492627,17.9559671 C35.6492627,17.272022 36.1974073,16.7180941 36.8732142,16.7180941 Z M41.7693329,16.7180941 C42.4455862,16.7180941 42.9932844,17.272022 42.9932844,17.9559671 C42.9932844,18.6399123 42.4455862,19.1938402 41.7693329,19.1938402 C41.093526,19.1938402 40.5453813,18.6399123 40.5453813,17.9559671 C40.5453813,17.272022 41.093526,16.7180941 41.7693329,16.7180941 Z M102.768498,29.8770635 L102.768498,43.2471755 C102.768498,43.8706265 103.267988,44.3757979 103.884428,44.3757979 C104.500421,44.3757979 105.000357,43.8706265 105.000357,43.2471755 L105.000357,29.8770635 C105.000357,29.2540639 104.500421,28.7484411 103.884428,28.7484411 C103.267988,28.7484411 102.768498,29.2540639 102.768498,29.8770635 Z M73.3875455,11.3802521 C74.0035387,11.3802521 74.5030287,11.8858749 74.5030287,12.5088744 C74.5030287,13.1323254 74.0035387,13.6374968 73.3875455,13.6374968 L73.3875455,13.6374968 L30.02654,13.6374968 C29.1119241,13.6383997 28.2941709,14.0094907 27.6938008,14.6148838 C27.0947698,15.2220826 26.7282986,16.0491371 26.7274058,16.9737045 L26.7274058,16.9737045 L26.7274058,22.469644 L77.2687486,22.469644 C77.8847417,22.469644 78.3846781,22.9752668 78.3846781,23.5982664 C78.3846781,24.2217174 77.8847417,24.7268887 77.2687486,24.7268887 L77.2687486,24.7268887 L26.7274058,24.7268887 L26.7274058,34.4777345 C26.7640083,34.5097874 26.8050745,34.5350686 26.8398915,34.5702816 L26.8398915,34.5702816 L29.2083404,36.9652182 C29.9328019,37.6979199 30.0702844,38.8360227 29.5426729,39.7244742 L29.5426729,39.7244742 L28.8061594,40.9627987 L29.7533604,43.2737658 L31.1411304,43.6231873 C32.1356469,43.8741929 32.8337724,44.7775423 32.8337724,45.8136176 L32.8337724,45.8136176 L32.8337724,49.1999362 C32.8337724,50.2364629 32.1356469,51.1398123 31.1415768,51.389915 L31.1415768,51.389915 L29.7533604,51.7402394 L28.8061594,54.0507551 L29.5431193,55.289531 C30.0702844,56.1779825 29.9328019,57.3151824 29.2083404,58.0483355 L29.2083404,58.0483355 L26.8398915,60.4432722 C26.8050745,60.4784852 26.7640083,60.5037664 26.7274058,60.5362707 L26.7274058,60.5362707 L26.7274058,75.4065475 C26.7282986,76.3315664 27.0952162,77.1586209 27.6938008,77.7658197 C28.2941709,78.3712128 29.1119241,78.7423038 30.02654,78.7427553 L30.02654,78.7427553 L92.3712929,78.7427553 C93.2854624,78.7423038 94.1032156,78.3712128 94.7031394,77.7658197 C95.301724,77.1586209 95.6686416,76.3315664 95.6695344,75.4065475 L95.6695344,75.4065475 L95.6695344,24.7268887 L86.2435005,24.7268887 C85.627061,24.7268887 85.1275709,24.2217174 85.1275709,23.5982664 C85.1275709,22.9752668 85.627061,22.469644 86.2435005,22.469644 L86.2435005,22.469644 L95.6695344,22.469644 L95.6695344,16.9737045 C95.6686416,16.0491371 95.3021703,15.2220826 94.7031394,14.6148838 C94.1032156,14.0094907 93.2854624,13.6383997 92.3712929,13.6374968 L92.3712929,13.6374968 L89.889912,13.6374968 C89.2734725,13.6374968 88.7739824,13.1323254 88.7739824,12.5088744 C88.7739824,11.8858749 89.2734725,11.3802521 89.889912,11.3802521 L89.889912,11.3802521 L92.3712929,11.3802521 C95.425369,11.381155 97.9009471,13.8844394 97.9009471,16.9737045 L97.9009471,16.9737045 L97.9009471,75.4065475 C97.9009471,78.4962641 95.425369,81 92.3712929,81 L92.3712929,81 L30.02654,81 C26.9715712,81 24.4964394,78.4962641 24.4959931,75.4065475 L24.4959931,75.4065475 L24.4959931,60.9628899 C24.3647598,60.9141334 24.2348656,60.8572509 24.1116669,60.7818589 L24.1116669,60.7818589 L22.8877154,60.037871 L20.6022916,60.9953943 L20.2563535,62.3984976 C20.0086171,63.4047773 19.1158734,64.110392 18.0910037,64.110392 L18.0910037,64.110392 L14.743215,64.110392 C13.717899,64.110392 12.8251553,63.4047773 12.5774189,62.3984976 L12.5774189,62.3984976 L12.2314808,60.9953943 L9.94605703,60.037871 L8.72210548,60.7818589 C8.36500802,60.9990058 7.96773709,61.1046449 7.57269803,61.1046449 C6.99553926,61.1046449 6.42418332,60.8789204 5.99388088,60.4432722 L5.99388088,60.4432722 L3.62543197,58.0483355 C2.9009705,57.3151824 2.76348797,56.1779825 3.2906531,55.289531 L3.2906531,55.289531 L4.02761299,54.0507551 L3.08041197,51.7402394 L1.69219559,51.389915 C0.698125536,51.1398123 0,50.2364629 0,49.1999362 L0,49.1999362 L0,45.8136176 C0,44.7775423 0.698125536,43.8741929 1.69264196,43.6231873 L1.69264196,43.6231873 L3.08041197,43.2737658 L4.02761299,40.9627987 L3.29109947,39.7244742 C2.76348797,38.8360227 2.9009705,37.6979199 3.62543197,36.9652182 L3.62543197,36.9652182 L5.99388088,34.5702816 C6.42418332,34.1350848 6.99553926,33.9093603 7.57269803,33.9093603 C7.96773709,33.9093603 8.36500802,34.0149994 8.72210548,34.2321463 L8.72210548,34.2321463 L9.94605703,34.9761342 L12.2314808,34.018611 L12.5774189,32.6150562 C12.8251553,31.6092279 13.717899,30.9036132 14.743215,30.9036132 L14.743215,30.9036132 L18.0910037,30.9036132 C19.1158734,30.9036132 20.0086171,31.6092279 20.2563535,32.6150562 L20.2563535,32.6150562 L20.6022916,34.018611 L22.8877154,34.9761342 L24.1116669,34.2321463 C24.2348656,34.1572058 24.3643134,34.1003232 24.4959931,34.0515667 L24.4959931,34.0515667 L24.4959931,16.9737045 C24.4964394,13.8844394 26.9715712,11.381155 30.02654,11.3802521 L30.02654,11.3802521 Z M61.8121421,51.1868533 C70.2325002,51.1877562 77.0570791,58.0895077 77.0579718,66.6056406 C77.0579718,67.2223199 76.5691946,67.7243311 75.9594507,67.734263 C69.1500485,67.8439651 63.658336,67.8994933 59.0758828,67.8994933 L58.3597528,67.8990319 C54.1075307,67.8934957 50.6509435,67.8381438 47.6438539,67.7333601 C47.041252,67.7125934 46.5667587,67.2155481 46.5667587,66.6056406 C46.5672051,58.0895077 53.391784,51.1877562 61.8121421,51.1868533 Z M61.8121421,53.444098 C58.2143852,53.4445495 54.9688156,54.9153701 52.6097405,57.2990206 C50.4917062,59.4434031 49.1061681,62.313264 48.8459333,65.5135856 C51.7286025,65.5993609 55.0442525,65.6422486 59.0758828,65.6422486 C63.381139,65.6422486 68.5019166,65.5934921 74.7765654,65.4955276 C74.5123133,62.3024292 73.1285606,59.4388886 71.0145436,57.2990206 C68.6554685,54.9153701 65.4094526,53.4445495 61.8121421,53.444098 Z M18.0910037,33.160858 L14.743215,33.160858 L14.2200673,35.282668 C14.1606998,35.5250961 13.9906321,35.7246365 13.7620898,35.8203437 L13.7620898,35.8203437 L10.1241594,37.3448868 C10.0281894,37.3855172 9.92686304,37.405381 9.82598301,37.405381 C9.68626862,37.405381 9.54744699,37.3674593 9.42469473,37.2925187 L9.42469473,37.2925187 L7.57225166,36.1666051 L5.20380275,38.5610903 L6.31794683,40.4350549 C6.4451628,40.6490417 6.46435678,40.9117849 6.36927959,41.1424754 L6.36927959,41.1424754 L4.86188193,44.8222357 C4.7672511,45.0529261 4.56995475,45.2244767 4.32980671,45.2849709 L4.32980671,45.2849709 L2.23185913,45.8136176 L2.23185913,49.1999362 L4.32980671,49.7290343 C4.56995475,49.7895285 4.7672511,49.9606276 4.86188193,50.1917695 L4.86188193,50.1917695 L6.36927959,53.8710784 C6.46435678,54.1017688 6.4451628,54.3645121 6.31750045,54.5789504 L6.31750045,54.5789504 L5.20380275,56.4520121 L7.57225166,58.8474002 L9.42424836,57.7214865 C9.54744699,57.646546 9.68626862,57.6086243 9.82598301,57.6086243 C9.92686304,57.6086243 10.0281894,57.628488 10.1241594,57.668667 L10.1241594,57.668667 L13.7620898,59.1936615 C13.9906321,59.2893687 14.1606998,59.4884577 14.2200673,59.7313372 L14.2200673,59.7313372 L14.743215,61.8531473 L18.0910037,61.8531473 L18.6137051,59.7313372 C18.6730726,59.4884577 18.8431403,59.2893687 19.0716826,59.1936615 L19.0716826,59.1936615 L22.709613,57.668667 C22.805583,57.628488 22.9069094,57.6086243 23.0077894,57.6086243 C23.1475038,57.6086243 23.2863254,57.646546 23.409524,57.7214865 L23.409524,57.7214865 L25.2615208,58.8474002 L27.6299697,56.4520121 L26.5167183,54.5789504 C26.3886096,54.3645121 26.3694156,54.1017688 26.4644928,53.8710784 L26.4644928,53.8710784 L27.9718905,50.1917695 C28.0665213,49.9606276 28.264264,49.7895285 28.5039657,49.7290343 L28.5039657,49.7290343 L30.6019133,49.1999362 L30.6019133,45.8136176 L28.5039657,45.2849709 C28.264264,45.2244767 28.0665213,45.0529261 27.9718905,44.8222357 L27.9718905,44.8222357 L26.4644928,41.1424754 C26.3694156,40.9117849 26.3886096,40.6490417 26.516272,40.4350549 L26.516272,40.4350549 L27.6299697,38.5610903 L25.3548125,36.2609579 C25.2985696,36.2474144 25.2432195,36.2311623 25.190994,36.2094927 L25.190994,36.2094927 L23.409524,37.2925187 C23.2863254,37.3674593 23.1475038,37.405381 23.0077894,37.405381 C22.9069094,37.405381 22.805583,37.3855172 22.709613,37.3448868 L22.709613,37.3448868 L19.0716826,35.8203437 C18.8431403,35.7246365 18.6730726,35.5250961 18.6137051,35.282668 L18.6137051,35.282668 L18.0910037,33.160858 Z M103.884428,47.4782905 C104.500421,47.4782905 105.000357,47.9834618 105.000357,48.6069128 L105.000357,48.6069128 L105.000357,53.0636168 C105.000357,53.6870678 104.500421,54.1922392 103.884428,54.1922392 C103.267988,54.1922392 102.768498,53.6870678 102.768498,53.0636168 L102.768498,53.0636168 L102.768498,48.6069128 C102.768498,47.9834618 103.267988,47.4782905 103.884428,47.4782905 Z M61.8120082,31.0269491 C66.3493778,31.027852 70.0270353,34.746437 70.027928,39.335867 C70.0270353,43.9248455 66.3493778,47.6434305 61.8120082,47.6443334 C57.2741922,47.6434305 53.5974275,43.9248455 53.5965347,39.335867 C53.5974275,34.746437 57.2741922,31.027852 61.8120082,31.0269491 Z M61.8120082,33.2841938 C60.1559687,33.2846453 58.6668723,33.9595614 57.5808496,35.0565824 C56.4961661,36.1554091 55.8288402,37.6609914 55.8283938,39.335867 C55.8288402,41.0102911 56.4961661,42.5158733 57.5808496,43.6151515 C58.6668723,44.711721 60.1559687,45.3866372 61.8120082,45.3870886 C63.4680476,45.3866372 64.9566977,44.711721 66.0431667,43.6151515 C67.1278502,42.5158733 67.7951761,41.0102911 67.7960689,39.335867 C67.7951761,37.6609914 67.1278502,36.1554091 66.0431667,35.0565824 C64.9566977,33.9595614 63.4680476,33.2846453 61.8120082,33.2841938 Z" id="Combined-Shape" fill="#2075B5"></path>
                </g>
            </g>
        </g>
    </g>
</svg>