<?xml version="1.0" encoding="UTF-8"?>
<svg width="108px" height="95px" viewBox="0 0 108 95" version="1.1" xmlns="http://www.w3.org/2000/svg" xmlns:xlink="http://www.w3.org/1999/xlink">
    <title>icon_simple</title>
    <g id="medical-3" stroke="none" stroke-width="1" fill="none" fill-rule="evenodd">
        <g id="1" transform="translate(-999.000000, -1278.000000)">
            <g id="3" transform="translate(253.000000, 1037.000000)">
                <g id="icon_simple" transform="translate(746.000000, 241.000000)">
                    <rect id="Rectangle-Copy-43" fill-opacity="0.06" fill="#0091FF" x="12.4366557" y="0" width="70.9611172" height="64.1566265" rx="7.19621036"></rect>
                    <rect id="Rectangle" fill="#FFF5E6" x="1" y="43" width="60" height="52" rx="5"></rect>
                    <path d="M44,16 L94,16 C96.7614237,16 99,18.2385763 99,21 L99,50.8275281 L99,50.8275281 C94.863823,49.0948634 92.7957345,49.346678 92.7957345,51.5829717 C92.7957345,52.7477012 91.4077082,51.2794347 92.5297046,54.1998122 C92.65665,54.5302306 83.602883,53.1656236 84.6560327,55.4125835 C84.7877418,55.6935931 84.6560327,58.5 84.6560327,61.8178111 C84.6560327,61.8184929 82.1991721,61.2345462 80.1932292,63.5415223 C80.1604868,63.5791783 80.1226133,63.69042 80.0796086,63.8752473 C79.5557423,66.1267007 77.5568212,67.7255507 75.2452832,67.7420043 L44.0355893,67.9641564 C41.2742355,67.9838119 39.0197821,65.7612262 39.0001267,62.9998724 C39.0000422,62.9880095 39,62.9761463 39,62.9642831 L39,21 C39,18.2385763 41.2385763,16 44,16 Z" id="Rectangle-Copy-41" fill="#FFF5E6"></path>
                    <rect id="Rectangle" fill="#FFFFFF" x="11" y="78" width="42" height="8" rx="4"></rect>
                    <path d="M25.6450617,78.3193277 L25.6450617,85 L14.3796296,85 C12.5127222,85 11,83.5044202 11,81.6596639 C11,79.8149076 12.5127222,78.3193277 14.3796296,78.3193277 L14.3796296,78.3193277 L25.6450617,78.3193277 Z M65.2074309,30.8891497 C68.2464705,30.8891497 81.8747788,34.0659467 81.4945158,47.6812593 C81.1142528,61.296572 66.5538543,64.1882484 66.1352308,64.1566265 L66.1352308,64.1566265 L66.2848827,68.5210084 L61.4691358,68.0756303 L61.4979753,63.3635294 C60.5525802,62.9925294 59.6463889,62.5449244 58.7960741,62.0149244 C59.675679,62.1792689 60.5800679,62.2696807 61.5047346,62.2812605 L61.5047346,62.2812605 L61.5083395,61.7085042 L66.2848827,60.7950336 L66.2848827,61.6042857 C72.6300247,59.6686723 77.2407407,53.8266471 77.2407407,46.9201681 C77.2407407,39.8324202 72.3844383,33.8692521 65.7815432,32.0948655 C66.3632901,32.0334034 64.6090111,30.8891497 65.2074309,30.8891497 Z" id="Combined-Shape" fill="#FFDEB0"></path>
                    <circle id="Oval" fill="#FFFFFF" cx="61.5" cy="46.5" r="14.5"></circle>
                    <path d="M25.6627439,84.9809607 L25.6627439,78.2215398 L25.6627439,84.9809607 Z M56.7366363,41.9671604 L66.1352308,51.3884413 M95.7148874,15 C98.4188883,15.0009013 100.609961,17.1968118 100.61041,19.9077902 L100.61041,19.9077902 L100.61086,53.3385342 L106.073256,53.3385342 C106.601469,53.3380836 107.090572,53.5566382 107.435821,53.904523 C107.782418,54.2506054 108,54.7408887 108,55.2703767 L108,55.2703767 L108,63.0351488 C108,63.5650874 107.782868,64.0549201 107.435821,64.4014531 C107.090572,64.749338 106.601469,64.9678926 106.073256,64.9669913 L106.073256,64.9669913 L103.491081,64.9669913 C103.308567,64.967442 103.151676,65.0386412 103.028502,65.1598601 C102.908024,65.2828816 102.836996,65.4406014 102.836097,65.6231058 C102.836996,65.8060608 102.908024,65.9637806 103.028502,66.0863514 C103.151676,66.2075704 103.308567,66.2787696 103.491081,66.2792202 L103.491081,66.2792202 L106.073256,66.2792202 C106.601469,66.2787696 107.090572,66.4973242 107.435821,66.8452091 C107.782868,67.1917421 108,67.6815748 108,68.2115134 L108,68.2115134 L108,75.9758349 C108,76.5057735 107.782418,76.9956062 107.435821,77.3416885 C107.090572,77.6895734 106.601469,77.9085786 106.073256,77.9076774 L106.073256,77.9076774 L98.3271815,77.9076774 C97.7980695,77.9085786 97.3089667,77.6895734 96.9641673,77.3416885 C96.6171201,76.9956062 96.3990918,76.5057735 96.3999909,75.9758349 L96.3999909,75.9758349 L96.3999909,73.3878779 C96.3990918,73.2053735 96.3285135,73.0476537 96.2071369,72.9246323 C96.0848613,72.8029627 95.9270717,72.7317634 95.7454563,72.7313128 C95.5629419,72.7317634 95.4056019,72.8029627 95.2833262,72.9241816 C95.1619496,73.0472031 95.0913713,73.2049229 95.0904722,73.3878779 L95.0904722,73.3878779 L95.0904722,75.9758349 C95.0913713,76.5062241 94.873343,76.9960568 94.5258463,77.3421391 C94.1810469,77.6895734 93.6923937,77.9085786 93.1637311,77.9076774 L93.1637311,77.9076774 L85.4176565,77.9076774 C84.888994,77.9085786 84.4003408,77.690024 84.0546423,77.3421391 C83.7080447,76.9965074 83.4891173,76.5062241 83.4900163,75.9758349 L83.4900163,75.9758349 L83.4895668,70.1433559 L82.8354818,70.1433559 C81.6644224,70.1438065 80.5931615,69.6868696 79.7934246,68.9505434 L79.7934246,68.9505434 L62.1654968,68.9505434 L62.1654968,90.0917589 C62.1663959,91.4436431 61.6157058,92.6779133 60.7310053,93.5624962 C59.8485524,94.4488816 58.6177038,95 57.2695245,95 L57.2695245,95 L4.8959723,95 C2.1915219,94.9990985 0,92.8031879 0,90.0917589 L0,90.0917589 L0,45.9567959 C0,43.2462681 2.1915219,41.049907 4.8959723,41.0490057 L4.8959723,41.0490057 L37.5458274,41.0490057 L37.5458274,19.9077902 C37.546277,17.1968118 39.7373493,15.0009013 42.4422493,15 L42.4422493,15 Z M47.0329819,53.3935108 L2.24726522,53.3935108 L2.24726522,90.0917589 C2.24816431,90.8289864 2.5421654,91.4855515 3.02272682,91.9690754 C3.50553595,92.451698 4.16052003,92.7464088 4.8959723,92.7468594 L4.8959723,92.7468594 L57.2695245,92.7468594 C58.0040777,92.7464088 58.6590618,92.451698 59.1418709,91.9690754 C59.6228819,91.4855515 59.9173325,90.8285358 59.9182316,90.0917589 L59.9182316,90.0917589 L59.9182316,62.3772319 C54.2283664,61.8459414 49.4056696,58.3247337 47.0329819,53.3935108 L47.0329819,53.3935108 Z M49.1620174,77.0950144 C50.3996091,77.0945641 51.5306592,77.6015207 52.340286,78.4149043 C53.1521606,79.2269361 53.6578964,80.3607163 53.6569985,81.6012953 C53.6578964,82.842325 53.1521606,83.9761052 52.340286,84.7876863 C51.5306592,85.6015206 50.3996091,86.1080266 49.1620174,86.1075762 L49.1620174,86.1075762 L14.097667,86.1075762 C12.8596257,86.1080266 11.7281261,85.6015206 10.9189488,84.7876863 C10.1066247,83.9761052 9.60133839,82.8418744 9.60223628,81.6012953 C9.60133839,80.3607163 10.1066247,79.2269361 10.9189488,78.4149043 C11.7281261,77.6015207 12.8596257,77.0945641 14.097667,77.0950144 L14.097667,77.0950144 Z M49.1620174,79.348155 L26.7869159,79.348155 L26.7869159,83.8544356 L49.1620174,83.8544356 C49.785983,83.853985 50.340719,83.6038864 50.7511517,83.1947162 C51.1593367,82.7832927 51.408833,82.2272177 51.4097321,81.6012953 C51.408833,80.9758236 51.1593367,80.4192979 50.7511517,80.0083251 C50.340719,79.5987042 49.785983,79.3486056 49.1620174,79.348155 L49.1620174,79.348155 Z M24.5392012,79.348155 L14.097667,79.348155 C13.4728023,79.3486056 12.9185158,79.5987042 12.5080831,80.0083251 C12.0998981,80.4192979 11.8504018,80.9753729 11.8495027,81.6012953 C11.8504018,82.2272177 12.0998981,82.7832927 12.5080831,83.1947162 C12.9185158,83.6038864 13.4728023,83.853985 14.097667,83.8544356 L14.097667,83.8544356 L24.5392012,83.8544356 L24.5392012,79.348155 Z M95.7454563,50.41531 C95.1196925,50.4157606 94.5609106,50.6676617 94.1468816,51.0808876 C93.7351002,51.4954654 93.4842553,52.0560467 93.4833562,52.6824197 L93.4833562,52.6824197 L93.4833562,54.4651044 C93.4833562,54.7616176 93.3637778,55.0522727 93.1542907,55.2618148 C92.9448037,55.4718074 92.6557476,55.5916745 92.3599483,55.5916745 L92.3599483,55.5916745 L85.7372816,55.5916745 L85.7372816,62.2294258 C85.7372816,62.5259391 85.6181527,62.8165942 85.4086657,63.0261363 C85.1991786,63.2361289 84.909673,63.355996 84.6138737,63.355996 L84.6138737,63.355996 L82.8354818,63.355996 C82.2101676,63.3564466 81.6509361,63.6083477 81.2378061,64.021123 C80.8260248,64.4361515 80.5747303,64.9962821 80.5738312,65.6235564 C80.5747303,66.25038 80.8255753,66.8105107 81.2378061,67.2255392 C81.6509361,67.6383145 82.2101676,67.8897649 82.8354818,67.8902156 L82.8354818,67.8902156 L84.6138737,67.8902156 C84.909673,67.8902156 85.1991786,68.0105332 85.4086657,68.2205259 C85.6181527,68.4305186 85.7372816,68.7202724 85.7372816,69.0167857 L85.7372816,69.0167857 L85.7372816,75.6545371 L92.843207,75.6545371 L92.843207,73.3878779 C92.8423079,72.5875625 93.1704743,71.85394 93.6937423,71.3312114 C94.2152121,70.8066804 94.947068,70.4777219 95.7454563,70.4781725 C96.5433951,70.4777219 97.275251,70.8066804 97.7962713,71.3312114 C98.3199888,71.85394 98.6481552,72.5875625 98.6472561,73.3878779 L98.6472561,73.3878779 L98.6472561,75.6545371 L105.752732,75.6545371 L105.752732,68.5323605 L103.491081,68.5323605 C102.692693,68.5328112 101.960837,68.2043033 101.439367,67.6797723 C100.916099,67.1570437 100.587933,66.4234212 100.588832,65.6231058 C100.587933,64.823241 100.916549,64.0891679 101.439367,63.5668899 C101.960837,63.0423589 102.692693,62.7134004 103.491081,62.713851 L103.491081,62.713851 L105.752732,62.713851 L105.752732,55.5916745 L99.1305148,55.5916745 C98.834266,55.5916745 98.5452098,55.4718074 98.3357228,55.2618148 C98.1266854,55.0522727 98.0066574,54.7620682 98.0066574,54.4651044 L98.0066574,54.4651044 L98.0066574,52.6824197 C98.0057583,52.0555961 97.7549133,51.4950148 97.343132,51.0808876 C96.9295525,50.6676617 96.3707706,50.4157606 95.7454563,50.41531 Z M22.4698201,60.0379315 C23.2655111,60.0379315 23.9398256,60.1726693 24.4909652,60.4416942 C25.0425544,60.7107192 25.4552349,61.0617584 25.7281074,61.4943614 C26.0014295,61.9269643 26.1380906,62.3884074 26.1380906,62.8786908 C26.1380906,63.4171913 26.0135672,63.8763813 25.7640709,64.2558101 C25.5150241,64.6356896 25.1504447,64.9263447 24.6712319,65.128226 C25.8117224,65.6378864 26.3821924,66.4981353 26.3821924,67.7094236 C26.3821924,68.4015883 26.210467,68.9955161 25.865218,69.4903057 C25.51907,69.9855459 25.0519948,70.3604685 24.4621945,70.6150733 C23.8719446,70.8696782 23.2084192,70.9972059 22.4698201,70.9972059 C21.741111,70.9972059 21.0793838,70.8696782 20.4846384,70.6150733 C19.8903426,70.3604685 19.4196712,69.9855459 19.0748717,69.4903057 C18.7296227,68.9955161 18.5565487,68.4015883 18.5565487,67.7094236 C18.5565487,66.4981353 19.1274682,65.6378864 20.2688578,65.128226 C19.7891955,64.9263447 19.4250657,64.6356896 19.1755693,64.2558101 C18.926073,63.8763813 18.8015496,63.4171913 18.8015496,62.8786908 C18.8015496,62.3884074 18.9404584,61.9269643 19.2187255,61.4943614 C19.4969926,61.0617584 19.9114712,60.7107192 20.4626108,60.4416942 C21.0142,60.1726693 21.6831199,60.0379315 22.4698201,60.0379315 Z M45.1992513,66.0656225 C45.90863,66.0656225 46.4835955,66.2769671 46.9254962,66.7001068 C47.3660483,67.1232466 47.5863243,67.7189769 47.5863243,68.488199 C47.5863243,69.2574211 47.3660483,69.8558552 46.9254962,70.2835012 C46.4835955,70.7115978 45.90863,70.9251955 45.1992513,70.9251955 C44.4984138,70.9251955 43.9261456,70.7115978 43.4797495,70.2835012 C43.0338029,69.8558552 42.8108296,69.2574211 42.8108296,68.488199 C42.8108296,67.7189769 43.0338029,67.1232466 43.4797495,66.7001068 C43.9261456,66.2769671 44.4984138,66.0656225 45.1992513,66.0656225 Z M46.1343905,60.5571001 L40.5807369,70.7809495 L38.2075996,70.7809495 L43.7599046,60.5571001 L46.1343905,60.5571001 Z M31.7629069,60.4129441 C33.1623341,60.4129441 34.1859434,60.8766404 34.8341844,61.8044836 C35.4810767,62.7323268 35.8051971,63.9891284 35.8051971,65.5753392 C35.8051971,67.1710132 35.4810767,68.4354755 34.8341844,69.367825 C34.1859434,70.3001744 33.1623341,70.7665745 31.7629069,70.7665745 C30.3526907,70.7665745 29.3263841,70.3001744 28.6844368,69.367825 C28.0420399,68.4354755 27.7206167,67.1710132 27.7206167,65.5753392 C27.7206167,63.9891284 28.0420399,62.7323268 28.6844368,61.8044836 C29.3263841,60.8766404 30.3526907,60.4129441 31.7629069,60.4129441 Z M45.1992513,67.5364725 C44.9587458,67.5364725 44.7717359,67.62074 44.6382217,67.7888242 C44.5038083,67.9569085 44.4359273,68.1903338 44.4359273,68.488199 C44.4359273,68.795978 44.5038083,69.0339096 44.6382217,69.2019938 C44.7717359,69.3705287 44.9587458,69.4543456 45.1992513,69.4543456 C45.4289677,69.4543456 45.6137299,69.3705287 45.7521891,69.2019938 C45.891997,69.0339096 45.9612266,68.795978 45.9612266,68.488199 C45.9612266,68.1903338 45.891997,67.9569085 45.7521891,67.7888242 C45.6137299,67.62074 45.4289677,67.5364725 45.1992513,67.5364725 Z M22.4698201,66.1808932 C22.018479,66.1808932 21.652551,66.303464 21.3697885,66.5486057 C21.0861269,66.7937474 20.9449704,67.1326197 20.9449704,67.5652226 C20.9449704,67.9978255 21.0816315,68.3394016 21.3549536,68.5890496 C21.6278262,68.8391481 22.0000477,68.9639721 22.4698201,68.9639721 C22.9395925,68.9639721 23.310915,68.8391481 23.5851362,68.5890496 C23.8580087,68.3394016 23.9951193,67.9978255 23.9951193,67.5652226 C23.9951193,67.1326197 23.8526142,66.7937474 23.5703013,66.5486057 C23.2875387,66.303464 22.9202621,66.1808932 22.4698201,66.1808932 Z M31.7629069,62.749 C31.1200605,62.749 30.6880497,62.9941417 30.4677736,63.484425 C30.2474976,63.9747083 30.13691,64.6718299 30.13691,65.5753392 C30.13691,66.4887623 30.2474976,67.1926433 30.4677736,67.6878836 C30.6880497,68.1831238 31.1200605,68.4305186 31.7629069,68.4305186 C32.3958634,68.4305186 32.8197824,68.1831238 33.0360125,67.6878836 C33.2517932,67.1926433 33.3592339,66.4887623 33.3592339,65.5753392 C33.3592339,64.6619161 33.2517932,63.962992 33.0360125,63.477215 C32.8197824,62.9918885 32.3958634,62.749 31.7629069,62.749 Z M98.3631449,27.3440545 L39.7930927,27.3440545 L39.7930927,41.0490057 L46.3919337,41.0490057 C48.6027859,34.8735988 54.4926977,30.4556412 61.4152096,30.4551906 C70.2289488,30.4560919 77.3730854,37.6170224 77.3735349,46.4524868 C77.3730854,55.0355995 70.6308402,62.0370077 62.1654968,62.4308566 L62.1654968,62.4308566 L62.1654968,66.6974031 L78.4605298,66.6974031 C78.3760157,66.352222 78.3261164,65.993522 78.326566,65.6235564 C78.3256669,64.3789217 78.8341,63.2424377 79.6477727,62.4281528 C80.4600968,61.6120654 81.5938442,61.1024051 82.8354818,61.1028557 L82.8354818,61.1028557 L83.4900163,61.1028557 L83.4900163,55.2703767 C83.4891173,54.7404381 83.7080447,54.2501548 84.0546423,53.904523 C84.4003408,53.5566382 84.888994,53.3380836 85.4176565,53.3385342 L85.4176565,53.3385342 L91.236091,53.3385342 L91.236091,52.6824197 C91.2351919,51.4382357 91.743625,50.3017517 92.5577472,49.4874668 C93.3700714,48.6713794 94.5038187,48.161719 95.7454563,48.1621697 C96.7196159,48.1621697 97.6249954,48.4794118 98.3631449,49.0084492 L98.3631449,49.0084492 L98.3631449,27.3440545 Z M39.1564949,60.412854 C39.8573324,60.412854 40.4296005,60.6246492 40.8759967,61.0473383 C41.3219433,61.4704781 41.5449166,62.066659 41.5449166,62.8354305 C41.5449166,63.6046526 41.3219433,64.2008335 40.8759967,64.6235226 C40.4296005,65.0466624 39.8573324,65.2580069 39.1564949,65.2580069 C38.4376757,65.2580069 37.8555176,65.0466624 37.409571,64.6235226 C36.9631748,64.2008335 36.7402015,63.6046526 36.7402015,62.8354305 C36.7402015,62.066659 36.9631748,61.4704781 37.409571,61.0473383 C37.8555176,60.6246492 38.4376757,60.412854 39.1564949,60.412854 Z M22.4698201,62.0567452 C22.0958004,62.0567452 21.7937075,62.1675997 21.5639911,62.3884074 C21.3338251,62.6096658 21.217843,62.9124879 21.217843,63.2968736 C21.217843,63.6911732 21.3311278,63.9917421 21.5567984,64.1981297 C21.7815698,64.404968 22.08636,64.5081618 22.4698201,64.5081618 C22.8537298,64.5081618 23.1585199,64.404968 23.3832914,64.1981297 C23.6085124,63.9917421 23.7208981,63.6911732 23.7208981,63.2968736 C23.7208981,62.9124879 23.6062647,62.6096658 23.3760987,62.3884074 C23.1459327,62.1675997 22.8438398,62.0567452 22.4698201,62.0567452 Z M39.1286232,61.883704 C38.8975582,61.883704 38.7159428,61.9679714 38.5815295,62.1360557 C38.4471161,62.3045906 38.3805838,62.5375653 38.3805838,62.8354305 C38.3805838,63.1332956 38.4471161,63.366721 38.5815295,63.5348052 C38.7159428,63.7033401 38.8975582,63.7871569 39.1286232,63.7871569 C39.3673305,63.7871569 39.5597349,63.7033401 39.7035887,63.5348052 C39.8474424,63.366721 39.9198188,63.1332956 39.9198188,62.8354305 C39.9198188,62.5375653 39.8474424,62.3045906 39.7035887,62.1360557 C39.5597349,61.9679714 39.3673305,61.883704 39.1286232,61.883704 Z M61.4152096,32.7083309 C57.625113,32.7087816 54.2045407,34.2449726 51.7194672,36.7337914 C49.2366415,39.2244127 47.7045991,42.6532416 47.7037,46.4524868 C47.7041496,48.2685179 48.0579399,49.998479 48.6949422,51.5833379 C48.8077775,51.7306933 48.8846494,51.9050863 48.9138696,52.0970539 C49.6007713,53.6224299 50.5538023,55.0009011 51.7194672,56.1707316 C54.2045407,58.660001 57.625113,60.196192 61.4152096,60.1966427 C65.2044072,60.196192 68.6254291,58.660001 71.110053,56.1707316 C73.5933282,53.6801103 75.1253706,50.2512814 75.1262697,46.4524868 C75.1253706,42.6532416 73.5933282,39.2244127 71.110053,36.7337914 C68.6254291,34.2449726 65.2044072,32.7087816 61.4152096,32.7083309 Z M65.340349,41.1706302 C65.7791029,40.7308172 66.4907294,40.7308172 66.9299328,41.1706302 C67.3686868,41.6108938 67.3686868,42.3237874 66.9299328,42.7640511 L66.9299328,42.7640511 L63.0247532,46.6777558 L66.9299328,50.5919111 C67.3686868,51.0317241 67.3686868,51.7450683 66.9299328,52.1853319 C66.4907294,52.6251449 65.7791029,52.6251449 65.340349,52.1853319 L65.340349,52.1853319 L61.4356189,48.2711766 L57.5313383,52.1853319 C57.0921349,52.6251449 56.3805084,52.6251449 55.9417544,52.1853319 C55.5030005,51.7450683 55.5030005,51.0317241 55.9417544,50.5919111 L55.9417544,50.5919111 L59.8464845,46.6777558 L55.9417544,42.7640511 C55.5030005,42.3237874 55.5030005,41.6108938 55.9417544,41.1706302 C56.3805084,40.7308172 57.0921349,40.7308172 57.5313383,41.1706302 L57.5313383,41.1706302 L61.4356189,45.0847856 Z M45.7675185,43.302146 L4.8959723,43.302146 C4.16052003,43.3030473 3.50553595,43.597758 3.02272682,44.0799301 C2.5421654,44.5639046 2.24816431,45.2204697 2.24726522,45.9567959 L2.24726522,45.9567959 L2.24726522,51.1403705 L46.154575,51.1403705 C45.7018852,49.6578042 45.4564348,48.0837604 45.4564348,46.4524868 C45.4564348,45.3736832 45.5643251,44.3210161 45.7675185,43.302146 L45.7675185,43.302146 Z M11.9127084,46.4566776 C12.5335273,46.4566776 13.0365658,46.9609304 13.0365658,47.5832478 C13.0365658,48.2051145 12.5335273,48.7098179 11.9127084,48.7098179 C11.2918896,48.7098179 10.7888511,48.2051145 10.7888511,47.5832478 C10.7888511,46.9609304 11.2918896,46.4566776 11.9127084,46.4566776 Z M16.408138,46.4566776 C17.0289568,46.4566776 17.5319954,46.9609304 17.5319954,47.5832478 C17.5319954,48.2051145 17.0289568,48.7098179 16.408138,48.7098179 C15.7873192,48.7098179 15.2842806,48.2051145 15.2842806,47.5832478 C15.2842806,46.9609304 15.7873192,46.4566776 16.408138,46.4566776 Z M7.41727891,46.4566776 C8.03809773,46.4566776 8.54113629,46.9609304 8.54113629,47.5832478 C8.54113629,48.2051145 8.03809773,48.7098179 7.41727891,48.7098179 C6.79646009,48.7098179 6.29342153,48.2051145 6.29342153,47.5832478 C6.29342153,46.9609304 6.79646009,46.4566776 7.41727891,46.4566776 Z M95.7148874,17.2531403 L42.4422493,17.2531403 C41.706797,17.2535909 41.0518129,17.5483017 40.5690038,18.0304737 C40.0879928,18.5144483 39.7939918,19.171464 39.7930927,19.9077902 L39.7930927,19.9077902 L39.7930927,25.0909142 L98.3631449,25.0909142 L98.3631449,19.9077902 C98.3622459,19.171464 98.0682448,18.5144483 97.5876833,18.0304737 C97.1044247,17.5483017 96.4494406,17.2535909 95.7148874,17.2531403 L95.7148874,17.2531403 Z M49.0092177,19.9567735 C49.6300365,19.9567735 50.1330751,20.4610263 50.1330751,21.0833436 C50.1330751,21.7052104 49.6300365,22.2099138 49.0092177,22.2099138 C48.3883989,22.2099138 47.8853603,21.7052104 47.8853603,21.0833436 C47.8853603,20.4610263 48.3883989,19.9567735 49.0092177,19.9567735 Z M44.5137882,19.9567735 C45.134607,19.9567735 45.6376456,20.4610263 45.6376456,21.0833436 C45.6376456,21.7052104 45.134607,22.2099138 44.5137882,22.2099138 C43.8929694,22.2099138 43.3899308,21.7052104 43.3899308,21.0833436 C43.3899308,20.4610263 43.8929694,19.9567735 44.5137882,19.9567735 Z M53.5046472,19.9567735 C54.1254661,19.9567735 54.6285046,20.4610263 54.6285046,21.0833436 C54.6285046,21.7052104 54.1254661,22.2099138 53.5046472,22.2099138 C52.8838284,22.2099138 52.3807899,21.7052104 52.3807899,21.0833436 C52.3807899,20.4610263 52.8838284,19.9567735 53.5046472,19.9567735 Z" id="Combined-Shape" fill="#2075B5"></path>
                </g>
            </g>
        </g>
    </g>
</svg>