<?xml version="1.0" encoding="UTF-8"?>
<svg width="61px" height="58px" viewBox="0 0 61 58" version="1.1" xmlns="http://www.w3.org/2000/svg" xmlns:xlink="http://www.w3.org/1999/xlink">
    <title>icon_up</title>
    <defs>
        <path d="M2.0587042,15.5257499 L19.8120496,0.543119419 C20.1839392,0.229269553 20.7277639,0.228689314 21.1003224,0.541744885 L38.894537,15.4939676 C39.3173646,15.8492636 39.3721098,16.4800574 39.0168138,16.902885 C38.8265154,17.1293538 38.5457162,17.2599505 38.2499098,17.2595639 L32.2907806,17.2517761 C31.7384963,17.2510543 31.2901963,17.6981841 31.2894745,18.2504683 C31.289474,18.250904 31.2894737,18.2513396 31.2894737,18.2517752 L31.2894737,40 C31.2894737,40.5522847 30.8417584,41 30.2894737,41 L10.7105263,41 C10.1582416,41 9.71052632,40.5522847 9.71052632,40 L9.71052632,18.3497565 C9.71052632,17.801348 9.26884347,17.3552547 8.72046199,17.3498059 L2.69372106,17.2899232 C2.14146357,17.2844358 1.69821877,16.8322943 1.7037061,16.2800368 C1.70659869,15.9889194 1.8362147,15.7135161 2.0587042,15.5257499 Z" id="path-1"></path>
    </defs>
    <g id="medical-3" stroke="none" stroke-width="1" fill="none" fill-rule="evenodd">
        <g id="6" transform="translate(-242.000000, -3701.000000)">
            <g id="5" transform="translate(-218.000000, 3370.000000)">
                <g id="item" transform="translate(388.000000, 166.000000)">
                    <g id="icon_up" transform="translate(72.000000, 166.000000)">
                        <line x1="18" y1="48" x2="27.9999344" y2="47.9637698" id="Path-26" stroke="#2075B5" stroke-width="2" stroke-linecap="round" stroke-linejoin="round"></line>
                        <path d="M11.0587042,25.1573288 L34.3001393,5.54311942 C34.6720289,5.22926955 35.2158536,5.22868931 35.5884121,5.54174489 L58.894537,25.1255465 C59.3173646,25.4808425 59.3721098,26.1116363 59.0168138,26.534464 C58.8265154,26.7609327 58.5457162,26.8915294 58.2499098,26.8911428 L49.6855174,26.8799503 C49.1332331,26.8792285 48.6849331,27.3263583 48.6842114,27.8786425 C48.6842108,27.8790782 48.6842105,27.8795138 48.6842105,27.8799494 L48.6842105,56 C48.6842105,56.5522847 48.2364953,57 47.6842105,57 L22.3157895,57 C21.7635047,57 21.3157895,56.5522847 21.3157895,56 L21.3157895,28.0072218 C21.3157895,27.4588133 20.8741066,27.01272 20.3257252,27.0072712 L11.6937211,26.9215021 C11.1414636,26.9160148 10.6982188,26.4638733 10.7037061,25.9116158 C10.7065987,25.6204984 10.8362147,25.345095 11.0587042,25.1573288 Z" id="Rectangle-Copy-2" fill-opacity="0.06" fill="#0091FF"></path>
                        <g id="Rectangle" stroke-linecap="round" stroke-linejoin="round">
                            <use fill="#FFFFFF" xlink:href="#path-1"></use>
                            <use stroke="#2075B5" stroke-width="2" fill="#E3FFF5" xlink:href="#path-1"></use>
                        </g>
                    </g>
                </g>
            </g>
        </g>
    </g>
</svg>