<?xml version="1.0" encoding="UTF-8"?>
<svg width="126px" height="92px" viewBox="0 0 126 92" version="1.1" xmlns="http://www.w3.org/2000/svg" xmlns:xlink="http://www.w3.org/1999/xlink">
    <title>Icon_adaptive</title>
    <g id="medical-3" stroke="none" stroke-width="1" fill="none" fill-rule="evenodd">
        <g id="2" transform="translate(-1016.000000, -1272.000000)">
            <g id="3" transform="translate(268.000000, 1037.000000)">
                <g id="Group-44" transform="translate(748.000000, 235.000000)">
                    <rect id="Rectangle-Copy-26" fill-opacity="0.06" fill="#0091FF" x="60.75506" y="14" width="65" height="70" rx="8"></rect>
                    <rect id="Rectangle" fill="#E3FFF5" x="0" y="0" width="61" height="53" rx="8"></rect>
                    <path d="M66,84 L85,84 L85.8637671,86.2414551 C86.5588423,88.0451586 85.6601214,90.070819 83.8564178,90.7658942 C83.4548625,90.9206375 83.0282126,91 82.5978729,91 L68.0842697,91 C66.151273,91 64.5842697,89.4329966 64.5842697,87.5 C64.5842697,86.9176621 64.7295715,86.3445271 65.0070096,85.8325256 L66,84 L66,84 Z" id="Rectangle" fill="#C2EAD2"></path>
                    <rect id="Rectangle-Copy-25" fill="#FFFFFF" x="0" y="0" width="61" height="11" rx="5.5"></rect>
                    <path d="M52,38 L99,38 C102.313708,38 105,40.6862915 105,44 L105,76 C105,80.418278 101.418278,84 97,84 L54,84 C49.581722,84 46,80.418278 46,76 L46,44 C46,40.6862915 48.6862915,38 52,38 Z" id="Rectangle-Copy-24" fill="#FFFFFF"></path>
                    <path d="M57.8074129,68.4181184 L92.4842348,68.4181184 M57.2086741,0 C58.5554209,0 59.7854108,0.544305021 60.666926,1.41901742 C61.5502374,2.29195105 62.1003424,3.50996694 62.0994442,4.84360318 L62.0994442,4.84360318 L62.0998933,25.5756656 L63.7726615,25.5845595 C64.3928207,25.588117 64.8930794,26.0883974 64.8894869,26.7025193 C64.8863435,27.3166412 64.381145,27.8115852 63.7609858,27.8080277 L63.7609858,27.8080277 L62.0998933,27.7995785 L62.0998933,36.9100172 L78.2662439,36.9100172 L78.2662439,35.3535895 C78.2662439,34.7399122 78.7687479,34.2418553 79.3889071,34.2418553 C80.0086172,34.2418553 80.5115703,34.7399122 80.5115703,35.3535895 L80.5115703,35.3535895 L80.5115703,36.9100172 L100.109229,36.9100172 C101.455976,36.9095725 102.685965,37.4538775 103.567481,38.3285899 C104.450792,39.2015236 105,40.4195395 105,41.7536204 L105,41.7536204 L105,79.9705922 C105,81.3046732 104.450792,82.522689 103.567481,83.3956227 C102.685965,84.2703351 101.455976,84.8146401 100.109229,84.8141954 L100.109229,84.8141954 L85.8208693,84.8141954 L85.8195221,84.8448793 C85.8177258,84.890238 85.8159296,84.961389 85.8159296,85.0534406 C85.8154805,85.3647261 85.8379338,85.9170356 85.9510982,86.5258212 C86.0629155,87.1350515 86.2694855,87.7958663 86.5968541,88.3317221 C86.8146508,88.6905899 87.0795993,88.993871 87.4087642,89.2295586 C87.8497463,89.5403995 88.4124251,89.7600781 89.2813664,89.7765318 L89.2813664,89.7765318 L92.462994,89.7765318 C93.0827041,89.7765318 93.5856573,90.274144 93.5856573,90.8882659 C93.5856573,91.5023878 93.0827041,92 92.462994,92 L92.462994,92 L57.7861721,92 C57.1660129,92 56.6635089,91.5023878 56.6635089,90.8882659 C56.6635089,90.274144 57.1660129,89.7765318 57.7861721,89.7765318 L57.7861721,89.7765318 L62.3491245,89.7765318 C62.758223,89.7654144 63.0240697,89.6680265 63.2661159,89.5119391 C63.5063658,89.3540728 63.7250606,89.1143829 63.9177096,88.7902013 C64.3066002,88.1471743 64.5378688,87.1853019 64.6312744,86.3675103 C64.6968379,85.8218712 64.7098608,85.3411574 64.7098608,85.0538853 L64.7095521,84.9752857 C64.7089627,84.9028284 64.7076155,84.8488815 64.7062683,84.8141954 L64.7062683,84.8141954 L50.1825986,84.8141954 C47.4805727,84.8137507 45.2918284,82.6463139 45.2913794,79.9705922 L45.2913794,79.9705922 L45.2913794,63.4680111 L41.4361538,63.4466658 C40.8159947,63.4431082 40.3166341,62.9428279 40.3202266,62.3287059 C40.32337,61.714584 40.8290176,61.21964 41.4487277,61.2231975 L41.4487277,61.2231975 L45.2913794,61.2445428 L45.2913794,53.2409466 L28.5156472,53.2409466 L28.5156472,56.1599157 C28.5156472,56.7740376 28.0126941,57.2716498 27.392984,57.2716498 C26.7728248,57.2716498 26.2703208,56.7740376 26.2703208,56.1599157 L26.2703208,56.1599157 L26.2703208,53.2409466 L4.89077121,53.2409466 C2.1891944,53.2405019 0,51.0730651 0,48.3973434 L0,48.3973434 L0,4.84360318 C0,3.50996694 0.548758887,2.29195105 1.43207032,1.41901742 C2.31358549,0.544305021 3.54357533,0 4.89077121,0 L4.89077121,0 Z M83.5741956,84.8141954 L66.9524929,84.8141954 C66.9538401,84.8777866 66.9551873,84.955608 66.9551873,85.0538853 C66.9547382,85.5190348 66.9295905,86.340384 66.7661308,87.2733512 C66.623328,88.0715763 66.3880178,88.9547379 65.9308693,89.7765318 L65.9308693,89.7765318 L84.8787303,89.7765318 C84.6797944,89.4897044 84.5024136,89.1962066 84.3627543,88.9000406 C83.6397592,87.352062 83.576441,85.7822935 83.5706031,85.0534406 C83.5706031,84.9564974 83.5723994,84.8791207 83.5741956,84.8141954 L83.5741956,84.8141954 Z M100.109229,39.1334854 L50.1825986,39.1334854 C49.4479277,39.1339301 48.7936396,39.4247598 48.3113435,39.9010267 C47.8308436,40.3786276 47.5371549,41.0265463 47.5362568,41.7536204 L47.5362568,41.7536204 L47.5362568,79.9705922 C47.5371549,80.6976663 47.8308436,81.345585 48.3113435,81.8231859 C48.7936396,82.2990081 49.4479277,82.5902825 50.1825986,82.5907272 L50.1825986,82.5907272 L100.109229,82.5907272 C100.843001,82.5902825 101.49729,82.2990081 101.979586,81.8231859 C102.460535,81.345585 102.754223,80.6976663 102.755122,79.9705922 L102.755122,79.9705922 L102.755122,41.7536204 C102.754223,41.0265463 102.460535,40.3786276 101.979586,39.9010267 C101.49729,39.4247598 100.843001,39.1339301 100.109229,39.1334854 L100.109229,39.1334854 Z M92.4841001,73.9767889 C93.1038102,73.9767889 93.6067633,74.4744011 93.6067633,75.088523 C93.6067633,75.702645 93.1038102,76.2002571 92.4841001,76.2002571 L92.4841001,76.2002571 L57.8072782,76.2002571 C57.187119,76.2002571 56.6846149,75.702645 56.6846149,75.088523 C56.6846149,74.4744011 57.187119,73.9767889 57.8072782,73.9767889 L57.8072782,73.9767889 Z M92.4841001,67.3063843 C93.1038102,67.3063843 93.6067633,67.8039964 93.6067633,68.4181184 C93.6067633,69.0322403 93.1038102,69.5298525 92.4841001,69.5298525 L92.4841001,69.5298525 L57.8072782,69.5298525 C57.187119,69.5298525 56.6846149,69.0322403 56.6846149,68.4181184 C56.6846149,67.8039964 57.187119,67.3063843 57.8072782,67.3063843 L57.8072782,67.3063843 Z M33.3657769,61.1787091 L37.4073646,61.2009629 C38.0275237,61.2045204 38.5273334,61.7048008 38.5237601,62.3189227 C38.5205974,62.9330446 38.0149499,63.4279886 37.3952398,63.4244501 L37.3952398,63.4244501 L33.3536522,63.4021964 C32.733493,63.3986389 32.2336833,62.8979138 32.236812,62.2842366 C32.2404193,61.6705593 32.7456178,61.1751706 33.3657769,61.1787091 L33.3657769,61.1787091 Z M27.3927595,59.0506023 C28.0124696,59.0506023 28.5149736,59.5482145 28.5149736,60.1623364 L28.5149736,60.1623364 L28.5149736,61.1517797 L29.3241893,61.1566714 L29.446503,61.1638149 C30.0087525,61.2270516 30.4439199,61.7014507 30.4405848,62.2746312 C30.4374221,62.8887531 29.9322237,63.3832525 29.3120645,63.379714 L29.3120645,63.379714 L27.3864725,63.3694669 C26.7699059,63.3659094 26.2700962,62.8682972 26.2700962,62.2577328 L26.2700962,62.2577328 L26.2700962,60.1623364 C26.2700962,59.5482145 26.7726003,59.0506023 27.3927595,59.0506023 Z M90.9821114,50.1900369 L90.9821114,58.3866302 L94.2584918,58.3866302 L94.2584918,60.2507859 L88.5243771,60.2507859 L88.5243771,50.1900369 L90.9821114,50.1900369 Z M59.0519524,50.1898591 L59.0519524,54.0889329 L62.9026873,54.0889329 L62.9026873,50.1898591 L65.3747918,50.1898591 L65.3747918,60.2506081 L62.9026873,60.2506081 L62.9026873,56.0527001 L59.0519524,56.0527001 L59.0519524,60.2506081 L56.5942181,60.2506081 L56.5942181,50.1898591 L59.0519524,50.1898591 Z M78.407924,50.2611434 L81.152611,57.2197096 L83.8398178,50.2611434 L86.8287963,50.2611434 L86.8287963,60.2507415 L84.3715111,60.2507415 L84.3715111,54.0036852 L82.1872575,60.2507415 L80.0604842,60.2507415 L77.8618606,53.989455 L77.8618606,60.2507415 L75.4041262,60.2507415 L75.4041262,50.2611434 L78.407924,50.2611434 Z M74.3699738,50.1900369 L74.3699738,52.1253437 L71.6113657,52.1253437 L71.6113657,60.2507859 L69.1397103,60.2507859 L69.1397103,52.1253437 L66.4093933,52.1253437 L66.4093933,50.1900369 L74.3699738,50.1900369 Z M59.8545668,12.1823824 L2.2448785,12.1823824 L2.2448785,48.3973434 C2.24577663,49.1244175 2.53946533,49.7723362 3.01951613,50.2499372 C3.50226132,50.7257594 4.15654945,51.0170337 4.89077121,51.0174784 L4.89077121,51.0174784 L45.2913794,51.0174784 L45.2913794,41.7536204 C45.2918284,39.0778987 47.4805727,36.9109066 50.1825986,36.9100172 L50.1825986,36.9100172 L59.8545668,36.9100172 L59.8545668,12.1823824 Z M14.8788366,22.9918621 L15.9422232,28.7124012 L17.4367125,22.9918621 L20.0520687,22.9918621 L21.5896683,28.7266313 L22.6530549,22.9918621 L24.9378991,22.9918621 L22.8829763,30.9323118 L20.1382893,30.9323118 L18.6869102,25.6102183 L17.2211611,30.9323118 L14.4764741,30.9323118 L12.4215513,22.9918621 L14.8788366,22.9918621 Z M27.4956403,22.9918621 L28.5590269,28.7124012 L30.0535162,22.9918621 L32.6688725,22.9918621 L34.2064721,28.7266313 L35.2698587,22.9918621 L37.5547029,22.9918621 L35.4997801,30.9323118 L32.755093,30.9323118 L31.303714,25.6102183 L29.8379649,30.9323118 L27.0932778,30.9323118 L25.038355,22.9918621 L27.4956403,22.9918621 Z M40.1124441,22.9918621 L41.1758307,28.7124012 L42.67032,22.9918621 L45.2856763,22.9918621 L46.8232758,28.7266313 L47.8866624,22.9918621 L50.1715066,22.9918621 L48.1165839,30.9323118 L45.3718968,30.9323118 L43.9205178,25.6102183 L42.4547686,30.9323118 L39.7100816,30.9323118 L37.6551588,22.9918621 L40.1124441,22.9918621 Z M76.700443,25.6549843 L79.3948348,25.6696738 C80.0114014,25.6732314 80.5112111,26.1712883 80.5112111,26.7814079 L80.5112111,26.7814079 L80.5116601,29.4495698 C80.5116601,30.0636917 80.008707,30.5613039 79.3889969,30.5613039 C78.7688377,30.5613039 78.2663337,30.0636917 78.2663337,29.4495698 L78.2663337,29.4495698 L78.2658846,27.887361 L76.6878692,27.8784672 C76.0681591,27.8753543 75.5683494,27.3746293 75.5719227,26.7605073 C75.5750854,26.1468301 76.0802838,25.6518861 76.700443,25.6549843 L76.700443,25.6549843 Z M68.0822513,25.6081136 L72.3910328,25.631697 C73.011192,25.6352545 73.5110017,26.1355349 73.5074284,26.7492121 C73.5042657,27.363334 72.9990672,27.8587228 72.3789081,27.8551843 L72.3789081,27.8551843 L68.0696775,27.8315965 C67.4499674,27.8284836 66.9501577,27.3277586 66.953731,26.7136366 C66.9564446,26.0999594 67.4620922,25.6050154 68.0822513,25.6081136 L68.0822513,25.6081136 Z M57.2086741,2.22346822 L4.89077121,2.22346822 C4.15654945,2.22435761 3.50226132,2.51518725 3.01951613,2.99145415 C2.53946533,3.46861043 2.24577663,4.11697376 2.2448785,4.84360318 L2.2448785,4.84360318 L2.2448785,9.95891417 L59.8545668,9.95891417 L59.8545668,4.84360318 C59.8536687,4.11652907 59.55998,3.46861043 59.0794801,2.99145415 C58.597184,2.51518725 57.9428959,2.22435761 57.2086741,2.22346822 L57.2086741,2.22346822 Z M6.96037842,5.33654608 C7.58053759,5.33654608 8.08304166,5.83460297 8.08304166,6.4482802 C8.08304166,7.06240212 7.58053759,7.56001431 6.96037842,7.56001431 C6.34021925,7.56001431 5.83771519,7.06240212 5.83771519,6.4482802 C5.83771519,5.83460297 6.34021925,5.33654608 6.96037842,5.33654608 Z M11.4510314,5.33654608 C12.0711905,5.33654608 12.5736946,5.83460297 12.5736946,6.4482802 C12.5736946,7.06240212 12.0711905,7.56001431 11.4510314,7.56001431 C10.8308722,7.56001431 10.3283681,7.06240212 10.3283681,6.4482802 C10.3283681,5.83460297 10.8308722,5.33654608 11.4510314,5.33654608 Z M15.9416843,5.33654608 C16.5618435,5.33654608 17.0643475,5.83460297 17.0643475,6.4482802 C17.0643475,7.06240212 16.5618435,7.56001431 15.9416843,7.56001431 C15.3215251,7.56001431 14.8190211,7.06240212 14.8190211,6.4482802 C14.8190211,5.83460297 15.3215251,5.33654608 15.9416843,5.33654608 Z" id="Combined-Shape" fill="#2075B5"></path>
                </g>
            </g>
        </g>
    </g>
</svg>