<?xml version="1.0" encoding="UTF-8"?>
<svg width="84px" height="73px" viewBox="0 0 84 73" version="1.1" xmlns="http://www.w3.org/2000/svg" xmlns:xlink="http://www.w3.org/1999/xlink">
    <title>icon_youtube</title>
    <g id="medical-3" stroke="none" stroke-width="1" fill="none" fill-rule="evenodd">
        <g id="4" transform="translate(-175.000000, -3027.000000)">
            <g id="icon_youtube" transform="translate(175.000000, 3027.000000)">
                <g id="Group-50">
                    <rect id="Rectangle" fill="#FFECE8" x="0" y="5.15313534" width="84" height="62" rx="2"></rect>
                    <rect id="Rectangle-Copy-52" stroke="#2075B5" stroke-width="2" x="1" y="6.15313534" width="82" height="60" rx="4"></rect>
                    <line x1="42.9710705" y1="72.5" x2="59.1801383" y2="72.5" id="Path-12" stroke="#2075B5" stroke-width="2"></line>
                    <line x1="63.9710705" y1="72.5" x2="68.7252355" y2="72.5" id="Path-12-Copy" stroke="#2075B5" stroke-width="2"></line>
                    <line x1="21.9710705" y1="0.5" x2="28.1801383" y2="0.5" id="Path-12" stroke="#2075B5" stroke-width="2" transform="translate(25.075604, 0.500000) scale(-1, 1) translate(-25.075604, -0.500000) "></line>
                    <line x1="11.9710705" y1="0.5" x2="16.7252355" y2="0.5" id="Path-12-Copy" stroke="#2075B5" stroke-width="2" transform="translate(14.348153, 0.500000) scale(-1, 1) translate(-14.348153, -0.500000) "></line>
                </g>
                <path d="M33.3415599,28.7009504 L33.3415599,50.4771262 C33.3415599,51.5816957 34.2369904,52.4771262 35.3415599,52.4771262 C35.7169448,52.4771262 36.0847522,52.3714807 36.4029183,52.1722717 L53.7927974,41.2841838 C54.7290004,40.6980118 55.0127566,39.4638829 54.4265846,38.5276799 C54.2659917,38.2711894 54.049288,38.0544857 53.7927974,37.8938927 L36.4029183,27.0058048 C35.4667152,26.4196328 34.2325864,26.703389 33.6464144,27.639592 C33.4472054,27.9577581 33.3415599,28.3255655 33.3415599,28.7009504 Z" id="Path-17-Copy" fill="#FFD1C6"></path>
                <path d="M34.3415599,23.8949943 L34.3415599,47.0072201 C34.3415599,47.5595049 34.7892751,48.0072201 35.3415599,48.0072201 C35.5292524,48.0072201 35.7131561,47.9543974 35.8722391,47.8547929 L54.3290525,36.29868 C54.797154,36.005594 54.9390321,35.3885296 54.6459461,34.9204281 C54.5656497,34.7921828 54.4572978,34.6838309 54.3290525,34.6035345 L35.8722391,23.0474216 C35.4041376,22.7543355 34.7870731,22.8962136 34.4939871,23.3643151 C34.3943826,23.5233982 34.3415599,23.7073019 34.3415599,23.8949943 Z" id="Path-17" stroke="#2075B5" stroke-width="2" fill="#FFFFFF"></path>
            </g>
        </g>
    </g>
</svg>