<?xml version="1.0" encoding="UTF-8"?>
<svg width="95px" height="84px" viewBox="0 0 95 84" version="1.1" xmlns="http://www.w3.org/2000/svg" xmlns:xlink="http://www.w3.org/1999/xlink">
    <title>icon_easy</title>
    <g id="medical-3" stroke="none" stroke-width="1" fill="none" fill-rule="evenodd">
        <g id="2" transform="translate(-1032.000000, -1571.000000)">
            <g id="3" transform="translate(268.000000, 1037.000000)">
                <g id="icon_easy" transform="translate(765.200000, 535.131602)">
                    <rect id="Rectangle-Copy-32" fill-opacity="0.06" fill="#0091FF" x="30.8" y="11.8683977" width="63" height="71" rx="7.19621036"></rect>
                    <g id="Group-12-Copy" transform="translate(0.000000, 0.000000)">
                        <rect id="Rectangle" fill="#ECEEFF" x="0" y="7.86839771" width="75.6" height="63" rx="6"></rect>
                        <path d="M7.20295072,10.8683977 C5.32363373,10.8683977 3.8,12.3925486 3.8,14.2725034 L3.8,32.8911116 C3.8,34.771404 7.17460405,38.5495427 9.45077447,32.8482396 C10.3747411,30.3849553 11.5362798,26.7276684 14.2612725,24.0338203 C19.0076531,19.3415287 27.6280792,16.9403581 27.893323,14.2725034 C28.0792637,12.4016631 26.3696893,10.8683977 24.4903723,10.8683977 L7.20295072,10.8683977 Z" id="Fill-5" fill="#CBD0FF"></path>
                        <path d="M75.6,27.9109726 L75.6,64.0530131 C75.6,67.2647613 72.9963636,69.8683977 69.7846154,69.8683977 L5.81538462,69.8683977 C2.60363638,69.8683977 0,67.2647613 0,64.0530131 L0,12.6837823 C0,9.47203409 2.60363638,6.86839771 5.81538462,6.86839771 L69.7846154,6.86839771 C72.9963636,6.86839771 75.6,9.47203409 75.6,12.6837823 L75.6,21.3703031 L75.6,21.3703031" id="Path" stroke="#2075B5" stroke-width="2.3" stroke-linecap="round" stroke-linejoin="round"></path>
                        <line x1="30.4179345" y1="0.5" x2="44.0445006" y2="0.5" id="Path-10" stroke="#2075B5" stroke-width="2.3" stroke-linecap="round" stroke-linejoin="round"></line>
                        <line x1="49.4179345" y1="0.5" x2="55.0445006" y2="0.5" id="Path-10-Copy" stroke="#2075B5" stroke-width="2.3" stroke-linecap="round" stroke-linejoin="round"></line>
                        <line x1="18.4179345" y1="79.5" x2="24.0445006" y2="79.5" id="Path-10-Copy" stroke="#2075B5" stroke-width="2.3" stroke-linecap="round" stroke-linejoin="round"></line>
                        <line x1="13.0298468" y1="79.5" x2="14.0445006" y2="79.5" id="Path-10-Copy-2" stroke="#2075B5" stroke-width="2.3" stroke-linecap="round" stroke-linejoin="round"></line>
                    </g>
                    <g id="Group-12" transform="translate(22.800000, 14.868398)">
                        <path d="M27.4578422,15.6565053 L26.2778833,15.9513157 C25.7000267,16.096467 25.2254389,16.507128 24.9977985,17.0584324 L23.5390136,20.5916493 C23.4438266,20.8224489 23.3948862,21.068575 23.3953352,21.3147011 C23.3948862,21.6500817 23.4846852,21.9886178 23.6651812,22.2870344 L24.2897333,23.3305911 L23.2381869,24.3863188 L22.1969674,23.7583817 L22.1960695,23.7579309 C21.9006307,23.5798727 21.5661294,23.488815 21.2298321,23.488815 C20.9869258,23.488815 20.7417745,23.5356962 20.5087461,23.6335155 L20.5114401,23.6321632 L16.99087,25.0971995 C16.4417491,25.326196 16.0322656,25.8026709 15.8881382,26.3819237 L15.5940465,27.5670254 L14.1083219,27.5670254 L13.8142302,26.3823745 C13.6701028,25.8026709 13.2606193,25.326196 12.7114984,25.0971995 L9.19047933,23.6321632 C8.96014488,23.536147 8.71544258,23.488815 8.47208728,23.488815 C8.13623899,23.488815 7.8012887,23.5789711 7.50405399,23.7592833 L6.46373249,24.3863188 L5.41218613,23.3305911 L6.0380852,22.2856821 L6.03898319,22.2847805 C6.21723422,21.9863639 6.30658423,21.6496309 6.30613524,21.3147011 C6.30613524,21.0699273 6.25854176,20.8265059 6.1651508,20.5975094 L6.16335482,20.5934524 L4.70412096,17.0584324 C4.47648048,16.507128 4.00234172,16.096467 3.42493411,15.9513157 L2.24452617,15.6565053 L2.24452617,14.1644222 L3.42448512,13.869161 C4.00234172,13.7249113 4.47648048,13.3137995 4.70412096,12.7624951 L6.16335482,9.22702429 C6.25943975,8.99487237 6.30658423,8.74919705 6.30658423,8.5062264 C6.30658423,8.16723953 6.21498925,7.83276047 6.04033018,7.53795008 L6.0385342,7.53479461 L5.41218613,6.48988561 L6.46373249,5.43415789 L7.50540097,6.06254578 C7.8012887,6.24105483 8.13579,6.33166169 8.47208728,6.33166169 C8.71544258,6.33166169 8.95924689,6.28387897 9.18778536,6.18966586 L9.19047933,6.18831352 L12.7114984,4.72327717 C13.2606193,4.4947315 13.6705518,4.01780583 13.8142302,3.43810221 L14.1083219,2.25390207 L15.5940465,2.25390207 L15.8876892,3.43810221 C16.0318166,4.01780583 16.4417491,4.4947315 16.99087,4.72327717 L20.5114401,6.18831352 L20.5132361,6.1887643 C20.7431215,6.28432975 20.9869258,6.33166169 21.2298321,6.33166169 C21.5656804,6.33166169 21.9001817,6.24060405 22.1938245,6.06479968 L22.1974164,6.06254578 L23.2381869,5.43415789 L24.2892843,6.48988561 L23.6638342,7.53479461 C23.4860322,7.83185891 23.3953352,8.16859187 23.3953352,8.5062264 C23.3953352,8.74739393 23.4415817,8.99622471 23.5408096,9.23243365 L23.5385646,9.22702429 L24.9977985,12.7620443 C25.2254389,13.3137995 25.7000267,13.7249113 26.2774343,13.869161 L27.4578422,14.1644222 L27.4578422,15.6565053 Z" id="Path-Copy" fill="#FFFFFF"></path>
                        <path d="M27.4578422,15.6565053 L26.2778833,15.9513157 C25.7000267,16.096467 25.2254389,16.507128 24.9977985,17.0584324 L23.5390136,20.5916493 C23.4438266,20.8224489 23.3948862,21.068575 23.3953352,21.3147011 C23.3948862,21.6500817 23.4846852,21.9886178 23.6651812,22.2870344 L24.2897333,23.3305911 L23.2381869,24.3863188 L22.1969674,23.7583817 L22.1960695,23.7579309 C21.9006307,23.5798727 21.5661294,23.488815 21.2298321,23.488815 C20.9869258,23.488815 20.7417745,23.5356962 20.5087461,23.6335155 L20.5114401,23.6321632 L16.99087,25.0971995 C16.4417491,25.326196 16.0322656,25.8026709 15.8881382,26.3819237 L15.5940465,27.5670254 L14.1083219,27.5670254 L13.8142302,26.3823745 C13.6701028,25.8026709 13.2606193,25.326196 12.7114984,25.0971995 L9.19047933,23.6321632 C8.96014488,23.536147 8.71544258,23.488815 8.47208728,23.488815 C8.13623899,23.488815 7.8012887,23.5789711 7.50405399,23.7592833 L6.46373249,24.3863188 L5.41218613,23.3305911 L6.0380852,22.2856821 L6.03898319,22.2847805 C6.21723422,21.9863639 6.30658423,21.6496309 6.30613524,21.3147011 C6.30613524,21.0699273 6.25854176,20.8265059 6.1651508,20.5975094 L6.16335482,20.5934524 L4.70412096,17.0584324 C4.47648048,16.507128 4.00234172,16.096467 3.42493411,15.9513157 L2.24452617,15.6565053 L2.24452617,14.1644222 L3.42448512,13.869161 C4.00234172,13.7249113 4.47648048,13.3137995 4.70412096,12.7624951 L6.16335482,9.22702429 C6.25943975,8.99487237 6.30658423,8.74919705 6.30658423,8.5062264 C6.30658423,8.16723953 6.21498925,7.83276047 6.04033018,7.53795008 L6.0385342,7.53479461 L5.41218613,6.48988561 L6.46373249,5.43415789 L7.50540097,6.06254578 C7.8012887,6.24105483 8.13579,6.33166169 8.47208728,6.33166169 C8.71544258,6.33166169 8.95924689,6.28387897 9.18778536,6.18966586 L9.19047933,6.18831352 L12.7114984,4.72327717 C13.2606193,4.4947315 13.6705518,4.01780583 13.8142302,3.43810221 L14.1083219,2.25390207 L15.5940465,2.25390207 L15.8876892,3.43810221 C16.0318166,4.01780583 16.4417491,4.4947315 16.99087,4.72327717 L20.5114401,6.18831352 L20.5132361,6.1887643 C20.7431215,6.28432975 20.9869258,6.33166169 21.2298321,6.33166169 C21.5656804,6.33166169 21.9001817,6.24060405 22.1938245,6.06479968 L22.1974164,6.06254578 L23.2381869,5.43415789 L24.2892843,6.48988561 L23.6638342,7.53479461 C23.4860322,7.83185891 23.3953352,8.16859187 23.3953352,8.5062264 C23.3953352,8.74739393 23.4415817,8.99622471 23.5408096,9.23243365 L23.5385646,9.22702429 L24.9977985,12.7620443 C25.2254389,13.3137995 25.7000267,13.7249113 26.2774343,13.869161 L27.4578422,14.1644222 L27.4578422,15.6565053 Z M28.8515228,12.1904547 L27.0007653,11.7275032 L25.6838629,8.53687947 L26.665815,6.89603877 C26.9311711,6.45292162 26.8615768,5.88448752 26.4974419,5.5189046 L24.2053222,3.21767059 C23.8407383,2.85208768 23.2745555,2.78221671 22.8327444,3.04862794 L21.1997495,4.03493548 L18.0217626,2.71234575 L17.5606447,0.854228884 C17.4358241,0.352510283 16.9868291,0 16.4713828,0 L13.2309856,0 C12.7155393,0 12.2660953,0.352510283 12.1417237,0.854228884 L11.6801568,2.71234575 L8.50261894,4.03493548 L6.86872601,3.04862794 C6.4269149,2.78221671 5.86073216,2.85208768 5.49659719,3.21767059 L3.20447755,5.5189046 C2.84034258,5.88448752 2.77119734,6.45292162 3.03610441,6.89603877 L4.01850554,8.53642869 L2.70160311,11.7275032 L0.850845587,12.1904547 C0.350665121,12.3153209 0,12.7665521 0,13.2835972 L0,16.5368795 C0,17.0543754 0.350665121,17.5056066 0.850845587,17.6304728 L2.70115412,18.0934242 L4.01895454,21.284048 L3.03655341,22.9239872 C2.77119734,23.3671043 2.84034258,23.9355384 3.20447755,24.3015721 L5.49659719,26.6028061 C5.86073216,26.9688398 6.4269149,27.03826 6.86872601,26.7718488 L8.50261894,25.785992 L11.6806058,27.108131 L12.1417237,28.9662478 C12.2660953,29.4684172 12.7155393,29.8209275 13.2309856,29.8209275 L16.4713828,29.8209275 C16.9868291,29.8209275 17.4358241,29.4684172 17.5606447,28.9662478 L18.0213136,27.108131 L21.1997495,25.785992 L22.8336424,26.7718488 C23.2754535,27.0387108 23.8411873,26.9688398 24.2057712,26.6028061 L26.4974419,24.3015721 C26.8615768,23.9355384 26.9311711,23.3671043 26.665366,22.9239872 L25.6834139,21.284048 L27.0003163,18.0934242 L28.8515228,17.6304728 C29.3512543,17.5056066 29.7023684,17.0543754 29.7023684,16.5368795 L29.7023684,13.2835972 C29.7023684,12.7665521 29.3512543,12.3153209 28.8515228,12.1904547 L28.8515228,12.1904547 Z" id="Fill-21" fill="#3474A5"></path>
                        <path d="M17.8338133,17.9046825 C17.0669298,18.6723615 16.0194244,19.1443286 14.8511393,19.1447794 C13.6828542,19.1443286 12.6353488,18.6723615 11.8684653,17.9046825 C11.1033778,17.1347495 10.633729,16.0830788 10.632831,14.9101482 C10.633729,13.7372176 11.1033778,12.6859976 11.8684653,11.9160647 C12.6353488,11.1479349 13.6828542,10.6759678 14.8511393,10.675517 C16.0194244,10.6759678 17.0669298,11.1479349 17.8338133,11.9160647 C18.5989008,12.6859976 19.0685497,13.7372176 19.0694476,14.9101482 C19.0685497,16.0830788 18.5989008,17.1347495 17.8338133,17.9046825 M14.8511393,8.42161492 C11.2811798,8.42251648 8.3887538,11.3259931 8.3883048,14.9101482 C8.3887538,18.4943033 11.2811798,21.3982307 14.8511393,21.3986815 C18.4210988,21.3982307 21.3135248,18.4943033 21.3139738,14.9101482 C21.3135248,11.3259931 18.4210988,8.42251648 14.8511393,8.42161492" id="Fill-23" fill="#3474A5"></path>
                    </g>
                    <polyline id="Path-20" stroke="#2075B5" stroke-width="2" stroke-linecap="round" stroke-linejoin="round" points="19.8 61.8683977 19.8 54.2044002 37.8 54.2044002 37.8 49.8683977"></polyline>
                    <polyline id="Path-20-Copy" stroke="#2075B5" stroke-width="2" stroke-linecap="round" stroke-linejoin="round" transform="translate(46.800000, 54.870079) scale(-1, 1) translate(-46.800000, -54.870079) " points="37.8 61.8683977 37.8 54.2044002 55.8 54.2044002 55.8 47.8717607"></polyline>
                    <rect id="Rectangle" stroke="#2075B5" stroke-width="2" fill="#FFFFFF" x="10.8" y="62.8683977" width="18" height="12" rx="3"></rect>
                    <rect id="Rectangle-Copy-45" stroke="#2075B5" stroke-width="2" fill="#FFFFFF" x="48.8" y="62.8683977" width="18" height="12" rx="3"></rect>
                </g>
            </g>
        </g>
    </g>
</svg>