<?xml version="1.0" encoding="UTF-8"?>
<svg width="98px" height="66px" viewBox="0 0 98 66" version="1.1" xmlns="http://www.w3.org/2000/svg" xmlns:xlink="http://www.w3.org/1999/xlink">
    <title>icon_progress_bug</title>
    <g id="medical-3" stroke="none" stroke-width="1" fill="none" fill-rule="evenodd">
        <g id="4" transform="translate(-995.000000, -1988.000000)">
            <g id="icon_progress_bug" transform="translate(995.000000, 1988.000000)">
                <rect id="Rectangle-Copy-156" fill="#E4F7FF" x="8" y="4" width="84" height="62" rx="5"></rect>
                <circle id="Oval" fill="#ADDBFF" cx="51" cy="44" r="9"></circle>
                <rect id="Rectangle-Copy-67" stroke="#2075B5" stroke-width="2" x="9" y="5" width="82" height="60" rx="4"></rect>
                <rect id="Rectangle-Copy-66" fill="#2075B5" x="10" y="14" width="80" height="2"></rect>
                <path d="M14.1167459,9 C13.4998555,9 13,9.50502333 13,10.1282916 C13,10.7515599 13.4998555,11.2565832 14.1167459,11.2565832 C14.7331897,11.2565832 15.2334918,10.7515599 15.2334918,10.1282916 C15.2334918,9.50502333 14.7331897,9 14.1167459,9" id="Fill-9-Copy-5" fill="#3474A5"></path>
                <path d="M18.5837296,9 C17.9668392,9 17.4669837,9.50502333 17.4669837,10.1282916 C17.4669837,10.7515599 17.9668392,11.2565832 18.5837296,11.2565832 C19.2001733,11.2565832 19.7004755,10.7515599 19.7004755,10.1282916 C19.7004755,9.50502333 19.2001733,9 18.5837296,9" id="Fill-11-Copy-5" fill="#3474A5"></path>
                <path d="M23.0507133,9 C22.4338228,9 21.9339674,9.50502333 21.9339674,10.1282916 C21.9339674,10.7515599 22.4338228,11.2565832 23.0507133,11.2565832 C23.667157,11.2565832 24.1674592,10.7515599 24.1674592,10.1282916 C24.1674592,9.50502333 23.667157,9 23.0507133,9" id="Fill-13-Copy-5" fill="#3474A5"></path>
                <path d="M58,31 L58,33 L60,33 L60,35 L58,35 C56.8954305,35 56,34.1045695 56,33 L56,31 L58,31 Z M68,33 L68,35 L64,35 L64,33 L68,33 Z M76,33 L76,35 L72,35 L72,33 L76,33 Z M84,31 L84,33 C84,34.1045695 83.1045695,35 82,35 L80,35 L80,33 L82,33 L82,31 L84,31 Z M60,20 L60,22 L58,22 L58,24 L56,24 L56,22 C56,20.8954305 56.8954305,20 58,20 L60,20 Z M82,20 C83.1045695,20 84,20.8954305 84,22 L84,24 L82,24 L82,22 L80,22 L80,20 L82,20 Z M76,20 L76,22 L72,22 L72,20 L76,20 Z M68,20 L68,22 L64,22 L64,20 L68,20 Z" id="Combined-Shape-Copy-12" fill="#ADDBFF" fill-rule="nonzero" transform="translate(70.000000, 27.500000) scale(-1, 1) translate(-70.000000, -27.500000) "></path>
                <path d="M58,56 L58,58 L60,58 L60,60 L58,60 C56.8954305,60 56,59.1045695 56,58 L56,56 L58,56 Z M68,58 L68,60 L64,60 L64,58 L68,58 Z M76,58 L76,60 L72,60 L72,58 L76,58 Z M84,56 L84,58 C84,59.1045695 83.1045695,60 82,60 L80,60 L80,58 L82,58 L82,56 L84,56 Z M60,45 L60,47 L58,47 L58,49 L56,49 L56,47 C56,45.8954305 56.8954305,45 58,45 L60,45 Z M82,45 C83.1045695,45 84,45.8954305 84,47 L84,49 L82,49 L82,47 L80,47 L80,45 L82,45 Z M76,45 L76,47 L72,47 L72,45 L76,45 Z M68,45 L68,47 L64,47 L64,45 L68,45 Z" id="Combined-Shape-Copy-13" fill="#ADDBFF" fill-rule="nonzero" transform="translate(70.000000, 52.500000) scale(-1, 1) translate(-70.000000, -52.500000) "></path>
                <line x1="59" y1="0.424076485" x2="66.67885" y2="0.575923515" id="Path-12-Copy-5" stroke="#2075B5" stroke-width="2"></line>
                <line x1="71.4697822" y1="0.575923515" x2="76.2239471" y2="0.575923515" id="Path-12-Copy-4" stroke="#2075B5" stroke-width="2"></line>
                <path d="M18,56 L18,58 L20,58 L20,60 L18,60 C16.8954305,60 16,59.1045695 16,58 L16,56 L18,56 Z M28,58 L28,60 L24,60 L24,58 L28,58 Z M36,58 L36,60 L32,60 L32,58 L36,58 Z M45,56 L45,58 C45,59.1045695 44.1045695,60 43,60 L40,60 L40,58 L43,58 L43,56 L45,56 Z M18,44 L18,52 L16,52 L16,44 L18,44 Z M18,36 L18,40 L16,40 L16,36 L18,36 Z M18,28 L18,32 L16,32 L16,28 L18,28 Z M20,20 L20,22 L18,22 L18,24 L16,24 L16,22 C16,20.8954305 16.8954305,20 18,20 L20,20 Z M43,20 C44.1045695,20 45,20.8954305 45,22 L45,24 L43,24 L43,22 L40,22 L40,20 L43,20 Z M36,20 L36,22 L32,22 L32,20 L36,20 Z M28,20 L28,22 L24,22 L24,20 L28,20 Z" id="Combined-Shape" fill="#ADDBFF" fill-rule="nonzero"></path>
                <path d="M50.5,28 C52.9852814,28 55,30.0147186 55,32.5 C55,32.7554897 54.9787083,33.0060065 54.9378025,33.2498727 C57.3740575,34.742787 59,37.4315139 59,40.5 C59,45.1944204 55.1944204,49 50.5,49 C45.8055796,49 42,45.1944204 42,40.5 C42,37.4315139 43.6259425,34.742787 46.0632656,33.2483812 C46.0212917,33.0060065 46,32.7554897 46,32.5 C46,30.0147186 48.0147186,28 50.5,28 Z" id="Combined-Shape" fill="#FFFFFF"></path>
                <path d="M59.8241122,27.4125196 C60.2145537,26.9343243 60.9209386,26.8611675 61.4024832,27.2492552 C61.8835789,27.6373428 61.9571794,28.3394693 61.5671866,28.8181107 L61.5671866,28.8181107 L41.2960921,53.6530447 C40.9056506,54.1316861 40.1992657,54.2048429 39.7177212,53.8167552 C39.2366254,53.4282215 39.163025,52.7260951 39.5530177,52.2478997 L39.5530177,52.2478997 L43.3039488,47.6528525 C42.9754394,47.3245393 42.6680228,46.9752604 42.387982,46.6036776 L42.387982,46.6036776 L39.3622848,48.6079051 C38.8470815,48.9496006 38.150121,48.8108704 37.8063529,48.2983271 C37.4630337,47.7857837 37.6021565,47.093471 38.1182573,46.7522215 L38.1182573,46.7522215 L41.2539065,44.6743912 C40.8495527,43.7679612 40.5748973,42.791943 40.4600088,41.7677485 L40.4600088,41.7677485 L37.1219583,41.7677485 C36.5021886,41.7677485 36,41.2685874 36,40.652554 C36,40.0365206 36.5021886,39.5373596 37.1219583,39.5373596 L37.1219583,39.5373596 L40.4618039,39.5373596 C40.5731022,38.5466209 40.830255,37.6000438 41.2126184,36.7194863 L41.2126184,36.7194863 L38.1182573,34.6693129 C37.6021565,34.3276173 37.4630337,33.6353046 37.8063529,33.1227612 C38.150121,32.6102179 38.8470815,32.4719338 39.3622848,32.8136293 L39.3622848,32.8136293 L42.3314353,34.7803862 C43.0005713,33.8752944 43.8191521,33.087075 44.7521726,32.4518603 C44.7903192,29.4560019 47.2406762,27.0400447 50.2636808,27.0391526 C53.2310362,27.0400447 55.6427978,29.3694628 55.766662,32.2885958 L55.766662,32.2885958 L55.8182721,32.3207134 Z M61.125539,32.8134955 C61.6407422,32.4717999 62.3377027,32.6105301 62.681022,33.1226274 C63.02479,33.6356168 62.8852184,34.3274835 62.3695664,34.669179 L62.3695664,34.669179 L59.4986994,36.5717007 C59.9174142,37.4941896 60.1979038,38.4916195 60.3159338,39.5372258 L60.3159338,39.5372258 L63.3667629,39.5372258 C63.9860839,39.5372258 64.4887213,40.0363868 64.4887213,40.6524202 C64.4887213,41.2684536 63.9860839,41.7676147 63.3667629,41.7676147 L63.3667629,41.7676147 L60.3190753,41.7676147 C60.197455,42.8484611 59.901258,43.8766704 59.4596552,44.8241396 L59.4596552,44.8241396 L62.3695664,46.7520877 C62.8852184,47.0937833 63.02479,47.786096 62.681022,48.2986393 C62.3377027,48.8107366 61.6407422,48.9499129 61.125539,48.6077712 L61.125539,48.6077712 L58.2914722,46.730676 C56.4640265,49.0748147 53.6057254,50.5856801 50.3906416,50.5861262 C49.3445276,50.5861262 48.3320724,50.4255382 47.3819981,50.1275582 C46.7905016,49.9419899 46.4628898,49.3161427 46.6491349,48.7286583 C46.83538,48.1411739 47.4654718,47.815091 48.0565194,48.0006594 C48.7925241,48.2308355 49.5743047,48.3557373 50.3906416,48.3557373 C52.5340308,48.3552912 54.4642479,47.4952533 55.8702861,46.0994759 C57.2740804,44.7019142 58.1388859,42.7828877 58.1397834,40.6524202 C58.1393346,39.2245253 57.7511371,37.8952135 57.0734742,36.7501319 C56.7588771,36.2197454 56.9370441,35.5359082 57.4710963,35.2232076 C57.4980233,35.2075949 57.5267454,35.1986734 57.55457,35.185291 C57.5675847,35.1754773 57.5783555,35.1629871 57.5922678,35.1540656 L57.5922678,35.1540656 Z M50.3906864,32.9496831 C48.9788141,32.9501291 47.6638789,33.3292952 46.5262131,33.9823531 C46.4921056,34.004657 46.4579981,34.0260687 46.4216466,34.0452501 C45.8723358,34.3726711 45.3616204,34.7580823 44.9105931,35.2059444 C43.5063501,36.6035061 42.6415446,38.5216405 42.640647,40.652554 C42.6415446,42.6875608 43.4327496,44.5307542 44.7270407,45.9086884 L44.7270407,45.9086884 L54.3956289,34.0635393 C53.2260996,33.3591824 51.8609007,32.9501291 50.3906864,32.9496831 Z M50.2636808,29.2695414 C49.3566896,29.2699875 48.5461869,29.6322026 47.9506514,30.2219175 C47.6634301,30.5082994 47.4323067,30.844642 47.268052,31.2166709 C48.2504387,30.895941 49.2992454,30.7197403 50.3906864,30.7192942 C51.3721756,30.7192942 52.3191084,30.8669459 53.2175727,31.1305779 C53.0560107,30.792897 52.8405947,30.4855494 52.5767101,30.2219175 C51.9807258,29.6322026 51.1706719,29.2699875 50.2636808,29.2695414 Z" id="Combined-Shape-Copy-8" fill="#3474A5"></path>
                <path d="M10,55 L28,55 L28,59 L13,59 C11.3431458,59 10,57.6568542 10,56 L10,55 L10,55 Z" id="Rectangle-Copy-140" fill="#ADDBFF" transform="translate(19.000000, 57.000000) scale(-1, 1) translate(-19.000000, -57.000000) "></path>
                <g id="Group-42" transform="translate(0.000000, 41.000000)">
                    <rect id="Rectangle" stroke="#2075B5" stroke-width="2" fill="#FFFFFF" x="1" y="1" width="26" height="14" rx="2"></rect>
                    <rect id="Rectangle-Copy-56" fill="#2075B5" x="5" y="5" width="10" height="2"></rect>
                    <rect id="Rectangle-Copy-60" fill="#2075B5" x="5" y="9" width="18" height="2"></rect>
                    <rect id="Rectangle-Copy-57" fill="#2075B5" x="17" y="5" width="6" height="2"></rect>
                </g>
                <path d="M77,31 L90,31 L90,32 C90,33.6568542 88.6568542,35 87,35 L77,35 L77,35 L77,31 Z" id="Rectangle-Copy-74" fill="#ADDBFF" transform="translate(83.500000, 33.000000) scale(-1, 1) translate(-83.500000, -33.000000) "></path>
                <rect id="Rectangle-Copy-55" stroke="#2075B5" stroke-width="2" fill="#FFFFFF" x="78" y="23" width="19" height="9" rx="2"></rect>
            </g>
        </g>
    </g>
</svg>