<?xml version="1.0" encoding="UTF-8"?>
<svg width="48px" height="39px" viewBox="0 0 48 39" version="1.1" xmlns="http://www.w3.org/2000/svg" xmlns:xlink="http://www.w3.org/1999/xlink">
    <title>icon_quotes</title>
    <g id="medical-3" stroke="none" stroke-width="1" fill="none" fill-rule="evenodd">
        <g id="1" transform="translate(-201.000000, -2210.000000)">
            <g id="4" transform="translate(0.000000, 1893.000000)">
                <g id="item" transform="translate(170.000000, 274.000000)">
                    <g id="icon_quotes" transform="translate(32.000000, 44.262460)">
                        <path d="M5,19.8829434 C5.59138421,10.211812 10.2652634,3.60847347 19.0216375,0.072927895 C19.507391,-0.123203932 20.0621787,0.0887648467 20.2933707,0.558843999 L20.2933707,0.558843999 L22.5580299,5.16290136 C22.7995614,5.65393536 22.6015538,6.24790986 22.1136966,6.49579542 C19.0958458,8.02918996 16.989285,9.68739769 15.794014,11.4704186 C14.6253364,13.2137693 13.9528657,15.6358154 13.7766018,18.7365569 L19,18.7375397 C21.209139,18.7375397 23,20.5284007 23,22.7375397 L23,32.7375397 C23,34.9466787 21.209139,36.7375397 19,36.7375397 L9,36.7375397 C6.790861,36.7375397 5,34.9466787 5,32.7375397 Z" id="Combined-Shape-Copy-5" fill="#DAEFFF"></path>
                        <path d="M29,19.8829434 C29.5913842,10.211812 34.2652634,3.60847347 43.0216375,0.072927895 C43.507391,-0.123203932 44.0621787,0.0887648467 44.2933707,0.558843999 L44.2933707,0.558843999 L46.5580299,5.16290136 C46.7995614,5.65393536 46.6015538,6.24790986 46.1136966,6.49579542 C43.0958458,8.02918996 40.989285,9.68739769 39.794014,11.4704186 C38.6253364,13.2137693 37.9528657,15.6358154 37.7766018,18.7365569 L43,18.7375397 C45.209139,18.7375397 47,20.5284007 47,22.7375397 L47,32.7375397 C47,34.9466787 45.209139,36.7375397 43,36.7375397 L33,36.7375397 C30.790861,36.7375397 29,34.9466787 29,32.7375397 Z" id="Combined-Shape-Copy-4" fill="#DAEFFF"></path>
                        <path d="M0,19.8829434 C0.591384206,10.211812 5.26526337,3.60847347 14.0216375,0.072927895 C14.507391,-0.123203932 15.0621787,0.0887648467 15.2933707,0.558843999 L15.2933707,0.558843999 L17.5580299,5.16290136 C17.7995614,5.65393536 17.6015538,6.24790986 17.1136966,6.49579542 C14.0958458,8.02918996 11.989285,9.68739769 10.794014,11.4704186 C9.62533639,13.2137693 8.95286567,15.6358154 8.77660181,18.7365569 L14,18.7375397 C16.209139,18.7375397 18,20.5284007 18,22.7375397 L18,32.7375397 C18,34.9466787 16.209139,36.7375397 14,36.7375397 L4,36.7375397 C1.790861,36.7375397 2.705415e-16,34.9466787 0,32.7375397 Z" id="Combined-Shape-Copy-3" stroke="#165E95" stroke-width="2"></path>
                        <path d="M24,19.8829434 C24.5913842,10.211812 29.2652634,3.60847347 38.0216375,0.072927895 C38.507391,-0.123203932 39.0621787,0.0887648467 39.2933707,0.558843999 L39.2933707,0.558843999 L41.5580299,5.16290136 C41.7995614,5.65393536 41.6015538,6.24790986 41.1136966,6.49579542 C38.0958458,8.02918996 35.989285,9.68739769 34.794014,11.4704186 C33.6253364,13.2137693 32.9528657,15.6358154 32.7766018,18.7365569 L38,18.7375397 C40.209139,18.7375397 42,20.5284007 42,22.7375397 L42,32.7375397 C42,34.9466787 40.209139,36.7375397 38,36.7375397 L28,36.7375397 C25.790861,36.7375397 24,34.9466787 24,32.7375397 Z" id="Combined-Shape-Copy-2" stroke="#165E95" stroke-width="2"></path>
                    </g>
                </g>
            </g>
        </g>
    </g>
</svg>