<?xml version="1.0" encoding="UTF-8"?>
<svg width="66px" height="49px" viewBox="0 0 66 49" version="1.1" xmlns="http://www.w3.org/2000/svg" xmlns:xlink="http://www.w3.org/1999/xlink">
    <title>icon_fuq2_3</title>
    <g id="medical-3" stroke="none" stroke-width="1" fill="none" fill-rule="evenodd">
        <g id="3" transform="translate(-957.000000, -2684.000000)">
            <g id="5" transform="translate(-205.368961, 2489.000000)">
                <g id="item" transform="translate(1130.368961, 169.000000)">
                    <g id="icon_fuq2_3" transform="translate(32.000000, 26.475460)">
                        <g id="Group-50" transform="translate(0.000000, 11.524540)">
                            <rect id="Rectangle" fill="#E4F7FF" x="0" y="0" width="44" height="36" rx="2"></rect>
                            <rect id="Rectangle-Copy-142" fill="#ADDBFF" x="6" y="16.8468647" width="12" height="3" rx="1.5"></rect>
                            <rect id="Rectangle-Copy-91" fill="#ADDBFF" x="6" y="23.8468647" width="7" height="3" rx="1.5"></rect>
                            <rect id="Rectangle-Copy-90" fill="#ADDBFF" x="15" y="23.8468647" width="3" height="3" rx="1.5"></rect>
                            <rect id="Rectangle-Copy-52" stroke="#2075B5" stroke-width="2" x="1" y="1" width="42" height="35" rx="4"></rect>
                            <polygon id="Rectangle-Copy-51" fill="#2075B5" points="2 10 44 10 44 12 2 12"></polygon>
                            <path d="M6.11674592,5 C5.49985547,5 5,5.50502333 5,6.12829161 C5,6.7515599 5.49985547,7.25658322 6.11674592,7.25658322 C6.73318967,7.25658322 7.23349184,6.7515599 7.23349184,6.12829161 C7.23349184,5.50502333 6.73318967,5 6.11674592,5" id="Fill-9-Copy" fill="#3474A5"></path>
                            <path d="M10.5837296,5 C9.96683915,5 9.46698368,5.50502333 9.46698368,6.12829161 C9.46698368,6.7515599 9.96683915,7.25658322 10.5837296,7.25658322 C11.2001733,7.25658322 11.7004755,6.7515599 11.7004755,6.12829161 C11.7004755,5.50502333 11.2001733,5 10.5837296,5" id="Fill-11-Copy" fill="#3474A5"></path>
                            <path d="M15.0507133,5 C14.4338228,5 13.9339674,5.50502333 13.9339674,6.12829161 C13.9339674,6.7515599 14.4338228,7.25658322 15.0507133,7.25658322 C15.667157,7.25658322 16.1674592,6.7515599 16.1674592,6.12829161 C16.1674592,5.50502333 15.667157,5 15.0507133,5" id="Fill-13-Copy" fill="#3474A5"></path>
                        </g>
                        <g id="Group-50-Copy" transform="translate(22.000000, 0.000000)">
                            <rect id="Rectangle" fill="#E4F7FF" x="0" y="4.5245397" width="44" height="11" rx="2"></rect>
                            <rect id="Rectangle-Copy-7" fill="#FFFFFF" transform="translate(22.000000, 28.524540) scale(1, -1) translate(-22.000000, -28.524540) " x="0" y="16.5245397" width="44" height="24" rx="2"></rect>
                            <path d="M29.5,29.3714044 C30.3284271,29.3714044 31,30.0429772 31,30.8714044 C31,31.6998315 30.3284271,32.3714044 29.5,32.3714044 L25.5,32.3714044 C24.6715729,32.3714044 24,31.6998315 24,30.8714044 C24,30.0429772 24.6715729,29.3714044 25.5,29.3714044 L29.5,29.3714044 Z M34.5,29.3714044 C35.3284271,29.3714044 36,30.0429772 36,30.8714044 C36,31.6998315 35.3284271,32.3714044 34.5,32.3714044 C33.6715729,32.3714044 33,31.6998315 33,30.8714044 C33,30.0429772 33.6715729,29.3714044 34.5,29.3714044 Z M34.5,22.3714044 C35.3284271,22.3714044 36,23.0429772 36,23.8714044 C36,24.6998315 35.3284271,25.3714044 34.5,25.3714044 L25.5,25.3714044 C24.6715729,25.3714044 24,24.6998315 24,23.8714044 C24,23.0429772 24.6715729,22.3714044 25.5,22.3714044 L34.5,22.3714044 Z" id="Combined-Shape" fill="#ADDBFF"></path>
                            <rect id="Rectangle-Copy-52" stroke="#2075B5" stroke-width="2" x="1" y="5.5245397" width="42" height="35" rx="4"></rect>
                            <polygon id="Rectangle-Copy-51" fill="#2075B5" points="2 14.5245397 44 14.5245397 44 16.5245397 2 16.5245397"></polygon>
                            <path d="M6.11674592,9.5245397 C5.49985547,9.5245397 5,10.029563 5,10.6528313 C5,11.2760996 5.49985547,11.7811229 6.11674592,11.7811229 C6.73318967,11.7811229 7.23349184,11.2760996 7.23349184,10.6528313 C7.23349184,10.029563 6.73318967,9.5245397 6.11674592,9.5245397" id="Fill-9-Copy" fill="#3474A5"></path>
                            <path d="M10.5837296,9.5245397 C9.96683915,9.5245397 9.46698368,10.029563 9.46698368,10.6528313 C9.46698368,11.2760996 9.96683915,11.7811229 10.5837296,11.7811229 C11.2001733,11.7811229 11.7004755,11.2760996 11.7004755,10.6528313 C11.7004755,10.029563 11.2001733,9.5245397 10.5837296,9.5245397" id="Fill-11-Copy" fill="#3474A5"></path>
                            <path d="M15.0507133,9.5245397 C14.4338228,9.5245397 13.9339674,10.029563 13.9339674,10.6528313 C13.9339674,11.2760996 14.4338228,11.7811229 15.0507133,11.7811229 C15.667157,11.7811229 16.1674592,11.2760996 16.1674592,10.6528313 C16.1674592,10.029563 15.667157,9.5245397 15.0507133,9.5245397" id="Fill-13-Copy" fill="#3474A5"></path>
                            <line x1="25.6299578" y1="0.5" x2="34.5" y2="0.5" id="Path-2" stroke="#2075B5" stroke-width="2"></line>
                        </g>
                    </g>
                </g>
            </g>
        </g>
    </g>
</svg>