<?xml version="1.0" encoding="UTF-8"?>
<svg width="112px" height="85px" viewBox="0 0 112 85" version="1.1" xmlns="http://www.w3.org/2000/svg" xmlns:xlink="http://www.w3.org/1999/xlink">
    <title>icon_mobile</title>
    <g id="medical-3" stroke="none" stroke-width="1" fill="none" fill-rule="evenodd">
        <g id="1" transform="translate(-669.000000, -1288.000000)">
            <g id="3" transform="translate(253.000000, 1037.000000)">
                <g id="Group-2" transform="translate(416.000000, 251.000000)">
                    <rect id="Rectangle-Copy-27" fill-opacity="0.06" fill="#0091FF" x="57.530303" y="9" width="54" height="76" rx="7.19621036"></rect>
                    <rect id="Rectangle" fill="#DAF4FF" x="25" y="0" width="60" height="76" rx="8"></rect>
                    <rect id="Rectangle" fill="#FFFFFF" x="31" y="8" width="48" height="61" rx="5"></rect>
                    <rect id="Rectangle-Copy-36" fill="#D6F2FE" x="1" y="16" width="38" height="66" rx="5"></rect>
                    <path d="M46,55.8478595 L46,70.5461946 C46,73.5584277 43.4051819,76 40.2049791,76 L40.2049791,76 L38.9178271,76 L38.9178271,62.7311548 C42.0110947,61.3413972 44.527348,58.8954587 46,55.8478595 L46,55.8478595 Z M40.20511,14 C43.4053129,14 45.9996945,16.4415723 45.9996945,19.4533688 L45.9996945,19.4533688 L45.9996945,43.3206986 C44.5270425,40.273536 42.0112256,37.8271609 38.9179581,36.4374033 L38.9179581,36.4374033 L38.9179581,21.4225195 L37.1720754,16.6197128 L32.0871923,14 Z" id="Combined-Shape" fill-opacity="0.3" fill="#50ADF5"></path>
                    <path d="M8.4013701,18.366188 C5.97066502,18.366188 4,20.3375218 4,22.7690519 L4,46.850325 C4,49.2822917 8.36470657,54.1689292 11.3087011,46.7948744 C12.5037578,43.608867 14.0060898,38.878539 17.5305904,35.394321 C23.6695501,29.3253197 34.8191931,26.2196502 35.162259,22.7690519 C35.4027543,20.3493105 33.191594,18.366188 30.7608889,18.366188 L8.4013701,18.366188 Z" id="Fill-5" fill="#ADDBFF"></path>
                    <path d="M33,69 C34.5893305,69 36.1168053,68.7351645 37.5407015,68.2472166 C37.5037594,67.6578958 37.5037594,70.9248311 37.5037594,64.7821751 C37.5037594,57.0501886 19,47.2680135 19,55 C19,62.7319865 25.2680135,69 33,69 Z" id="Oval-Copy-6" fill-opacity="0.3" fill="#50ADF5"></path>
                    <circle id="Oval" fill="#FFFFFF" cx="33" cy="50" r="14"></circle>
                    <path d="M76.6628571,0 C78.5552882,0 80.3244311,0.481994695 81.8090627,1.32374536 C83.2919699,2.16549602 84.4976942,3.37048276 85.2339749,4.82995225 C85.6750967,5.70419841 85.9426796,6.67111544 85.991785,7.68281752 L86,8.02164456 L86,17.5871512 C86,18.1879045 85.517193,18.6746844 84.9223058,18.6746844 C84.3666754,18.6746844 83.9094303,18.250645 83.8509337,17.7056717 L83.8446115,17.5871512 L83.8446115,8.02164456 C83.8437494,7.24166578 83.658386,6.50301326 83.3126617,5.81569231 C82.9665063,5.12924138 82.4582657,4.49499204 81.8138045,3.95470557 C80.5985246,2.93252107 78.9022219,2.2529592 77.0005265,2.18134014 L76.6628571,2.17506631 L34.7064962,2.17506631 C33.1774637,2.17506631 31.7687018,2.56614324 30.6164311,3.21996817 C29.4632982,3.8737931 28.573985,4.78601592 28.0562607,5.81569231 C27.7541291,6.41709814 27.5741137,7.05780471 27.5332531,7.73110923 L27.5243108,8.02164456 L27.5243108,14.5729443 L32.8580351,14.5729443 C36.5361876,14.5737962 39.5311498,17.5187912 39.6547482,21.200187 L39.6587168,21.4361485 L39.6591479,36.1308966 C44.7622456,38.6343979 48.2798396,43.9150239 48.2802707,50.0265252 C48.2798481,56.0181932 44.8988382,61.2112497 39.9570806,63.7717006 L39.6587168,63.9221538 L39.658,67.256 L77.594,67.256 L77.5941143,56.5517241 C77.5941143,55.9514058 78.0764902,55.464191 78.6718085,55.464191 C79.2270366,55.464191 79.6846304,55.8886093 79.7431752,56.4332794 L79.7495028,56.5517241 L79.7495028,68.2970822 C79.7495028,68.8978355 79.2666957,69.3846154 78.6718085,69.3846154 L78.6486779,69.3847002 C78.549578,69.4150286 78.4444503,69.4313358 78.3355679,69.4313358 L78.3355679,69.4313358 L39.658,69.431 L39.6587168,75.1367958 L39.6553221,75.2184695 L39.6553221,75.2184695 L39.6509574,75.2994907 L76.6628571,75.2994907 C78.1914586,75.2999257 79.6006516,74.9088488 80.7524912,74.2550239 C81.9056241,73.6011989 82.7949373,72.6885411 83.3126617,71.6592997 C83.6151704,71.0575133 83.7949029,70.4167591 83.8356869,69.7434486 L83.8446115,69.4529125 L83.8446115,23.9792361 C83.8446115,23.3789178 84.3269875,22.8921379 84.9223058,22.8921379 C85.4775338,22.8921379 85.9351276,23.3161773 85.9936724,23.8607968 L86,23.9792361 L86,69.4529125 C86,70.5874271 85.7241103,71.6732202 85.2339749,72.6450398 C84.7434085,73.6172944 84.0429073,74.4777507 83.192391,75.1924775 C81.5707177,76.5517903 79.4043813,77.3910601 77.0218217,77.4686598 L76.6628571,77.474557 L39.2453133,77.474557 C38.3256809,80.0325405 35.9496345,81.8849156 33.1242049,81.9948319 L32.8580351,82 L6.80111278,82 C3.12296032,82 0.127171475,79.0541886 0.00394335992,75.3727584 L0,75.1367958 L0,21.4361485 C0,17.724416 2.91916067,14.7021109 6.56728489,14.5769758 L6.80111278,14.5729443 L25.3693534,14.5729443 L25.3693534,8.02164456 C25.3684912,6.88712997 25.6452431,5.80133687 26.1349474,4.82995225 C26.6255138,3.8572626 27.326015,2.99680637 28.1769624,2.28251459 C29.7982251,0.923201718 31.964933,0.0839319126 34.3475289,0.00595645468 L34.7064962,0 L76.6628571,0 Z M32.8580351,16.7480106 L6.80111278,16.7480106 C5.51434586,16.7480106 4.36035088,17.2713316 3.51630075,18.1213475 C2.72972765,18.9163197 2.22629405,19.9841323 2.16196448,21.1783608 L2.15495739,21.4361485 L2.15495739,75.1367958 C2.15581955,76.4348753 2.67354386,77.6002759 3.51630075,78.4520318 C4.30408087,79.24538 5.3618574,79.7537617 6.54558219,79.8180199 L6.80111278,79.8249337 L32.8580351,79.8249337 C34.1439398,79.8249337 35.298797,79.3020477 36.1428471,78.4520318 C36.9290179,77.6570596 37.4324247,76.5888681 37.4967524,75.394589 L37.5037594,75.1367958 L37.5037594,64.7821751 C36.0734436,65.2284987 34.5534637,65.469496 32.9774436,65.469496 C24.5253033,65.469061 17.6746165,58.5558302 17.6741855,50.0265252 C17.6746165,41.4972202 24.5253033,34.5844244 32.9774436,34.5835544 C34.3783503,34.5835544 35.7349784,34.7743157 37.0237127,35.1301745 L37.5037594,35.2713103 L37.5037594,21.4361485 C37.5028972,20.138069 36.9851729,18.9731034 36.1428471,18.1213475 C35.298797,17.2713316 34.1439398,16.7480106 32.8580351,16.7480106 Z M19.3987118,69.8194543 C20.4660602,69.8190196 21.4433133,70.2596881 22.1416591,70.9665846 C22.8421604,71.6713061 23.2788421,72.6570462 23.2779812,73.734574 C23.2788421,74.8125369 22.8421604,75.7982769 22.1416591,76.5034334 C21.4433133,77.209895 20.4660602,77.6505634 19.3987118,77.6496947 C18.3305013,77.6505634 17.3536792,77.209895 16.6553333,76.5034334 C15.9548321,75.7982769 15.5181504,74.8125369 15.5190113,73.734574 C15.5181504,72.6570462 15.9548321,71.6713061 16.6553333,70.9665846 C17.3536792,70.2596881 18.3305013,69.8190196 19.3987118,69.8194543 Z M19.3987118,71.994521 C18.9189223,71.995391 18.4947419,72.1876668 18.179193,72.5043565 C17.8653684,72.8227862 17.6748321,73.2508393 17.6739699,73.734574 C17.6748321,74.2187438 17.8653684,74.6467968 18.179193,74.9652265 C18.4947419,75.2819162 18.9189223,75.474192 19.3987118,75.4746271 C19.8780702,75.474192 20.3022506,75.2819162 20.6177995,74.9652265 C20.9316241,74.6467968 21.1221604,74.2187438 21.1230226,73.734574 C21.1221604,73.2508393 20.9316241,72.8227862 20.6177995,72.5043565 C20.3022506,72.1876668 19.8780702,71.995391 19.3987118,71.994521 Z M32.9774436,36.7586207 C29.3434586,36.7590557 26.0629574,38.2420159 23.680391,40.6450292 C21.2995489,43.0489125 19.830005,46.3593634 19.8291429,50.0265252 C19.830005,53.693687 21.2995489,57.0041379 23.680391,59.4084562 C26.0629574,61.8110345 29.3434586,63.2939947 32.9774436,63.2944297 C36.6114286,63.2939947 39.8914987,61.8110345 42.2744962,59.4084562 C44.6553383,57.0041379 46.1244511,53.693687 46.1253133,50.0265252 C46.1244511,46.3593634 44.6553383,43.0489125 42.2744962,40.6450292 C39.8914987,38.2420159 36.6114286,36.7590557 32.9774436,36.7586207 Z M37.2828321,45.0313984 C37.6354536,44.5476637 38.3105213,44.4450005 38.7894486,44.8008414 C39.268807,45.1571172 39.3709724,45.837913 39.0179198,46.3216477 L39.0179198,46.3216477 L32.9828321,54.5868997 C32.7905714,54.8496477 32.4875238,55.0132127 32.1646466,55.0280032 C31.8413383,55.0427936 31.5244962,54.9079395 31.3098195,54.6643321 L31.3098195,54.6643321 L27.861198,50.7492127 C27.4658997,50.300279 27.5055589,49.6129581 27.9508622,49.2136159 C28.3953033,48.8147088 29.076406,48.855165 29.4721353,49.3040987 L29.4721353,49.3040987 L32.0366165,52.2156424 Z M78.6718085,46.3289125 C79.2270366,46.3289125 79.6846304,46.7533307 79.7431752,47.2980009 L79.7495028,47.4164456 L79.7495028,51.331565 C79.7495028,51.9323183 79.2666957,52.4190981 78.6718085,52.4190981 C78.1161781,52.4190981 77.658933,51.9950588 77.6004365,51.4500855 L77.5941143,51.331565 L77.5941143,47.4164456 C77.5941143,46.8161273 78.0764902,46.3289125 78.6718085,46.3289125 Z M78.3354817,7.65927851 C78.6191308,7.65927851 78.8967449,7.77586207 79.0976271,7.97814324 C79.2690728,8.15189996 79.3784434,8.38222617 79.4061932,8.62474289 L79.4131759,8.74681167 L79.4131759,40.8912467 C79.4131759,41.492 78.9303689,41.9787798 78.3354817,41.9787798 C77.7798513,41.9787798 77.3226062,41.5547405 77.2641097,41.0097672 L77.2577875,40.8912467 L77.2573564,9.83434483 L32.546409,9.83434483 C31.9510907,9.83434483 31.4687148,9.34756499 31.4687148,8.74681167 C31.4687148,8.18651459 31.8889178,7.72474318 32.4289607,7.66566386 L32.546409,7.65927851 L78.3354817,7.65927851 Z M67.717219,29.4336934 C68.3121063,29.4336934 68.7949133,29.9209082 68.7949133,30.5212265 C68.7949133,31.0819296 68.3743347,31.5433492 67.8345922,31.6023797 L67.717219,31.6087597 L51.6725073,31.6087597 C51.077189,31.6087597 50.594813,31.1219798 50.594813,30.5212265 C50.594813,29.9609294 51.0150161,29.499158 51.555059,29.4400787 L51.6725073,29.4336934 L67.717219,29.4336934 Z M67.717219,21.6034546 C68.3121063,21.6034546 68.7949133,22.0906695 68.7949133,22.6909878 C68.7949133,23.2516909 68.3743347,23.7131104 67.8345922,23.772141 L67.717219,23.778521 L51.6725073,23.778521 C51.077189,23.778521 50.594813,23.2917411 50.594813,22.6909878 C50.594813,22.1306907 51.0150161,21.6689193 51.555059,21.60984 L51.6725073,21.6034546 L67.717219,21.6034546 Z M23.0628722,20.2281167 C23.6577594,20.2281167 24.1405664,20.7153316 24.1405664,21.3156499 C24.1405664,21.9164032 23.6577594,22.403183 23.0628722,22.403183 L23.0628722,22.403183 L17.7080251,22.403183 C17.1127068,22.403183 16.6303308,21.9164032 16.6303308,21.3156499 C16.6303308,20.7153316 17.1127068,20.2281167 17.7080251,20.2281167 L17.7080251,20.2281167 Z" id="Combined-Shape" fill="#1F73B3"></path>
                </g>
            </g>
        </g>
    </g>
</svg>