<?xml version="1.0" encoding="UTF-8"?>
<svg width="56px" height="46px" viewBox="0 0 56 46" version="1.1" xmlns="http://www.w3.org/2000/svg" xmlns:xlink="http://www.w3.org/1999/xlink">
    <title>icon_mission_2</title>
    <g id="medical-3" stroke="none" stroke-width="1" fill="none" fill-rule="evenodd">
        <g id="6" transform="translate(-276.000000, -2831.000000)">
            <g id="4" transform="translate(-2.000000, 2339.000000)">
                <g id="item" transform="translate(226.000000, 222.000000)">
                    <g id="icon_mission_2" transform="translate(52.651515, 271.000000)">
                        <rect id="Rectangle-Copy-10" fill-opacity="0.06" fill="#0091FF" x="0" y="4" width="45.3484848" height="41" rx="7.19621036"></rect>
                        <path d="M31.3484848,8 L50.3484848,8 C52.5576238,8 54.3484848,9.790861 54.3484848,12 L54.3484848,31.1233115 L54.3484848,36 C54.3484848,38.209139 52.5576238,40 50.3484848,40 L31.3484848,40 C29.1393458,40 27.3484848,38.209139 27.3484848,36 L27.3484848,12 C27.3484848,9.790861 29.1393458,8 31.3484848,8 Z" id="Rectangle-Copy-4" stroke="#2075B5" stroke-width="2" fill="#E4F7FF" stroke-linecap="round" stroke-linejoin="round" transform="translate(40.848485, 24.000000) scale(1, -1) rotate(-180.000000) translate(-40.848485, -24.000000) "></path>
                        <path d="M33.2200357,7.10846811 L42.2200357,11.873174 C43.5294904,12.5664147 44.3484848,13.9266866 44.3484848,15.4083257 L44.3484848,33.2328976 L44.3484848,37.1164488 C44.3484848,38.4078087 43.3016308,39.4546628 42.0102708,39.4546628 C41.6288938,39.4546628 41.2533056,39.3613757 40.9162492,39.1829341 L29.476934,33.126826 C28.1674793,32.4335853 27.3484848,31.0733134 27.3484848,29.5916743 L27.3484848,10.6436198 C27.3484848,8.43448078 29.1393458,6.64361978 31.3484848,6.64361978 C32.0009093,6.64361978 32.6434309,6.80320671 33.2200357,7.10846811 Z" id="Rectangle-Copy-7" stroke="#2075B5" stroke-width="2" fill="#E4F7FF" stroke-linecap="round" stroke-linejoin="round" transform="translate(35.848485, 22.500000) scale(1, -1) rotate(-180.000000) translate(-35.848485, -22.500000) "></path>
                        <path d="M14.3484848,0 L40.3484848,0 C42.5576238,-4.05812251e-16 44.3484848,1.790861 44.3484848,4 L44.3484848,28 C44.3484848,30.209139 42.5576238,32 40.3484848,32 L14.3484848,32 C12.1393458,32 10.3484848,30.209139 10.3484848,28 L10.3484848,4 C10.3484848,1.790861 12.1393458,4.05812251e-16 14.3484848,0 Z" id="Rectangle" stroke="#2075B5" stroke-width="2" fill="#FFFFFF" stroke-linecap="round" stroke-linejoin="round"></path>
                        <path d="M27.4184848,25 C27.6718182,25 27.8851515,24.91 28.0584848,24.73 C28.2318182,24.55 28.3184848,24.3333333 28.3184848,24.08 L28.3184848,24.08 L28.3184848,23.04 C29.3984848,22.8666667 30.3118182,22.4333333 31.0584848,21.74 C31.8184848,21.06 32.1984848,20.1866667 32.1984848,19.12 C32.1984848,18.16 31.8584848,17.38 31.1784848,16.78 C30.5384848,16.18 29.4584848,15.5866667 27.9384848,15 L27.9384848,15 L26.9584848,14.62 C25.7051515,14.14 25.0784848,13.4666667 25.0784848,12.6 C25.0784848,12.04 25.2851515,11.5933333 25.6984848,11.26 C26.1118182,10.9266667 26.6718182,10.76 27.3784848,10.76 C27.8851515,10.76 28.3151515,10.86 28.6684848,11.06 C29.0218182,11.26 29.3651515,11.58 29.6984848,12.02 C29.9384848,12.3266667 30.2451515,12.48 30.6184848,12.48 C30.8851515,12.48 31.1018182,12.3966667 31.2684848,12.23 C31.4351515,12.0633333 31.5184848,11.86 31.5184848,11.62 C31.5184848,11.34 31.3651515,11.0066667 31.0584848,10.62 C30.3384848,9.72666667 29.4251515,9.16666667 28.3184848,8.94 L28.3184848,8.94 L28.3184848,7.92 C28.3184848,7.66666667 28.2318182,7.45 28.0584848,7.27 C27.8851515,7.09 27.6718182,7 27.4184848,7 C27.1651515,7 26.9484848,7.09 26.7684848,7.27 C26.5884848,7.45 26.4984848,7.66666667 26.4984848,7.92 L26.4984848,7.92 L26.4984848,8.92 C25.4318182,9.06666667 24.5684848,9.47333333 23.9084848,10.14 C23.2484848,10.8066667 22.9184848,11.62 22.9184848,12.58 C22.9184848,13.46 23.2084848,14.1933333 23.7884848,14.78 C24.3684848,15.3666667 25.2451515,15.8933333 26.4184848,16.36 L26.4184848,16.36 L27.4984848,16.78 C28.4318182,17.1533333 29.0784848,17.4966667 29.4384848,17.81 C29.7984848,18.1233333 29.9784848,18.56 29.9784848,19.12 C29.9784848,19.8 29.7218182,20.32 29.2084848,20.68 C28.6951515,21.04 28.0451515,21.22 27.2584848,21.22 C26.0318182,21.22 25.0918182,20.7133333 24.4384848,19.7 C24.1584848,19.2733333 23.8118182,19.06 23.3984848,19.06 C23.1318182,19.06 22.9151515,19.15 22.7484848,19.33 C22.5818182,19.51 22.4984848,19.7333333 22.4984848,20 C22.4984848,20.2933333 22.6384848,20.6333333 22.9184848,21.02 C23.6651515,22.18 24.8584848,22.8733333 26.4984848,23.1 L26.4984848,23.1 L26.4984848,24.08 C26.4984848,24.3333333 26.5884848,24.55 26.7684848,24.73 C26.9484848,24.91 27.1651515,25 27.4184848,25 Z" id="$" fill="#2075B5" fill-rule="nonzero"></path>
                    </g>
                </g>
            </g>
        </g>
    </g>
</svg>