<?xml version="1.0" encoding="UTF-8"?>
<svg width="156px" height="31px" viewBox="0 0 156 31" version="1.1" xmlns="http://www.w3.org/2000/svg" xmlns:xlink="http://www.w3.org/1999/xlink">
    <title>logo_footer</title>
    <g id="medical-3" stroke="none" stroke-width="1" fill="none" fill-rule="evenodd">
        <g id="1" transform="translate(-170.000000, -4013.000000)" fill="#FFFFFF">
            <g id="footer" transform="translate(0.000000, 3917.000000)">
                <path d="M274.329206,102 C276.772267,102 278.734315,103.299606 279.42254,104.907085 L279.42254,104.32598 C279.42254,103.128738 280.455074,102.103143 281.694035,102.103143 C282.89931,102.103143 284,103.128738 284,104.32598 L284,117.97126 C284,118.142128 283.96553,118.313774 283.93106,118.484252 L283.93106,119.647242 C283.93106,125.221653 278.699845,127 275.051117,127 C272.917503,127 271.197136,126.418505 270.439971,126.07677 C269.475986,125.666143 268.95972,124.981504 268.95972,124.161417 C268.95972,123.135433 269.785825,122.38307 270.749418,122.38307 C270.955846,122.38307 271.231606,122.416933 271.678933,122.553938 C272.367158,122.725195 273.537179,123.135433 275.085979,123.135433 C277.874132,123.135433 279.42254,121.664959 279.42254,119.647242 L279.42254,117.321652 C279.147564,118.381109 277.323004,120.227958 274.329206,120.227958 C270.543381,120.227958 266,117.321652 266,111.097243 C266,105.00945 270.57746,102 274.329206,102 Z M317.670975,102 C321.42264,102 326,104.921043 326,110.829996 C326,116.871553 321.457109,119.692482 317.670975,119.692482 C314.677242,119.692482 312.852722,117.899887 312.57736,116.871553 L312.57736,117.502078 C312.57736,117.634681 312.57736,117.768039 312.542891,117.867019 L312.542891,123.842085 C312.542891,125.037401 311.476302,126 310.271054,126 C309.032511,126 308,125.037401 308,123.842085 L308,104.25765 C308,103.09558 309.101449,102.100113 310.305915,102.100113 C311.544849,102.100113 312.57736,103.09558 312.57736,104.25765 L312.57736,104.821685 C313.26557,103.261428 315.227967,102 317.670975,102 Z M254.309508,100 C255.585457,100 256.619415,101.002062 256.619415,102.238261 L256.619415,102.238261 L256.619415,108.472363 L259.433703,108.472363 C260.851246,108.472363 262,109.586066 262,110.959491 C262,112.332916 260.851246,113.44662 259.433703,113.44662 L259.433703,113.44662 L256.619415,113.44662 L256.619415,119.761739 C256.619415,120.998326 255.585457,122 254.309508,122 C253.033959,122 252,120.998326 252,119.761739 L252,119.761739 L252,102.238261 C252,101.002062 253.033959,100 254.309508,100 Z M247.684472,100 C248.963346,100 250,101.002062 250,102.238261 L250,102.238261 L250,119.761739 C250,120.997938 248.963346,122 247.684472,122 C246.405598,122 245.368944,120.997938 245.368944,119.761739 L245.368944,119.761739 L245.368944,113.44662 L242.572987,113.44662 C241.15215,113.44662 240,112.332916 240,110.959491 C240,109.586066 241.15215,108.472363 242.572987,108.472363 L242.572987,108.472363 L245.368944,108.472363 L245.368944,102.238261 C245.368944,101.002062 246.405598,100 247.684472,100 Z M295.329025,102 C297.772425,102 299.73443,103.283353 300.42264,104.870729 L300.42264,104.296891 C300.42264,103.114622 301.455151,102.101853 302.693694,102.101853 C303.898942,102.101853 305,103.114622 305,104.296891 L305,117.771524 C305,118.987615 303.898942,119.966946 302.693694,119.966946 C301.455151,119.966946 300.42264,118.987615 300.42264,117.771524 L300.42264,117.130039 C300.147669,118.176247 298.323149,120 295.329025,120 C291.543282,120 287,117.130039 287,110.983473 C287,104.971814 291.57736,102 295.329025,102 Z M194.861946,102 C196.034579,102 197,102.925558 197,104.125428 C197,104.434078 196.79318,104.776675 196.689574,105.154 L192.068896,118.285844 C191.689792,119.417039 190.86212,120 189.930842,120 C188.930886,120 188.137749,119.417039 187.689574,118.285844 L183.482929,108.479688 L179.275891,118.285844 C178.827323,119.417039 178.000044,120 177.068766,120 C176.069202,120 175.276065,119.417039 174.896568,118.285844 L170.310426,105.154 C170.172677,104.776675 170,104.434078 170,104.125428 C170,102.925558 170.930886,102 172.138054,102 C172.930798,102 173.793006,102.479948 174.034361,103.19948 L177.345049,113.519532 L181.448088,103.371168 C181.827585,102.479948 182.517508,102 183.482929,102 C184.482885,102 185.172415,102.479948 185.517377,103.371168 L189.620416,113.519532 L192.930711,103.19948 C193.172459,102.479948 194.034274,102 194.861946,102 Z M207.681834,102 C211.444751,102 216,105.050861 216,110.304992 C216,112.068071 215.04274,112.677626 213.293525,112.677626 L203.489127,112.610112 C203.885481,115.084982 205.8,116.407099 208.20968,116.407099 C209.398365,116.407099 209.959271,116.135499 210.949591,115.694923 C211.543558,115.423709 212.006033,115.152882 212.567315,115.152882 C213.491514,115.152882 214.05242,115.830336 214.05242,116.677926 C214.05242,117.220353 213.82137,117.830293 212.996354,118.54247 C211.774983,119.424009 210.124575,120 208.044751,120 C203.654431,120 199,117.220353 199,111.050732 C199,104.949011 203.918541,102 207.681834,102 Z M221.305573,96 C222.510456,96 223.54299,96.9986425 223.54299,98.1635991 L223.54299,104.155454 C223.57746,104.288808 223.57746,104.388445 223.57746,104.5218 L223.57746,105.087419 C224.265685,103.522778 226.227733,102.257806 228.671186,102.257806 C232.42254,102.257806 237,105.187056 237,111.112612 C237,117.171144 232.457402,120 228.671186,120 C225.676996,120 223.852828,118.202368 223.57746,117.171144 L223.57746,117.803441 C223.57746,119.002115 222.544926,119.967419 221.305573,119.967419 C220.101473,119.967419 219,119.002115 219,117.803441 L219,98.1635991 C219,96.9986425 220.067003,96 221.305573,96 Z M275.154919,105.830705 C272.883033,105.830705 270.508911,107.609052 270.508911,111.097243 C270.508911,114.619685 272.883033,116.363781 275.154919,116.363781 C277.082497,116.363781 279.62936,114.96181 279.62936,111.097243 C279.62936,107.232676 277.082497,105.830705 275.154919,105.830705 Z M227.845081,105.986425 C225.917894,105.986425 223.371031,107.351034 223.371031,111.112612 C223.371031,114.874191 225.917894,116.2388 227.845081,116.2388 C230.116576,116.2388 232.49148,114.541184 232.49148,111.112612 C232.49148,107.71738 230.116576,105.986425 227.845081,105.986425 Z M296.15472,105.782798 C293.883275,105.782798 291.508813,107.538905 291.508813,110.983473 C291.508813,114.461864 293.883275,116.184148 296.15472,116.184148 C298.082256,116.184148 300.629064,114.79971 300.629064,110.983473 C300.629064,107.167236 298.082256,105.782798 296.15472,105.782798 Z M316.84528,105.718172 C314.918136,105.718172 312.370936,107.078957 312.370936,110.829996 C312.370936,114.581035 314.918136,115.941821 316.84528,115.941821 C319.116725,115.941821 321.491579,114.248961 321.491579,110.829996 C321.491579,107.444277 319.116725,105.718172 316.84528,105.718172 Z M207.681834,105.864115 C205.8,105.864115 203.786298,106.948968 203.489127,109.559252 L211.741923,109.559252 C211.411691,106.948968 209.563293,105.864115 207.681834,105.864115 Z" id="logo_footer"></path>
            </g>
        </g>
    </g>
</svg>