<?xml version="1.0" encoding="UTF-8"?>
<svg width="107px" height="80px" viewBox="0 0 107 80" version="1.1" xmlns="http://www.w3.org/2000/svg" xmlns:xlink="http://www.w3.org/1999/xlink">
    <title>pic_webgap_signup</title>
    <g id="medical-3" stroke="none" stroke-width="1" fill="none" fill-rule="evenodd">
        <g id="1" transform="translate(-173.000000, -796.000000)">
            <g id="2" transform="translate(-19.000000, 739.000000)">
                <g id="pic_webgap_signup" transform="translate(192.000000, 57.000000)">
                    <rect id="Rectangle-Copy-27" fill-opacity="0.06" fill="#0091FF" x="0" y="17" width="78.530303" height="62" rx="7.19621036"></rect>
                    <g id="Group" transform="translate(7.832653, 10.909091)">
                        <path d="M78.9090909,1 C79.737518,1 80.487518,1.33578644 81.0304113,1.87867966 C81.5733045,2.42157288 81.9090909,3.17157288 81.9090909,4 L81.9090909,4 L81.9090909,12.0909091 L1,12.0909091 L1,4 C1,3.17157288 1.33578644,2.42157288 1.87867966,1.87867966 C2.42157288,1.33578644 3.17157288,1 4,1 L4,1 Z" id="Rectangle" stroke="#2075B5" stroke-width="2" fill="#E4F7FF"></path>
                        <path d="M81.9090909,11.9090909 L81.9090909,55.0909091 C81.9090909,56.471621 81.3494468,57.721621 80.4446248,58.626443 C79.5398028,59.531265 78.2898028,60.0909091 76.9090909,60.0909091 L76.9090909,60.0909091 L6,60.0909091 C4.61928813,60.0909091 3.36928813,59.531265 2.46446609,58.626443 C1.55964406,57.721621 1,56.471621 1,55.0909091 L1,55.0909091 L1,11.9090909 L81.9090909,11.9090909 Z" id="Rectangle-Copy-2" stroke="#2075B5" stroke-width="2" fill="#E4F7FF"></path>
                        <path d="M7.41126409,6.20610352 C7.41126409,5.5905162 6.90862675,5.09090909 6.28930575,5.09090909 C5.66953596,5.09090909 5.16734741,5.5905162 5.16734741,6.20610352 C5.16734741,6.82213693 5.66953596,7.32129796 6.28930575,7.32129796 C6.90862675,7.32129796 7.41126409,6.82213693 7.41126409,6.20610352 Z" id="Fill-15" fill="#3474A5"></path>
                        <path d="M11.8990974,6.20610352 C11.8990974,5.5905162 11.3964601,5.09090909 10.7771391,5.09090909 C10.1573693,5.09090909 9.65518077,5.5905162 9.65518077,6.20610352 C9.65518077,6.82213693 10.1573693,7.32129796 10.7771391,7.32129796 C11.3964601,7.32129796 11.8990974,6.82213693 11.8990974,6.20610352 Z" id="Fill-17" fill="#3474A5"></path>
                        <path d="M16.3869308,6.20610352 C16.3869308,5.5905162 15.8842935,5.09090909 15.2649725,5.09090909 C14.6452027,5.09090909 14.1430141,5.5905162 14.1430141,6.20610352 C14.1430141,6.82213693 14.6452027,7.32129796 15.2649725,7.32129796 C15.8842935,7.32129796 16.3869308,6.82213693 16.3869308,6.20610352 Z" id="Fill-19" fill="#3474A5"></path>
                    </g>
                    <path d="M89,45.8057011 C86.7515375,46.5990032 84.33529,47.0301716 81.8192581,47.0301716 C71.138012,47.0301716 62.255783,39.2595015 60.3732927,29 C60.131554,30.3147141 60,31.669309 60,33.0556733 C60,45.2531107 69.7690496,53 81.8192581,53 C84.2993084,53 86.6827166,52.5811967 88.9042228,51.8096533" id="Combined-Shape" fill="#ADDBFF"></path>
                    <path d="M36.4385909,11.0598275 C37.0555018,11.0598275 37.556183,10.5580079 37.556183,9.93869347 L37.556183,0.422507902 C37.556183,-0.196806531 37.0555018,-0.698626119 36.4385909,-0.698626119 C35.821233,-0.698626119 35.3209988,-0.196806531 35.3209988,0.422507902 L35.3209988,9.93869347 C35.3209988,10.5580079 35.821233,11.0598275 36.4385909,11.0598275" id="Fill-22-Copy" fill="#3474A5" transform="translate(36.438591, 5.180601) rotate(-270.000000) translate(-36.438591, -5.180601) "></path>
                    <path d="M25.056183,37.4386935 L25.056183,24.9225079 C25.056183,24.3031935 24.5555018,23.8013739 23.9385909,23.8013739 C23.321233,23.8013739 22.8209988,24.3031935 22.8209988,24.9225079 L22.8209988,37.4386935 C22.8209988,38.0580079 23.321233,38.5598275 23.9385909,38.5598275 C24.5555018,38.5598275 25.056183,38.0580079 25.056183,37.4386935 Z" id="Fill-22-Copy-2" fill="#3474A5" transform="translate(23.938591, 31.180601) rotate(-270.000000) translate(-23.938591, -31.180601) "></path>
                    <path d="M41.1769562,36.1870503 L41.1769562,26.1741511 C41.1769562,25.3491138 40.676275,24.6806007 40.0593641,24.6806007 C39.4420062,24.6806007 38.941772,25.3491138 38.941772,26.1741511 L38.941772,36.1870503 C38.941772,37.0120875 39.4420062,37.6806007 40.0593641,37.6806007 C40.676275,37.6806007 41.1769562,37.0120875 41.1769562,36.1870503 Z" id="Fill-22-Copy-3" fill="#3474A5" transform="translate(40.059364, 31.180601) rotate(-270.000000) translate(-40.059364, -31.180601) "></path>
                    <path d="M24.677043,2.46017406 C24.0596851,2.46017406 23.5594509,2.96199364 23.5594509,3.58130808 L23.5594509,6.81914313 C23.5594509,7.43845756 24.0596851,7.94027715 24.677043,7.94027715 C25.2939538,7.94027715 25.7946351,7.43845756 25.7946351,6.81914313 L25.7946351,3.58130808 C25.7946351,2.96199364 25.2939538,2.46017406 24.677043,2.46017406" id="Fill-24-Copy" fill="#3474A5" transform="translate(24.677043, 5.200226) rotate(-270.000000) translate(-24.677043, -5.200226) "></path>
                    <path d="M70.4385909,84.0598275 C71.0555018,84.0598275 71.556183,83.5580079 71.556183,82.9386935 L71.556183,73.4225079 C71.556183,72.8031935 71.0555018,72.3013739 70.4385909,72.3013739 C69.821233,72.3013739 69.3209988,72.8031935 69.3209988,73.4225079 L69.3209988,82.9386935 C69.3209988,83.5580079 69.821233,84.0598275 70.4385909,84.0598275" id="Fill-22-Copy-4" fill="#3474A5" transform="translate(70.438591, 78.180601) rotate(-270.000000) translate(-70.438591, -78.180601) "></path>
                    <path d="M58.677043,75.4601741 C58.0596851,75.4601741 57.5594509,75.9619936 57.5594509,76.5813081 L57.5594509,79.8191431 C57.5594509,80.4384576 58.0596851,80.9402771 58.677043,80.9402771 C59.2939538,80.9402771 59.7946351,80.4384576 59.7946351,79.8191431 L59.7946351,76.5813081 C59.7946351,75.9619936 59.2939538,75.4601741 58.677043,75.4601741" id="Fill-24-Copy-2" fill="#3474A5" transform="translate(58.677043, 78.200226) rotate(-270.000000) translate(-58.677043, -78.200226) "></path>
                    <circle id="Oval-Copy" fill="#FFFFFF" cx="83.1037736" cy="23.5" r="23.5"></circle>
                    <path d="M93.1770612,26.2800333 L90.081158,26.2800333 L90.081158,33.4564635 C90.081158,34.8612508 88.9438068,36 87.5404142,36 C86.1373513,36 85,34.8612508 85,33.4564635 L85,13.5435365 C85,12.1384191 86.1373513,11 87.5404142,11 C88.9438068,11 90.081158,12.1384191 90.081158,13.5435365 L90.081158,20.6275465 L93.1770612,20.6275465 C94.7360566,20.6275465 96,21.8930434 96,23.4536249 C96,25.0145364 94.7360566,26.2800333 93.1770612,26.2800333 L93.1770612,26.2800333 Z M81,33.4564635 C81,34.8612508 79.8596755,36 78.4529447,36 C77.0462139,36 75.9058894,34.8612508 75.9058894,33.4564635 L75.9058894,26.2800333 L72.8303185,26.2800333 C71.2672476,26.2800333 70,25.0145364 70,23.4536249 C70,21.8930434 71.2672476,20.6275465 72.8303185,20.6275465 L75.9058894,20.6275465 L75.9058894,13.5435365 C75.9058894,12.1384191 77.0462139,11 78.4529447,11 C79.8596755,11 81,12.1384191 81,13.5435365 L81,33.4564635 Z M60,23.9998296 C60,36.7024033 70.2973321,47 83,47 C95.7026679,47 106,36.7024033 106,23.9998296 C106,11.2972558 95.7026679,1 83,1 C70.2973321,1 60,11.2972558 60,23.9998296 Z" id="Fill-1" stroke="#2075B5" stroke-width="2"></path>
                    <path d="M17,52 L19.4984927,55 L47.7258397,55 L50,52 L50,56 C50,57.6568542 48.6568542,59 47,59 L20,59 C18.3431458,59 17,57.6568542 17,56 L17,52 L17,52 Z" id="Rectangle-Copy-5" fill="#ADDBFF"></path>
                    <rect id="Rectangle" stroke="#2075B5" stroke-width="2" fill="#FFFFFF" x="18" y="47" width="31" height="8" rx="4"></rect>
                </g>
            </g>
        </g>
    </g>
</svg>